<svg xmlns="http://www.w3.org/2000/svg" version="1.1" style="display: block;" viewBox="0 0 2048 1365">
<path transform="translate(0,0)" fill="currentColor" d="M 938.207 384.168 C 954.093 383.198 985.548 395.153 995.022 408.253 C 1009.06 427.668 973.843 434.715 961.755 439.223 C 917.441 455.753 876.5 478.64 836.439 503.412 C 870.365 510.256 881.195 514.352 879.926 552.688 C 894.826 550.893 930.05 550.314 946.322 549.573 L 1090.54 543.625 C 1115.89 542.666 1147.61 542.395 1172.26 540.105 C 1167.35 531.659 1161.26 522.055 1159.13 512.433 C 1154.07 490.155 1157 451.011 1184.22 444.168 C 1211.77 437.242 1218.83 472.192 1223.46 491.626 C 1227.09 506.898 1230.38 522.041 1233.81 537.233 C 1254.72 535.879 1388.78 530.161 1396.36 525.289 C 1403.44 520.743 1407.73 477.87 1410.86 467.595 C 1413.28 459.635 1417.13 451.731 1424.87 447.799 C 1430.58 444.904 1438.98 444.116 1445 446.381 C 1460.25 452.116 1459.35 482.354 1465.84 497.348 C 1479.06 497.016 1494.39 495.787 1507.41 496.102 C 1550.05 497.132 1593.05 501.404 1635.59 504.453 C 1655.51 505.881 1670.26 510.988 1689.18 513.597 C 1747.69 521.952 1806.29 529.602 1864.97 536.546 C 1877.79 538.011 1925.94 539.557 1934.28 545.56 C 1941.43 550.712 1941.26 561.278 1944.51 568.76 C 1946.71 573.811 1950.61 577.955 1952.85 582.991 C 1955.15 588.154 1956.64 593.743 1958.77 598.993 C 1971.87 631.205 1977.48 648.449 1982.46 683.174 C 1986.9 686.197 1991.22 689.955 1992.05 695.594 C 1995.96 717.539 1986.41 743.12 1985.9 764.489 C 1985.26 791.386 1984.85 813.082 1970.66 837.065 C 1966.59 844.882 1960.61 848.917 1951.65 850.419 C 1896.85 859.615 1842.22 869.001 1786.88 874.852 C 1766.34 877.023 1746.03 880.775 1725.41 881.26 C 1721.03 881.364 1716.88 878.761 1713.33 876.544 C 1704.83 877.142 1695.94 877.024 1687.39 877.068 C 1677.28 895.575 1666.1 910.095 1649.69 923.49 C 1620.03 947.85 1581.83 959.286 1543.67 955.235 C 1503.83 951.022 1470.35 931.521 1445.4 900.521 C 1439.68 892.698 1436.37 888.237 1431.35 879.808 C 1424.91 879.892 1416.13 879.213 1409.99 880.733 C 1409.54 880.844 1408.74 888.015 1405.71 890.773 C 1401.33 892.915 1285.03 891.937 1266.58 891.937 L 751.008 891.928 L 622.034 891.934 C 613.782 891.936 576.444 892.568 571.288 891.495 C 567.644 888.703 568.098 888.08 566.48 883.019 C 561.788 881.225 546.272 881.825 540.427 881.846 C 526.048 905.219 509.298 922.932 485.186 936.627 C 451.2 955.901 410.918 960.788 373.308 950.201 C 333.525 939.026 303.994 913.936 284.01 878.229 C 279.098 878.183 273.439 877.411 269.333 879.596 C 266.357 883.21 267.63 882.479 266.907 888.177 C 266.358 888.826 265.921 889.342 265.159 889.748 C 255.956 894.645 173.122 885.227 158.134 883.195 C 147.448 881.731 136.835 879.772 126.33 877.325 C 113.401 874.277 69.9329 864.908 74.4954 845.256 C 75.5242 840.825 84.8271 837.476 89.0016 835.618 C 82.8417 821.985 83.2756 810.602 85.3767 796.355 C 76.0302 778.638 74.611 771.228 79.8862 751.448 C 72.0833 727.012 64.3669 693.326 82.6925 671.97 C 80.7165 666.263 79.7627 659.337 83.7877 654.278 C 97.1101 638.039 120.714 625.752 140.302 618.421 C 265.107 571.713 409.864 556.941 540.951 547.039 C 563.942 545.285 586.952 543.792 609.976 542.558 C 619.637 542.107 655.688 541.831 661.664 539.202 C 678.922 531.61 705.664 512.73 722.309 502.046 C 765.959 474.03 810.376 447.986 855.931 423.317 C 874.896 413.047 918.438 387.974 938.207 384.168 z M 1020.68 607.509 L 857.503 608.108 C 804.719 608.894 751.93 609.253 699.141 609.185 C 687.291 650.083 690.678 693.807 692.782 735.965 C 693.805 756.462 695.347 785.698 698.367 805.735 L 838.976 796.752 C 861.017 795.326 884.973 794.268 906.806 792.114 C 957.515 789.523 1010.12 785.208 1060.84 781.447 C 1104.5 778.211 1151.63 775.346 1194.96 770.806 C 1212.12 726.476 1235.22 654.289 1229.28 607.324 L 1190.44 606.897 C 1179.8 625.736 1151.67 625.226 1132.44 624.916 C 1116.65 624.661 1097.39 623.763 1090.24 607.304 L 1020.68 607.509 z M 89.7923 661.521 C 95.3852 679.273 96.3942 723.398 93.5357 743.209 C 92.6182 749.567 87.1307 759.039 87.8156 761.981 C 98.3324 764.311 126.862 751.582 140.66 756.632 C 156.757 762.524 169.038 781.782 178.392 795.642 C 188.102 812.227 205.825 837.59 204.491 857.149 C 203.897 865.849 188.783 872.812 181.835 875.86 C 204.061 878.755 236.028 880.453 258.74 881.921 C 253.866 841.683 254.071 807.514 266.308 768.382 C 285.182 708.03 333.036 668.386 395.944 660.817 C 436.623 655.801 477.627 667.178 509.907 692.438 C 553.126 726.639 567.7 774.447 573.787 827.482 C 574.338 832.444 574.801 837.416 575.177 842.394 L 588.293 842.048 C 582.896 779.989 571.228 725.202 521.31 683.499 C 452.908 626.355 341.867 636.564 285.224 705.339 C 255.529 741.393 243.69 785.195 243.085 831.284 C 242.933 840.023 243.712 858.868 240.55 865.637 L 239.618 865.288 C 236.222 854.038 236.732 844 236.838 832.295 C 237.166 796.33 243.597 761.957 260.689 729.983 C 281.535 690.319 317.531 660.767 360.495 648.045 C 456.586 618.99 553.574 668.056 581.792 765.079 C 589.337 791.023 591.934 814.827 594.265 841.52 C 609.94 841.037 626.028 841.335 641.41 840.779 C 659.796 839.555 677.759 840.106 696.051 839.595 C 694.657 830.082 693.781 822.406 693.059 812.821 C 672.935 812.777 635.11 816.685 617.991 812.906 C 636.311 808.893 671.968 807.37 692.14 806.243 C 689.923 793.833 687.826 765.739 687.175 752.677 C 685.009 709.225 679.2 651.188 692.022 609.735 C 591.716 611.566 489.893 611.594 389.985 620.718 C 346.885 624.654 296.087 631.046 254 641.782 C 258.418 642.628 289.207 649.105 281.988 658.21 C 270.287 672.969 232.747 692.179 215.242 699.297 C 190.164 709.496 130.031 737.752 119.484 697.469 C 116.527 686.176 118.027 681.107 108.014 675.859 C 108.639 673.811 110.192 673.044 112.423 671.966 C 149.563 654.026 187.088 646.979 227.474 641.052 C 237.347 639.604 255.767 634.338 266.657 632.006 C 288.952 627.375 311.393 623.47 333.942 620.299 C 445.039 604.628 559.631 605.544 671.653 603.497 C 679.164 603.36 686.756 602.931 694.256 603.028 C 701.707 585.455 707.285 575.916 724.413 565.414 C 717.983 560.803 711.491 556.278 704.939 551.842 C 693.062 555.435 673.638 562.061 662.105 564.331 C 642 568.289 616.219 569.838 595.463 571.567 C 563.447 574.134 531.45 576.931 499.475 579.956 C 386.155 590.868 267.873 604.685 158.736 638.225 C 152.094 640.266 117.647 655.269 113.48 654.127 C 115.302 649.719 130.267 642.783 135.134 640.861 C 193.663 617.745 258.412 605.526 320.237 595.764 C 391.126 584.733 462.378 576.177 533.863 570.112 L 601.735 564.31 C 627.288 562.208 653.107 560.98 677.732 553.477 C 658.828 552.4 626.649 550.639 608.039 552.58 C 571.12 554.111 530.764 557.46 493.734 560.687 C 389.331 569.783 281.079 584.037 180.569 614.912 C 162.413 620.489 133.783 630.844 117.938 639.735 C 107.577 645.634 98.1008 652.969 89.7923 661.521 z M 1210.11 549.588 C 1222.92 568.774 1228.48 578.853 1235.21 601.147 C 1339.31 600.174 1443.39 603.844 1547.16 612.146 C 1575.03 614.49 1618.91 616.449 1643.7 626.676 C 1628.61 626.64 1607.99 623.872 1592.5 622.357 C 1563.84 619.53 1535.14 617.128 1506.42 615.151 C 1416.31 609.838 1326.06 607.397 1235.8 607.833 C 1239.71 633.601 1233.36 663.548 1227.68 688.755 C 1221.77 712.317 1212.16 748.623 1202.07 770.466 C 1243.46 767.032 1284.87 763.824 1326.31 760.843 C 1345.47 759.395 1379.12 755.779 1397.05 755.794 C 1408.7 726.062 1422.21 704.079 1446.2 682.725 C 1510.51 625.47 1607.92 626.977 1673.16 681.29 C 1717.78 666.885 1764.97 669.271 1794.2 630.097 C 1786.73 626.535 1762.52 615.913 1767.05 604.73 C 1768.74 600.554 1778.11 596.911 1782.36 596.24 C 1816.87 591.564 1860.51 590.743 1895.33 591.188 C 1880.65 581.553 1871.72 575.837 1853.77 573.581 C 1837.95 571.592 1822.1 569.932 1806.26 568.176 C 1776.92 564.808 1747.61 561.131 1718.34 557.144 C 1697.75 554.316 1676.5 551.115 1656.53 545.275 C 1643.46 541.455 1631.9 542.817 1618.54 543.58 C 1589 545.013 1556.22 544.801 1526.51 544.884 L 1400.28 545.155 C 1336.87 545.662 1273.47 547.14 1210.11 549.588 z M 431.505 944.788 C 505.63 935.244 557.959 867.383 548.346 793.267 C 538.732 719.151 470.821 666.886 396.714 676.57 C 322.707 686.241 270.527 754.041 280.128 828.058 C 289.729 902.074 357.479 954.318 431.505 944.788 z M 1569.49 945.815 C 1643.47 939.606 1698.43 874.66 1692.33 800.678 C 1686.23 726.696 1621.36 671.634 1547.37 677.63 C 1473.23 683.639 1418.03 748.667 1424.15 822.8 C 1430.26 896.932 1495.37 952.037 1569.49 945.815 z M 581.75 847.929 C 578.4 848.061 577.694 847.437 575.919 849.158 C 575.622 860.295 576.093 871.002 575.876 881.961 L 1399.11 881.884 C 1397.43 834.337 1401.02 805.53 1417.32 759.647 L 1402.67 760.467 C 1396.31 768.841 1393.6 802.215 1387.55 806.591 C 1381.51 802.266 1392.49 768.588 1394.76 761.716 L 1266.01 771.832 C 1247.79 773.189 1216 774.446 1199.55 776.929 C 1191.5 797.095 1178.33 818.202 1156.96 824.715 C 1108.52 839.478 1043.22 838.288 992.952 839.581 L 842.974 843.055 L 651.335 846.817 C 628.188 847.172 604.837 848.077 581.75 847.929 z M 1876.72 572.418 C 1885.28 576.564 1892.78 580.57 1900.51 586.212 C 1901.6 587.076 1905.48 590.109 1906.59 590.303 C 1918.25 592.35 1933.66 590.736 1945.37 590.86 C 1940.28 581.907 1936.47 573.977 1933.42 564.145 C 1932.3 560.502 1930.09 552.844 1925.89 552.031 C 1910.03 557.804 1892.42 565.714 1876.72 572.418 z M 1698.17 524.437 C 1679.11 521.729 1647.14 525.267 1626.62 525.952 C 1579.02 527.539 1530.89 530.934 1483.29 532.221 C 1473.38 532.636 1463.46 532.985 1453.54 533.266 C 1439.8 532.821 1402.25 533.788 1388.52 535.33 C 1392.55 536.588 1434.84 536.31 1439.7 535.359 C 1485.53 534.259 1531.53 535.56 1577.38 534.742 C 1582.05 534.659 1586.4 534.574 1591.08 534.138 C 1620.52 534.448 1671.12 533.638 1698.17 524.437 z M 786.42 536.406 C 800.485 538.179 818.418 535.508 832.845 534.719 C 844.381 533.796 856.388 533.105 867.836 532.077 C 861.14 515.397 841.518 509.096 824.821 510.899 C 815.946 516.245 793.543 529.852 786.42 536.406 z M 1191.89 539.814 C 1202.43 538.698 1213.51 538.286 1224.13 537.738 C 1221.57 530.163 1218.47 511.781 1216.66 508.174 L 1214.96 507.5 L 1198.71 508.004 C 1190.75 518.307 1185.81 528.454 1179.91 540.036 L 1191.89 539.814 z M 92.5824 856.458 C 96.4763 857.181 95.766 857.705 98.4599 856.214 C 99.0126 852.356 95.3666 846.493 92.5823 843.958 L 81.3488 849.185 C 84.8081 851.546 88.9535 854.547 92.5824 856.458 z M 1176.61 611.79 C 1178.72 610.222 1180.77 609.34 1181.36 607.235 C 1166.48 604.708 1118.37 605.136 1101.95 605.331 L 1099.65 607.009 C 1100.32 614.86 1122.76 613.552 1128.94 613.415 C 1141.23 613.142 1155.67 615.289 1167.53 613.947 C 1170.64 613.62 1173.69 612.895 1176.61 611.79 z M 1926.7 843.758 C 1931.81 830.922 1943.69 807.842 1955.43 799.941 C 1961.54 795.826 1976.62 797.094 1975.91 786.668 C 1969.69 784.16 1947.69 795.017 1941.64 800.937 C 1933.31 809.08 1919.42 824.764 1910.8 830.935 C 1883.18 850.707 1825.03 856.606 1790.65 862.483 L 1776.43 864.735 C 1769.44 865.773 1757.22 867.138 1751.23 869.747 C 1755.04 870.221 1773.31 867.242 1778.28 866.523 C 1782.63 865.686 1787.72 865.091 1792.16 864.465 C 1834.62 859.076 1885.48 853.448 1926.7 843.758 z M 1185.14 601.367 C 1168.41 592.74 1148.29 593.292 1130.02 596.244 C 1123.97 596.848 1117.95 597.651 1111.95 598.65 C 1118.75 598.899 1125.55 599.033 1132.36 599.05 C 1149.96 599.591 1167.56 600.363 1185.14 601.367 z M 804.974 580.883 C 814.04 581.31 821.541 581.281 830.622 581.086 C 826.763 573.859 820.209 567.797 821.605 562.486 C 824.01 560.856 824.212 560.651 826.956 559.839 C 834.056 560.009 860.797 562.634 864.823 558.07 C 861.531 556.145 822.935 558.292 816.865 558.877 C 808.429 558.601 801.927 559.686 793.749 560.154 C 796.976 567.831 799.733 574.189 804.974 580.883 z M 698.728 812.02 C 699.974 820.917 701.028 829.841 701.891 838.783 C 711.419 839.83 742.198 838.487 752.84 838.25 L 855.5 835.955 L 1021.22 831.965 C 1055.25 830.905 1089.66 830.577 1123.41 825.89 C 1140.71 823.488 1157.34 819.545 1171.26 808.326 C 1178.21 802.722 1191.79 786.635 1191.73 777.585 C 1078.69 786.792 965.573 795.05 852.394 802.356 L 751.579 808.791 C 735.18 809.829 714.813 811.665 698.728 812.02 z M 1884.74 641.679 C 1904.73 644.314 1920.8 648.97 1936.34 633.702 C 1926.71 618.431 1919.93 611.963 1906.14 601.047 C 1882.62 601.103 1857.2 600.684 1833.83 601.447 C 1822.64 601.945 1785.98 602.051 1778.13 607.381 C 1781.29 626.575 1866.35 638.686 1884.74 641.679 z M 1917.88 601.077 C 1927.69 610.469 1932.99 615.227 1940.68 626.594 L 1945.11 620.326 L 1952.38 611.177 L 1947.56 601.017 L 1917.88 601.077 z M 1946.68 635.267 C 1952.1 650.013 1957.35 658.551 1967.26 670.833 L 1970.13 673.264 C 1973.6 669.119 1961.53 626.242 1956.87 621.714 C 1953.68 625.986 1950 631.21 1946.68 635.267 z M 1421.59 525.153 L 1437.03 524.985 C 1449.47 524.138 1466.3 524.295 1477.62 522.863 C 1474.81 518.521 1469.84 509.626 1464.28 509.288 C 1444.98 513.049 1436.83 512.686 1421.59 525.153 z M 85.2959 683.757 C 78.387 701.764 81.0431 721.117 85.6593 739.358 C 89.7944 736.312 88.1069 686.549 85.2959 683.757 z M 1677.01 684.995 C 1717.72 723.746 1734.52 775.442 1735.9 830.689 C 1736.04 836.168 1736.73 847.53 1732.94 851.442 L 1731.04 851.035 C 1729.29 836.932 1729.51 822.111 1727.84 807.646 C 1722.16 758.24 1705.82 721.997 1670.25 687.722 L 1653.56 691.884 C 1709.69 736.215 1719.57 797.724 1718.89 865.674 C 1772.8 853.805 1830.46 850.099 1883.82 835.574 C 1893.17 833.026 1904.2 825.985 1911.61 819.706 C 1935.66 795.272 1941.27 784.297 1975.81 776.389 C 1975.95 762.164 1977.18 753.912 1979.5 739.868 C 1972.46 740.978 1958.34 744.055 1952.02 741.691 L 1951.54 740.169 C 1957.23 733.648 1970.78 735.021 1980.54 732.911 L 1981.9 717.355 C 1924.25 730.262 1876.08 710.375 1837.69 774.228 C 1832.98 782.058 1825.79 792.682 1823.99 801.675 C 1826.59 810.904 1855.49 801.458 1862.85 807.432 C 1858.02 813.263 1848.79 811.368 1842.05 812.231 C 1789.93 818.895 1836.73 761.898 1850.74 746.208 C 1875.6 718.362 1914.36 719.198 1948.58 715.676 C 1959.67 714.488 1971.19 712.949 1982.61 711.474 L 1982.64 697.262 C 1960.97 677.253 1953.68 669.705 1940.98 642.425 C 1931.77 651.321 1921.6 654.112 1908.91 653.167 C 1879.59 650.987 1826.53 641.875 1799.25 632.638 C 1776.25 662.282 1754.47 667.974 1719.32 675.813 C 1705.31 678.937 1691.08 682.02 1677.01 684.995 z M 754.241 559.727 C 763.847 558.941 772.646 558.94 782.023 558.359 C 781.455 555.46 779.464 540.95 778.959 540.136 C 774.279 543.18 753.317 556.015 752.065 559.592 L 754.241 559.727 z M 1971.56 810.746 C 1969.39 815.278 1960.11 832.806 1960.41 836.193 C 1963.17 831.453 1972.89 815.332 1971.56 810.746 z M 1647.25 515.951 L 1650.62 515.513 C 1646.95 514.503 1649.14 516.752 1647.04 514.851 C 1605.88 510.481 1563.89 508.908 1522.58 505.747 C 1507.91 504.625 1491.19 505.122 1476.36 505.4 C 1479.5 510.316 1484.42 517.526 1486.78 522.619 C 1540.25 519.98 1593.74 517.757 1647.25 515.951 z M 867.871 541.475 C 842.495 544.142 817.048 546.091 791.562 547.318 C 790.835 550.569 791.215 549.917 792.287 553.577 C 807.386 551.435 822.532 549.633 837.713 548.172 C 843.801 547.623 863.961 546.726 868.52 545.317 L 869.555 543.891 C 868.799 541.836 869.488 542.514 867.871 541.475 z M 1965.69 806.031 C 1958.71 810.556 1938.61 832.958 1938.18 840.268 L 1939.23 841.051 L 1949.66 839.278 L 1966.45 806.785 L 1965.69 806.031 z M 916.915 402.47 C 923.697 405.982 937.479 410.993 940.992 416.372 L 940.809 418.172 C 933.175 423.781 917.146 429.222 908.024 433.694 C 839.657 467.209 776.301 508.763 711.294 548.488 C 716.832 552.603 723.009 557.013 728.393 561.235 L 738.501 554.6 C 787.762 521.263 848.44 481.075 901.495 454.337 C 914.626 447.613 928.083 441.545 941.815 436.154 C 955.708 430.797 974.981 424.951 987.141 417.275 C 980.008 405.677 971.916 401.416 958.465 398.287 C 950.423 396.445 942.164 395.72 933.923 396.133 C 926.932 397.855 923.392 399.565 916.915 402.47 z M 1431.91 455.104 C 1426.12 457.607 1424.05 459.959 1421.76 466.122 C 1415.35 483.342 1414.86 502.57 1409.94 520.362 C 1416.72 517.134 1420.44 514.086 1426.37 509.63 C 1434.77 505.44 1447.67 504.002 1456.99 501.22 L 1456.51 500.11 C 1452.63 491.033 1451.79 481.027 1449.59 471.504 C 1446.83 459.58 1444.64 454.883 1431.91 455.104 z M 1182.95 455.25 C 1161.31 468.785 1164.22 506.567 1175.18 526.32 L 1184.73 510.129 C 1194.27 495.98 1198.88 497.031 1214.64 497.069 C 1211.84 485.187 1208.68 463.509 1198.59 457.153 C 1193.22 453.773 1188.85 454.569 1182.95 455.25 z M 121.985 676.626 C 131.487 713.125 139.965 716.115 176.472 704.42 C 206.262 694.878 239.635 679.63 265.917 662.135 L 269.129 659.946 L 269.321 658.175 C 258.226 651.315 172.314 674.476 159.009 685.181 C 156.208 687.435 149.576 691.312 146.326 692.058 C 137.126 677.276 224.974 654.638 233.766 654.982 C 235.594 655.054 258.801 651.107 260.174 650.519 C 255.865 648.462 236.236 648.898 230.983 649.412 C 200.7 653.029 148.887 661.442 121.985 676.626 z M 906.906 407.949 C 828.531 448.819 752.398 493.85 678.832 542.851 C 683.392 542.906 688.753 543.113 693.239 543.005 C 707.809 540.378 719.305 531.154 732.178 523.982 C 754.582 511.498 775.573 496.273 797.535 483.021 C 837.313 457.801 878.061 436.887 920.186 415.899 C 914.387 413.064 912.155 411.712 906.906 407.949 z M 1419.66 754.35 C 1434.23 722.262 1453.17 700.291 1483.26 681.932 C 1523.05 660.478 1562.91 654.865 1606.71 668.088 C 1621.91 672.746 1636.28 679.751 1649.31 688.848 C 1654.71 687.191 1660.63 685.513 1665.93 683.699 C 1629.01 656.129 1592.4 644.118 1544.91 647.413 C 1544.72 647.442 1544.54 647.471 1544.35 647.5 C 1477.32 654.597 1429.88 693.105 1404.23 754.77 L 1419.66 754.35 z M 1711.39 527.893 C 1700.3 537.017 1677.62 539.684 1663.23 541.627 C 1709.79 551.037 1757.25 556.257 1804.38 562.235 C 1825.23 564.879 1846.95 566.432 1867.66 569.601 C 1882.22 562.956 1896.97 556.767 1911.91 551.042 C 1867.38 547.228 1822.94 542.354 1778.64 536.424 C 1767.76 535.009 1718.46 527.548 1711.39 527.893 z M 122.626 764.38 C 110.529 766.081 98.4841 768.139 86.5079 770.551 C 83.4697 774.89 93.3294 788.361 94.9592 794.487 C 100.338 814.707 97.6323 846.133 114.527 860.695 C 123.319 866.886 147.672 868.276 158.916 869.118 C 167.029 868.999 198.192 864.915 194.793 851.803 C 187.585 823.997 167.823 791.241 147.28 770.944 C 139.29 763.528 131.391 763.43 122.626 764.38 z M 1198.35 550.474 C 1130.03 552.673 1061.72 555.284 993.43 558.307 C 956.63 559.946 919.582 561.91 882.755 563.321 C 876.829 563.548 870.223 568.797 864.199 569.865 C 854.989 571.499 845.576 570.488 836.3 571.181 C 838.934 576.594 840.931 579.895 839.461 586.008 C 835.094 592.985 821.924 590.921 814.479 591.098 C 797.101 591.512 791.285 582.533 785.067 567.969 C 748.89 569.375 716.393 562.864 701.613 602.855 L 719.75 602.622 C 844.666 601.09 969.592 600.586 1094.52 601.11 C 1118.74 586.761 1168.75 579.414 1191.17 600.477 L 1228.16 601.12 C 1224.31 588.345 1212.5 559.838 1203.48 550.829 C 1200.93 550.273 1200.96 550.292 1198.35 550.474 z"/>
<path transform="translate(0,0)" fill="currentColor" d="M 400.672 698.259 C 463.005 690.813 519.566 735.326 526.98 797.663 C 534.394 860.001 489.852 916.538 427.511 923.92 C 365.215 931.297 308.728 886.794 301.319 824.502 C 293.911 762.21 338.384 705.7 400.672 698.259 z M 428.535 915.117 C 485.806 907.186 525.868 854.419 518.118 797.123 C 510.369 739.827 457.728 699.598 400.408 707.166 C 342.83 714.768 302.381 767.696 310.165 825.249 C 317.95 882.803 371.006 923.084 428.535 915.117 z"/>
<path transform="translate(0,0)" fill="currentColor" d="M 398.549 717.203 L 400.899 717.61 C 404.339 723.16 395.789 769.142 393.991 778.089 C 383.048 773.434 370.791 767.046 360.004 761.734 C 352.857 758.25 345.811 754.564 338.874 750.681 C 356.199 731.118 373.462 722.518 398.549 717.203 z M 362.039 755.708 L 374.244 761.996 L 390.527 769.532 C 391.137 764.696 393.74 747.132 392.71 743.444 L 390.8 743.164 C 379.273 746.116 372.147 749.753 362.039 755.708 z"/>
<path transform="translate(0,0)" fill="currentColor" d="M 324.757 775.455 C 328.857 777.499 339.574 785.603 343.788 788.64 L 375.777 811.395 C 367.37 817.086 359.037 822.884 350.778 828.787 C 342.394 835.007 333.62 841.739 325.008 847.541 C 316.196 826.567 314.025 796.121 324.757 775.455 z M 339.481 829.491 C 344.217 826.197 349.67 822.184 354.451 819.118 L 365.787 811.227 C 357.146 804.978 347.884 798.012 338.959 792.331 C 338.665 804.501 338.299 817.347 339.481 829.491 z"/>
<path transform="translate(0,0)" fill="currentColor" d="M 434.984 844.423 C 443.182 845.989 480.513 866.244 489.376 871.335 C 482.09 880.266 476.962 884.242 467.938 890.868 C 454.777 899.357 443.148 903.495 427.821 905.851 C 428.221 887.749 431.013 862.094 434.984 844.423 z M 435.672 881.869 C 443.29 879.378 447.595 877.956 454.756 873.932 C 458.279 871.384 462.05 868.8 465.305 865.94 L 439.104 851.605 L 435.672 881.869 z"/>
<path transform="translate(0,0)" fill="currentColor" d="M 391.233 845.817 L 393.833 846.005 C 397.237 849.402 401.148 898.036 401.413 905.541 C 385.721 902.756 376.916 899.644 362.92 891.898 C 353.69 886.444 345.186 879.569 338.706 871.003 C 350.57 863.978 377.374 852.462 391.233 845.817 z M 362.438 866.379 L 374.401 873.42 C 381.643 876.844 385.802 878.586 393.423 881.21 C 392.912 876.471 391.862 853.664 390.799 852.026 L 390.133 851.848 C 381.166 856.474 371.114 861.405 362.438 866.379 z"/>
<path transform="translate(0,0)" fill="currentColor" d="M 502.515 775.747 C 512.856 782.597 513.307 841.803 503.053 847.083 C 499.146 845.61 484.78 833.587 480.494 830.245 C 471.796 823.749 462.454 817.983 454.113 811.036 C 468.186 799.934 487.272 787.294 502.515 775.747 z M 463.655 810.845 L 475.957 819.5 C 480.249 822.703 484.913 826.352 489.262 829.386 C 489.643 820.061 490.685 802.722 488.427 793.809 C 480.45 799.885 472.183 805.57 463.655 810.845 z"/>
<path transform="translate(0,0)" fill="currentColor" d="M 428.256 716.725 C 453.389 719.957 472.763 732.98 489.31 751.412 C 484.312 754.541 475.891 758.479 470.416 761.237 C 462.742 764.953 442.785 776.899 435.77 776.891 C 431.871 770.323 427.876 726.151 428.256 716.725 z M 439.188 770.084 L 455.375 762.388 L 465.275 757.245 C 455.389 750.932 447.833 746.447 436.206 743.337 C 437.038 752.034 437.748 761.556 439.188 770.084 z"/>
<path transform="translate(0,0)" fill="currentColor" d="M 411.633 792.424 C 419.616 791.138 427.524 795.119 431.244 802.299 C 434.965 809.479 433.657 818.235 428.002 824.015 C 425.188 826.892 421.521 828.786 417.547 829.416 C 407.339 831.034 397.75 824.079 396.118 813.873 C 394.487 803.668 401.429 794.069 411.633 792.424 z M 419.086 823.383 C 425.741 820.987 429.28 813.729 427.07 807.01 C 424.859 800.291 417.701 796.552 410.923 798.576 C 406.369 799.937 402.913 803.663 401.899 808.307 C 400.886 812.95 402.474 817.778 406.047 820.912 C 409.62 824.047 414.614 824.993 419.086 823.383 z"/>
<path transform="translate(0,0)" fill="currentColor" d="M 334.647 758.033 C 344.342 761.037 375.435 778.764 385.149 785.132 C 387.858 786.908 388.303 789.328 388.524 792.411 C 387.539 795.963 385.941 797.13 383.364 799.672 C 375.749 800.762 332.111 772.024 330.346 764.683 C 331.253 761.172 332.042 760.638 334.647 758.033 z"/>
<path transform="translate(0,0)" fill="currentColor" d="M 447 821.863 C 454.491 822.262 497.364 850.44 498.573 857.199 C 497.542 860.941 496.029 861.954 493.288 864.724 C 476.711 856.65 459.181 845.598 443.341 836.119 C 436.455 831.997 443.526 824.888 447 821.863 z"/>
<path transform="translate(0,0)" fill="currentColor" d="M 379.559 821.8 C 383.247 822.231 385.718 823.668 388.049 826.427 C 390.454 836.858 375.876 843.025 368.144 847.368 C 358.428 852.826 348.293 857.979 338.429 863.209 C 333.416 865.499 329.448 859.702 330.648 857.805 C 337.772 846.547 369.62 827.873 379.559 821.8 z"/>
<path transform="translate(0,0)" fill="currentColor" d="M 491.288 758.764 C 493.658 758.673 495.847 759.8 497.926 760.855 C 498.889 762.649 498.463 763.611 498.099 765.644 C 493.248 773.653 457.715 796.697 448.479 800.636 C 444.984 798.709 443.782 798.28 441.56 794.808 C 439.5 782.24 479.883 764.928 491.288 758.764 z"/>
<path transform="translate(0,0)" fill="currentColor" d="M 411.282 715.753 C 415.78 715.781 417.984 715.157 420.889 719.043 C 422.968 732.436 422.994 759.16 422.323 773.263 C 422.156 776.774 420.029 778.311 417.296 780.275 C 414.491 780.21 407.411 779.551 407.235 776.306 C 406.561 763.924 407.504 725.956 411.282 715.753 z"/>
<path transform="translate(0,0)" fill="currentColor" d="M 410.713 841.831 C 414.205 841.7 422.136 842.257 422.149 846.9 C 422.176 856.735 422.46 900.032 418.104 906.428 C 414.487 906.748 413.78 907.101 410.769 905.448 C 406.684 900.001 407.158 861.929 406.541 852.981 C 406.099 846.58 406.948 845.546 410.713 841.831 z"/>
<path transform="translate(0,0)" fill="currentColor" d="M 1548.53 699.464 C 1611.07 693.944 1666.18 740.318 1671.44 802.884 C 1676.69 865.45 1630.09 920.368 1567.5 925.359 C 1505.29 930.321 1450.77 884.053 1445.54 821.859 C 1440.32 759.665 1486.35 704.95 1548.53 699.464 z M 1569.52 916.455 C 1627.05 910.36 1668.73 858.748 1662.57 801.223 C 1656.41 743.698 1604.74 702.08 1547.23 708.306 C 1489.8 714.522 1448.27 766.081 1454.42 823.513 C 1460.57 880.945 1512.08 922.54 1569.52 916.455 z"/>
<path transform="translate(0,0)" fill="currentColor" d="M 1537.46 844.981 L 1538.94 846.2 C 1541.78 852.588 1545.93 897.903 1546.34 906.794 C 1530.19 904.768 1520.41 900.507 1506.59 892.897 C 1496.41 886.416 1490.9 881.162 1483.05 872.237 C 1495.1 864.611 1523.73 851.215 1537.46 844.981 z M 1507.38 867.187 L 1518.88 874.745 C 1525.96 878.253 1529.9 880.022 1537.41 882.742 C 1537.21 877.702 1536.94 856.333 1534.64 853.022 C 1525.23 857.557 1516.29 861.7 1507.38 867.187 z"/>
<path transform="translate(0,0)" fill="currentColor" d="M 1470.22 775.447 C 1475.53 777.885 1515.79 807.69 1520.38 812.045 C 1511.6 818.096 1502.87 824.221 1494.19 830.421 C 1486.06 836.19 1477.8 842.762 1469.58 848.714 C 1468.72 846.71 1467.92 844.682 1467.17 842.633 C 1459.93 822.448 1460.99 794.964 1470.22 775.447 z M 1483.9 830.624 C 1489.31 826.638 1494.71 822.53 1500.41 818.977 L 1510.87 812.066 C 1502.27 805.496 1493.45 798.548 1484.51 792.507 C 1481.97 803.661 1482.25 819.221 1483.9 830.624 z"/>
<path transform="translate(0,0)" fill="currentColor" d="M 1580.42 845.417 C 1588.55 846.735 1624.78 866.747 1633.67 871.649 C 1625.28 881.254 1620.87 885.006 1610.85 892.157 C 1597.5 900.718 1587.74 904.222 1572.43 907.219 C 1572.68 894.908 1576.87 856.359 1580.42 845.417 z M 1580.72 882.933 C 1588.4 879.986 1592.42 878.482 1599.62 874.337 C 1603.36 871.774 1607.06 869.38 1610.44 866.36 C 1601.63 861.793 1592.69 857.012 1583.65 852.972 C 1582.61 862.694 1581.28 873.241 1580.72 882.933 z"/>
<path transform="translate(0,0)" fill="currentColor" d="M 1571.94 718.049 C 1572.45 718.094 1572.96 718.148 1573.47 718.211 C 1596.05 721.049 1619.14 734.3 1632.98 752.463 L 1616.52 760.872 C 1605.67 766.545 1592.32 773.986 1581.08 778.029 C 1576.85 766.522 1571.95 730.427 1571.94 718.049 z M 1584.43 770.271 L 1600.35 762.387 L 1609.72 757.5 C 1598.94 750.767 1593.43 747.837 1581.09 743.407 C 1581.7 752.425 1582.54 761.411 1584.43 770.271 z"/>
<path transform="translate(0,0)" fill="currentColor" d="M 1645.94 776.742 C 1651.1 779.535 1653.19 793.869 1653.77 799.347 C 1655.55 816.391 1653.76 832.69 1647.52 848.671 C 1640.96 843.105 1633.94 837.555 1627.25 832.117 C 1618.57 825.832 1607.14 818.015 1599.36 811.022 C 1611.48 800.869 1632.6 786.467 1645.94 776.742 z M 1606.3 811.327 L 1620.12 820.108 L 1632.01 827.97 C 1632.8 822.106 1634.69 799.438 1631.91 795.038 L 1631.36 794.89 C 1623.13 800.549 1614.77 806.03 1606.3 811.327 z"/>
<path transform="translate(0,0)" fill="currentColor" d="M 1542.62 718.124 L 1544.34 718.517 L 1545.41 720.418 C 1545.12 728.219 1541.45 773.705 1538.08 776.844 C 1531.11 776.854 1513.7 766.357 1506.65 762.524 C 1499.47 758.943 1492.33 755.289 1485.22 751.561 C 1499.44 732.691 1520.09 723.086 1542.62 718.124 z M 1507.46 757.162 L 1520.72 763.474 L 1535.95 770.381 C 1536.06 765.468 1537.29 747.391 1536.43 744.355 C 1535.28 744.088 1535.06 743.889 1533.96 744.012 C 1522.92 747.869 1517.38 750.437 1507.46 757.162 z"/>
<path transform="translate(0,0)" fill="currentColor" d="M 1554.71 793.451 C 1564.71 790.743 1575 796.673 1577.68 806.681 C 1580.35 816.688 1574.39 826.964 1564.37 829.603 C 1554.4 832.23 1544.19 826.299 1541.53 816.34 C 1538.86 806.381 1544.76 796.146 1554.71 793.451 z M 1563.51 824.039 C 1568.01 822.609 1571.37 818.852 1572.3 814.226 C 1573.23 809.601 1571.57 804.836 1567.98 801.783 C 1564.38 798.731 1559.41 797.871 1555 799.538 C 1548.42 802.023 1545.02 809.294 1547.33 815.935 C 1549.63 822.576 1556.81 826.169 1563.51 824.039 z"/>
<path transform="translate(0,0)" fill="currentColor" d="M 1593.16 821.688 C 1599.8 823.667 1636.24 848.03 1641.53 855.553 C 1643.18 857.896 1642.64 859.041 1642.16 861.27 C 1639.48 864.026 1640.83 863.268 1637.07 864.131 C 1622.92 857.263 1599.17 846.46 1587.85 835.417 C 1582.32 830.024 1588.07 824.916 1593.16 821.688 z"/>
<path transform="translate(0,0)" fill="currentColor" d="M 1523.77 822.75 C 1529.87 822.884 1532.71 825.701 1533.09 831.603 C 1529.17 841.614 1494.92 857.25 1483.35 863.396 C 1479.04 865.103 1478.63 864.449 1475.64 861.404 C 1472.94 850.283 1513.45 829.165 1523.77 822.75 z"/>
<path transform="translate(0,0)" fill="currentColor" d="M 1558.96 841.997 C 1562.67 842.885 1563.45 842.957 1566.42 845.289 C 1570.42 851.487 1565.76 891.597 1565.08 901.327 C 1564.77 905.784 1562.9 906.555 1559.89 908.75 C 1558.58 908.171 1555.15 906.717 1554.89 905.658 C 1552.48 895.965 1550.82 854.554 1552.08 846.907 C 1553.98 843.903 1555.7 843.514 1558.96 841.997 z"/>
<path transform="translate(0,0)" fill="currentColor" d="M 1636.89 758.831 C 1638.69 759.362 1639.43 760.148 1641.01 761.273 C 1641.83 762.972 1643.14 765.242 1641.99 767.107 C 1636.43 776.079 1602.07 797.605 1593.75 801.632 C 1581.19 794.606 1585.11 788.095 1595.22 782.188 C 1609.01 774.132 1622.81 766.362 1636.89 758.831 z"/>
<path transform="translate(0,0)" fill="currentColor" d="M 1478.25 758.327 C 1482.27 758.961 1491.95 763.351 1495.27 765.667 C 1504.64 772.224 1530.13 781.241 1533.35 791.977 C 1532.93 795.698 1531.64 796.84 1529.33 799.692 C 1528.2 799.97 1525.55 800.451 1524.65 800.04 C 1514.77 795.58 1479.92 773.382 1475.32 766.115 C 1474.93 762.819 1476.44 761.249 1478.25 758.327 z"/>
<path transform="translate(0,0)" fill="currentColor" d="M 1555.06 716.65 C 1560.07 716.989 1560.79 716.838 1563.7 719.907 C 1566.24 733 1566.75 760.692 1567.52 775.137 C 1567.6 776.737 1564.08 779.512 1562.63 780.701 C 1558.41 781.127 1551.2 779.179 1551.17 774.486 C 1551.11 764.539 1550.58 722.989 1555.06 716.65 z"/>
<path transform="translate(0,0)" fill="currentColor" d="M 1166.74 850.471 C 1229.37 849.373 1291.22 851.363 1353.62 856.675 C 1358.93 857.127 1367.05 856.827 1369.69 861.913 C 1365.04 866.614 1335.72 862.957 1328.23 862.456 C 1309.77 861.305 1291.31 860.278 1272.84 859.375 C 1186.14 855.047 1103.01 859.703 1016.33 862.198 L 872.924 866.497 C 851.432 867.207 827.428 867.319 806.243 868.802 C 742.568 869.738 678.122 873.952 614.359 874.78 C 610.011 874.837 604.849 874.125 600.71 872.711 L 600.376 871.624 C 608.598 868.703 642.858 867.83 652.964 867.382 C 686.364 865.935 719.773 864.673 753.187 863.594 L 1166.74 850.471 z"/>
<path transform="translate(0,0)" fill="currentColor" d="M 92.6304 772.767 C 138.138 772.257 142.274 792.682 162.077 827.445 C 185.745 868.994 163.313 866.709 128.209 859.924 L 126.85 859.088 L 127.482 857.803 C 135.658 854.675 152.379 854.318 161.758 853.808 C 152.649 841.917 145.016 827.142 137.871 813.865 C 131.878 813.978 125.876 814.895 121.186 811.274 L 121.598 809.512 C 125.061 807.01 128.566 806.867 132.866 806.136 C 128.326 798.56 125.443 792.805 121.613 784.823 C 112.865 781.979 104.356 781.943 96.0642 778.771 C 93.1912 777.672 93.2085 775.309 92.6304 772.767 z"/>
<path transform="translate(0,0)" fill="currentColor" fill-opacity="0.101961" d="M 1453.54 533.266 C 1463.46 532.985 1473.38 532.636 1483.29 532.221 L 1484.01 533.694 C 1508.28 534.649 1534.94 533.018 1559.39 533.587 C 1567.85 533.784 1583.37 533.053 1591.08 534.138 C 1586.4 534.574 1582.05 534.659 1577.38 534.742 C 1531.53 535.56 1485.53 534.259 1439.7 535.359 L 1437.95 534.908 C 1439.12 533.814 1449.01 533.918 1452.66 533.399 L 1453.54 533.266 z"/>
<path transform="translate(0,0)" fill="currentColor" fill-opacity="0.0509804" d="M 816.865 558.877 C 822.935 558.292 861.531 556.145 864.823 558.07 C 860.797 562.634 834.056 560.009 826.956 559.839 L 816.865 558.877 z"/>
<path transform="translate(0,0)" fill="currentColor" fill-opacity="0.329412" d="M 1439.7 535.359 C 1434.84 536.31 1392.55 536.588 1388.52 535.33 C 1402.25 533.788 1439.8 532.821 1453.54 533.266 L 1452.66 533.399 C 1449.01 533.918 1439.12 533.814 1437.95 534.908 L 1439.7 535.359 z"/>
<path transform="translate(0,0)" fill="currentColor" fill-opacity="0.207843" d="M 1778.28 866.523 C 1773.31 867.242 1755.04 870.221 1751.23 869.747 C 1757.22 867.138 1769.44 865.773 1776.43 864.735 L 1778.28 866.523 z"/>
<path transform="translate(0,0)" fill="currentColor" fill-opacity="0.121569" d="M 1971.56 810.746 C 1972.89 815.332 1963.17 831.453 1960.41 836.193 C 1960.11 832.806 1969.39 815.278 1971.56 810.746 z"/>
<path transform="translate(0,0)" fill="currentColor" fill-opacity="0.0901961" d="M 1111.95 598.65 C 1117.95 597.651 1123.97 596.848 1130.02 596.244 C 1131.19 598.786 1130.28 598.027 1132.36 599.05 C 1125.55 599.033 1118.75 598.899 1111.95 598.65 z"/>
<path transform="translate(0,0)" fill="currentColor" fill-opacity="0.0823529" d="M 1790.65 862.483 L 1792.16 864.465 C 1787.72 865.091 1782.63 865.686 1778.28 866.523 L 1776.43 864.735 L 1790.65 862.483 z"/>
</svg>
