<svg xmlns="http://www.w3.org/2000/svg" version="1.1" style="display: block;" viewBox="0 0 2048 1365">
<defs>
	<linearGradient id="Gradient1" gradientUnits="userSpaceOnUse" x1="1886.55" y1="849.817" x2="1812.81" y2="809.56">
		<stop class="stop0" offset="0" stop-opacity="0" stop-color="#000000"/>
		<stop class="stop1" offset="1" stop-opacity="0.0313725" stop-color="#000000"/>
	</linearGradient>
</defs>
<path transform="translate(0,0)" fill="currentColor" d="M 1093.14 402.52 C 1098.84 402.081 1104.83 401.872 1110.7 401.888 C 1290.49 402.38 1467.18 452.314 1636.34 509.133 C 1650.29 513.818 1678.12 520.868 1687.4 530.103 C 1707.03 531.928 1750.31 549.526 1770.95 556.37 C 1771.48 552.302 1772.85 542.666 1776.43 541.162 C 1785.98 538.209 1800.11 536.654 1810.17 536.19 C 1845.4 534.562 1879.37 523.639 1914.44 522.28 C 1916.93 522.184 1919.01 525.082 1920.12 526.869 C 1920.11 539.318 1897.39 545.424 1897.96 553.991 C 1911.84 564.897 1898.89 571.14 1890.78 581.368 C 1887.46 585.562 1882.25 590.229 1878.41 594.191 C 1884.2 596.749 1892.4 600.333 1897.75 603.132 C 1921.63 615.639 1901.98 621.697 1910.88 637.096 C 1919.78 652.51 1936.34 657.444 1944.51 675.623 C 1956.28 701.769 1938.61 711.294 1936.3 734.958 C 1935.64 741.761 1941.11 758.317 1943.35 765.783 C 1940.16 771.003 1934.86 775.769 1935.1 780.943 C 1937.66 784.121 1941.82 785.03 1945.85 786.494 C 1941.66 802.424 1936.13 849.068 1924.08 857.276 C 1887.92 881.904 1822.81 883.754 1779.91 888.472 C 1758.48 890.013 1736.32 893.499 1714.84 893.391 C 1702.75 893.33 1688.32 890.839 1675.91 889.819 C 1661.01 914.055 1634.91 938.801 1608.12 949.093 L 1783.65 948.962 C 1801.32 948.962 1826.36 948.554 1844.33 949.559 C 1845.89 949.646 1846.2 951.22 1846.69 952.406 C 1846 954.491 1846.19 954.933 1844.71 956.371 C 1843.42 957.745 1841.2 958.912 1839.25 958.872 C 1823.45 958.548 1807.61 958.583 1791.81 958.577 L 1683.49 958.579 C 1649.17 958.587 1614.64 958.467 1580.32 958.676 C 1568.13 958.751 1554.93 961.319 1541.25 961.355 L 1033.5 958.609 L 468.538 958.634 L 293.889 958.488 C 266.651 958.474 239.299 958.589 212.057 958.62 C 208.58 958.624 202.544 958.003 199.381 956.531 C 196.926 955.389 197.272 955.363 196.595 953.227 L 198.447 950.847 C 204.439 947.513 272.918 949.048 284.706 949.044 L 448.465 949.067 C 415.322 931.65 398.647 920.416 376.938 888.885 C 369.5 889.056 357.134 890.855 349.374 891.778 C 344.215 903.008 341.393 904.215 329.221 903.87 C 293.41 902.855 259.728 895.625 224.926 889.137 C 198.012 884.12 179.464 891.885 153.43 873.274 C 144.553 866.927 115.759 869.335 109.724 851.697 C 109.964 846.902 120.329 838.588 124.517 834.086 C 123.914 817.365 122.51 800.684 120.309 784.098 C 118.214 768.249 111.145 751.241 114.184 735.206 C 116.498 722.995 136.699 707.991 146.725 701.058 C 157.649 693.504 169.743 688.241 181.616 682.409 C 196.487 675.104 211.133 667.275 226.245 660.472 C 238.328 655.031 250.876 650.564 262.866 644.94 C 287.291 633.484 307.734 614.881 332.316 603.696 C 385.323 579.577 494.26 578.648 553.498 574.492 C 586.281 572.192 632.234 563.929 663.425 569.569 C 681.51 558.742 701.237 548.558 719.873 538.571 C 753.467 520.3 787.398 502.659 821.651 485.656 C 918.614 437.064 979.272 402.184 1093.14 402.52 z M 959.913 432.364 C 996.574 444.652 940.673 471.03 928.497 478.746 C 887.971 503.895 848.236 530.297 809.349 557.914 C 784.213 576.034 762.438 591.482 746.226 618.815 C 729.011 647.842 730.342 678.237 730.636 710.568 C 731.038 754.954 735.433 798.402 739.451 842.455 C 782.883 840.181 827.948 840.701 871.56 839.612 C 921.69 838.132 971.795 835.889 1021.86 832.883 C 1079.44 829.898 1153.94 834.662 1193.57 785.935 C 1225.7 746.423 1263.29 684.484 1265.11 631.88 C 1265.2 613.84 1253.14 593.041 1243.14 579.097 C 1224.47 581.6 1197.19 579.824 1177.64 580.219 C 1097.94 581.828 1018.16 582.801 938.437 582.789 C 919.93 595.502 906.175 595.467 884.924 598.159 C 881.581 604.863 879.942 608.899 874.015 613.623 C 858.513 625.981 836.508 621.584 830.882 601.424 C 829.33 595.86 828.901 590.715 827.87 585.043 C 809.609 584.795 805.708 583.481 789.107 591.411 C 835.92 543.342 950.301 473.028 1013.5 451.559 C 1039.95 442.523 1067.63 437.595 1095.57 436.947 C 1147.18 436.22 1191.67 440.243 1242.45 448.532 C 1259.86 451.375 1277.1 450.684 1294.58 453.849 C 1317.22 457.949 1338.95 463.934 1361.06 470.236 C 1397.19 480.53 1433.34 492.078 1468.04 506.717 C 1484.7 514.45 1503.73 520.407 1518.04 532.082 C 1520.58 534.156 1522.32 538.359 1522.34 541.645 C 1522.39 551.13 1512.17 554.349 1504.12 555.682 C 1463.05 562.483 1421.57 565.53 1380.12 569.053 C 1356.38 571.056 1332.63 572.905 1308.87 574.6 C 1295.41 575.59 1279.17 577.186 1265.84 577.31 L 1254.09 578.513 C 1284.87 620.843 1277.05 657.569 1256.06 702.071 C 1236.88 742.73 1212.69 786.442 1176.11 814.166 C 1135.52 843.655 1071.46 840.071 1022.87 842.688 C 946.181 847.266 869.396 849.999 792.579 850.884 C 765.942 851.339 739.285 852.656 712.51 852.148 C 702.661 851.961 690.929 853.226 681.447 852.042 L 681.357 871.011 C 694.445 869.797 708.487 870.327 721.732 869.952 L 815.958 867.617 L 1074.36 860.816 C 1142.3 859.112 1210.44 856.399 1278.39 855.775 C 1307.16 855.511 1325.46 852.231 1354.1 857.324 C 1353.79 818.844 1354.11 784.241 1368.16 747.704 C 1395.52 676.528 1466.19 626.644 1542.53 626.112 C 1556.66 625.975 1570.76 627.526 1584.53 630.731 C 1593.29 632.692 1605.83 636.743 1614.42 636.717 C 1646.24 636.623 1677.22 629.906 1708.69 627.508 C 1755.49 623.941 1803.68 624.398 1850.66 623.883 C 1862.36 623.755 1889.36 625.39 1898.42 621.279 L 1900.16 619.197 C 1898.9 611.009 1870.83 599.951 1863.01 597.162 C 1851.03 600.079 1834.25 601.88 1822.65 597.966 C 1793.46 588.117 1764.33 576.561 1735.05 566.707 C 1666.28 544.105 1597.27 522.252 1528.02 501.153 C 1485.99 488.767 1444.04 476.238 1401.61 465.272 C 1387.37 461.59 1387.89 461.199 1390.06 447.25 C 1310.63 428.69 1225.75 414.409 1144.1 411.713 C 1128.51 411.198 1108.46 410.194 1093.2 411.579 C 1045.95 413.042 1005.16 418.208 959.913 432.364 z M 1551.67 952.98 C 1631.97 947.643 1692.91 878.503 1688.12 798.171 C 1683.34 717.839 1614.62 656.427 1534.25 660.666 C 1453.11 664.946 1390.97 734.481 1395.8 815.594 C 1400.64 896.707 1470.6 958.369 1551.67 952.98 z M 511.457 947.997 C 589.555 944.673 650.137 878.608 646.698 800.515 C 643.259 722.423 577.104 661.939 499.017 665.493 C 421.092 669.04 360.761 735.026 364.193 812.956 C 367.625 890.886 433.522 951.314 511.457 947.997 z M 1362.91 889.713 C 1361.46 891.597 1359.48 894.317 1357.91 895.99 L 668.743 897.297 L 670.92 886.371 C 661.139 886.98 642.823 889.162 634.366 886.432 C 616.028 916.961 594.825 933.984 562.859 949.032 L 624.869 948.981 L 1474.29 949.055 C 1441.04 931.562 1424.01 915.019 1403.43 884.21 C 1402.96 883.501 1398.32 884.141 1397.3 884.341 C 1387.34 885.996 1372.61 888.881 1362.91 889.713 z M 1675.7 537.863 C 1676.09 533.966 1676.63 534.738 1674.98 532.05 C 1654.82 523.91 1624.7 514.6 1603.68 507.708 C 1556 491.95 1507.93 477.403 1459.52 464.081 C 1439.78 458.797 1419.42 454.367 1399.58 449.301 L 1398.49 452.555 C 1400.45 455.759 1408.07 457.214 1411.63 458.07 C 1442.59 465.508 1473.69 475.369 1504.28 484.371 C 1561.71 501.247 1618.86 519.08 1675.7 537.863 z M 1720.19 884.954 C 1732 882.83 1751.02 881.826 1763.77 880.635 C 1811.39 876.184 1846.02 875.041 1892.27 861.453 L 1898.85 859.017 C 1904.42 857.525 1910.08 855.942 1914.77 852.574 C 1928.4 842.782 1932.52 809.392 1934.49 793.108 C 1931.54 791.612 1927.94 789.454 1925 787.79 C 1918.21 804.525 1912.65 824.683 1905.22 841.466 C 1904.75 842.532 1897.9 850.813 1896.64 852.346 C 1897.7 853.374 1898.15 853.838 1899.01 855.002 L 1899.7 855.943 L 1891.8 859.754 C 1864.25 867.615 1840.15 864.032 1813.03 865.286 C 1784.17 866.62 1753.71 866.205 1725.26 868.374 C 1723.81 874.056 1722.6 879.601 1720.19 884.954 z M 1777.78 569.755 C 1762.35 563.608 1700.77 538.961 1686.02 538.629 C 1688.69 543.123 1766.21 566.936 1776.99 571.198 C 1791.43 576.902 1817.3 585.773 1832.62 587.56 C 1846.3 589.157 1854.01 586.016 1869.76 590.466 C 1879.06 579.865 1886.29 573.206 1896.75 563.759 C 1880.25 558.059 1873.84 560.831 1856.95 561.101 L 1783.79 561.742 L 1777.78 569.755 z M 126.29 750.47 L 124.178 751.044 C 123.741 755.325 124.393 760.262 126.735 763.947 C 135.275 769.169 196.871 766.765 209.229 765.695 L 212.603 764.594 C 212.069 759.13 204.558 750.96 198.564 750.749 C 174.676 749.91 150.218 749.971 126.29 750.47 z M 879.25 573.093 C 889.584 572.87 926.089 570.851 935.57 563.548 C 936.528 562.81 937.02 560.185 937.207 558.867 C 934.555 545.837 909.772 536.958 898.021 539.41 C 877.735 541.183 858.804 551.897 845.747 567.341 C 843.61 569.901 841.526 572.505 839.497 575.152 C 852.001 572.718 866.47 573.126 879.25 573.093 z M 1916.37 777.392 L 1854.31 785.025 C 1841.93 786.467 1829.11 787.527 1816.92 789.899 C 1809.17 791.406 1803.85 793.549 1800.34 800.755 L 1800.68 802.347 L 1802.99 802.408 C 1818.13 799.898 1832.88 797.316 1848.18 795.902 C 1869.05 793.974 1891.34 793.925 1912.04 791.469 C 1913.47 788.624 1919.1 779.277 1918.93 777.333 L 1916.37 777.392 z M 203.711 776.168 C 205.553 786.841 210.909 837.13 217.419 841.582 C 218.424 842.269 219.606 842.518 220.768 842.799 C 224.231 842.679 227.628 842.965 230.545 841.344 C 231.907 833.812 222.148 778.183 217.059 773.892 L 215.067 774.292 C 211.551 774.901 207.172 775.776 203.711 776.168 z M 1784.74 634.971 C 1786.98 636.551 1792.13 640.229 1794.62 640.504 C 1818.08 643.104 1849.47 640.832 1872.75 639.884 C 1878.82 639.978 1892.8 641.039 1897.39 638.27 L 1898.66 636.1 C 1898.23 634.796 1898.18 633.637 1897.07 633.612 C 1876.58 633.144 1827.25 632.298 1809.24 633.5 C 1801.29 633.923 1792.58 634.222 1784.74 634.971 z M 1828.75 551.959 C 1844.95 551.875 1861.88 551.529 1878.02 552.067 C 1884.11 548.087 1898.72 539.573 1902.08 533.705 C 1901.45 533.591 1900.53 533.358 1899.95 533.412 C 1884.66 535.26 1869.64 537.045 1854.43 539.561 C 1841.71 541.666 1837.85 544.396 1827.36 551.121 L 1827.48 551.797 L 1828.75 551.959 z M 1815.73 544.496 C 1805.97 545.403 1784.36 545.344 1779.08 553.252 L 1779.71 554.434 L 1782.16 553.229 C 1796.49 552.35 1807.23 552.858 1819.24 544.602 L 1818.69 543.993 L 1815.73 544.496 z M 677.153 573.159 C 684.326 573.15 695.408 572.834 702.242 573.348 C 724.557 574.751 747.872 573.763 769.704 575.265 C 826.593 530.054 890.254 492.617 951.439 453.667 C 954.815 451.518 959.589 447.959 961.544 444.425 C 959.837 439.868 945.004 441.215 940.713 441.352 C 916.448 445.558 877.606 468.378 853.972 480.302 C 795.648 509.728 733.734 540.614 677.153 573.159 z M 233.587 880.293 L 234.969 880.051 C 227.93 868.548 186.724 868.734 174.185 869.334 L 171.795 870.744 C 176.434 878.369 222.315 878.762 233.587 880.293 z M 308.772 892.867 C 313.712 893.12 333.071 894.743 336.367 894.196 C 338.341 891.336 337.857 892.656 337.921 889.101 L 336.592 887.893 C 335.199 887.977 331.708 888.101 330.55 888.4 C 319.034 889.871 311.734 890.398 300.124 890.646 L 299.702 892.037 L 299.231 891.761 L 308.772 892.867 z M 926.553 576.436 C 903.115 580.724 879.286 582.505 855.471 581.749 C 848.313 581.489 839.725 578.303 836.383 582.547 L 836.58 584.47 L 838.018 584.72 C 857.863 587.383 911.883 590.03 927.528 576.867 C 926.633 576.373 926.893 576.397 926.553 576.436 z M 1265.62 461.743 C 1254.39 459.613 1243.21 459.177 1232.01 457.316 C 1192.93 450.824 1154.48 446.695 1114.78 446.703 C 1106.1 446.705 1092.89 446.451 1084.53 447.598 C 1013.26 453.191 942.353 489.172 884.619 530.155 C 905.256 526.142 940.369 529.918 946.473 555.639 C 947.855 561.461 946.024 566.39 945.301 572.095 C 949.729 575.139 1048.43 571.857 1063.25 571.969 C 1102.52 571.985 1140.99 572.02 1180.23 570.611 C 1199.27 569.928 1218.58 570.848 1237.88 569.916 C 1240.04 553.942 1249.32 527.036 1253.4 510.653 C 1257.29 495.057 1261.09 476.68 1265.62 461.743 z M 1877.59 804.123 C 1867.13 842.713 1866.32 850.56 1823.63 851.441 C 1812.86 851.663 1797.31 853.346 1786.27 854.434 C 1782.31 854.54 1779.2 854.247 1775.69 855.948 C 1778.81 858.034 1786.33 856.826 1790.05 856.363 C 1815.42 853.063 1858.09 860.334 1881.93 851.329 C 1897 845.635 1905.31 815.635 1910.34 800.456 L 1877.59 804.123 z M 366.583 701.997 L 372.339 694.407 C 367.778 694.73 361.727 694.988 357.324 695.582 C 341.768 696.877 334.239 698.353 319.805 704.795 C 325.379 704.003 330.944 703.153 336.5 702.248 C 348.063 700.75 354.751 700.63 366.583 701.997 z M 197.694 795.595 C 196.694 790.726 195.933 787.588 195.803 782.599 C 182.604 781.012 164.79 780.551 152.676 778.425 C 154.723 782.536 156.931 787.27 159.35 791.102 C 174.679 790.521 183.008 789.943 197.694 795.595 z M 190.524 805.486 C 187.06 799.814 172.639 800.399 166.798 801.379 C 173.957 807.754 181.46 807.65 190.524 805.486 z M 1896.87 650.674 C 1899.09 650.67 1902.83 651.068 1904.58 649.777 L 1906.09 650.078 L 1904.91 650.223 L 1906.21 649.53 C 1899.33 647.12 1874.22 647.608 1866.8 648.922 C 1845.05 649.248 1811.55 653.924 1792.41 647.995 C 1787.42 646.45 1775.61 637.873 1769.56 634.677 C 1751.76 634.702 1736.3 635.714 1718.82 636.124 C 1725.31 641.748 1727.39 643.282 1735.4 645.92 C 1778.32 660.05 1820.2 656.702 1864.44 653.679 C 1873.71 653.046 1887.5 652.55 1896.87 650.674 z M 129.546 775.725 C 130.947 789.429 132.461 803.198 133.565 816.934 C 134.969 834.396 131.909 840.585 120.185 852.651 C 137.848 858.773 174.215 859.705 193.234 860.346 C 226.25 861.459 228.568 859.178 252.699 881.937 C 276.92 886.804 310.209 881.974 334.745 879.677 C 325.526 824.345 327.779 758.013 360.725 710.413 C 357.817 710.576 350.29 710.832 347.813 711.34 C 339.994 712.651 331.051 714.363 323.17 714.553 C 271.48 715.797 220.42 721.947 168.674 716.767 C 159.836 715.882 149.684 715.788 140.736 715.954 C 132.672 726.943 126.514 728.792 120.896 742.519 C 145.258 741.384 179.6 742.326 201.495 740.198 C 230.794 754.926 236.68 804.523 240.267 833.622 C 241.288 841.903 238.818 849.835 230.232 852.342 C 220.353 855.687 214.903 845.633 208.669 844.281 C 186.21 839.408 154.077 850.855 152.333 817.131 C 150.24 797.892 150.229 792.945 141.106 775.927 L 129.546 775.725 z M 1247.11 569.236 C 1276.42 568.712 1316.45 564.506 1346.4 562.118 C 1383.19 559.186 1428.15 556.626 1464.23 551.432 C 1472.18 550.495 1507.58 547.948 1511.13 542.167 C 1509.28 536.702 1498.23 530.9 1493.18 528.446 C 1436.25 500.767 1376.01 482.832 1314.63 468.074 C 1301.79 464.985 1288.65 463.56 1275.81 460.981 C 1270.71 476.724 1267.11 493.49 1263.14 509.567 C 1258.2 529.57 1252.39 549.314 1247.11 569.236 z M 840.524 595.74 C 845.171 608.35 856.029 614.917 867.529 605.258 L 870.639 600.798 C 868.615 599.298 863.781 600.477 859.963 599.916 C 852.722 598.853 847.779 596.152 840.524 595.74 z M 1363.77 882.433 C 1374.68 878.216 1387.81 875.546 1399.58 875.675 C 1393.24 860.327 1388.35 846.866 1386.38 830.283 C 1374.47 730.012 1447.31 648.909 1548.04 650.021 C 1595.61 655.165 1633.23 671.162 1663.82 709.205 C 1690.31 741.752 1702.64 783.563 1698.05 825.276 C 1695.77 844.748 1690 863.65 1681.03 881.077 C 1689.46 881.06 1705.98 883.27 1711.36 880.596 C 1713.74 875.496 1714.4 862.618 1715.03 856.414 C 1718.7 820.545 1719.52 786.296 1707.05 751.863 C 1691.34 707.628 1658.48 671.581 1615.89 651.85 C 1594.46 641.826 1559.88 633.588 1536.42 636.418 C 1432.07 644.497 1362.37 726.798 1364.19 828.791 C 1364.48 845.252 1364.8 866.201 1363.77 882.433 z M 162.01 810.782 C 162.762 817.227 162.795 825.7 168.415 829.765 C 173.564 833.489 195.986 834.214 201.862 832.734 C 201.996 831.725 202.181 831.199 202.021 830.253 C 201.572 823.932 201.247 817.602 201.046 811.268 C 188.01 817.035 174.361 819.767 162.01 810.782 z M 1864.26 804.424 C 1850.99 805.136 1841.17 806.145 1827.99 808.441 C 1817.68 810.238 1804.85 812.988 1794.71 813.451 C 1790.33 822.03 1782.71 835.971 1779.38 844.494 C 1781.3 845.587 1784.4 845.161 1786.75 845.093 C 1797.37 845.113 1848.07 842.636 1856.19 836.116 C 1863.91 829.916 1863.8 814.098 1871.64 804.318 C 1868.2 803.683 1867.79 803.871 1864.26 804.424 z M 362.21 603.164 C 324.933 611.922 285.822 642.135 257.153 666.665 C 251.553 671.457 236.032 685.74 234.868 692.582 L 235.94 693.92 L 238.222 693.875 C 272.287 687.078 342.475 641.748 361.542 610.357 C 363.063 607.853 364.813 606.098 364.775 603.289 C 364.172 603.244 362.733 603.078 362.21 603.164 z M 375.539 600.519 C 368.636 642.704 245.436 718.876 224.739 699.672 C 218.512 688.166 240.12 669.18 247.503 662.153 C 226.313 670.798 208.442 679.785 188.193 690.245 C 177.165 695.941 166.187 700.151 155.184 706.535 C 178.583 710.872 208.168 708.997 232.129 710.199 C 241.91 710.69 257.929 707.244 267.512 707.17 C 292.536 706.977 298.696 707.967 319.354 694.864 C 328.661 688.961 368.085 685.031 381.262 684.956 L 396.582 671.911 C 427.518 648.218 469.117 629.674 508.438 631.853 C 557.167 634.554 609.089 654.938 638.904 694.252 C 663.126 725.633 677.603 763.433 680.54 802.965 C 681.601 816.549 681.154 829.936 681.791 843.362 C 692.404 842.199 726.468 843.072 731.529 841.597 L 732.385 840.087 C 731.87 838.605 731.399 837.293 730.532 835.971 C 725.028 827.579 719.974 705.436 720.252 689.009 C 720.476 675.838 721.551 662.306 724.309 649.408 C 729.925 623.147 743.035 604.056 760.465 584.246 C 736.076 584.007 711.716 582.782 687.38 582.679 C 670.908 582.609 658.307 577.441 642.3 576.469 C 610.858 578.07 578.401 582.848 546.436 585.098 C 494.336 588.765 426.835 589.756 375.539 600.519 z M 487.899 643.378 C 443.423 648.769 402.508 673.727 374.52 708.612 C 338.254 753.815 336.563 814.151 342.928 869.257 C 343.29 872.392 343.471 874.81 345.158 877.458 C 354.997 884.834 361.103 879.833 372.273 879.495 C 354.037 838.379 347.466 794.733 364.164 751.756 C 378.39 714.39 407.067 684.33 443.722 668.36 C 466.546 658.401 496.335 651.136 521.243 654.244 C 559.573 658.221 595.922 676.265 620.323 706.432 C 646.959 739.467 659.55 781.644 655.384 823.875 C 653.131 843.505 647.142 862.523 637.741 879.902 C 649.726 877.351 658.552 876.977 670.662 877.063 C 673.855 806.281 671.567 745.163 622.164 689.783 C 594.936 659.261 527.109 635.868 487.899 643.378 z M 1705.85 637.12 L 1698.73 637.396 C 1672.84 640.703 1652.74 643.621 1626.48 645.276 C 1701.01 689.435 1733.86 753.574 1726.54 840.444 C 1726.24 844.006 1723.96 859.409 1724.75 861.552 C 1726.26 859.783 1727.12 858.289 1730.02 858.325 C 1742.79 858.484 1755.16 857.864 1767.86 856.895 C 1767.98 839.181 1787.85 808.246 1795.93 791.56 C 1797.01 789.339 1801.19 786.418 1803.37 785.026 C 1809.02 782.463 1814.93 780.318 1821.14 779.626 C 1854.66 775.892 1888.1 771.342 1921.65 767.86 C 1926.38 767.369 1929.3 767.121 1933.85 765.711 C 1928.07 743.42 1925.43 729.058 1935.74 707.408 C 1945.67 686.56 1934.92 671.513 1917.95 658.661 C 1890.41 663.101 1860.06 662.292 1832.23 664.74 C 1794.84 668.028 1732.51 666.718 1705.85 637.12 z M 1259.5 865.442 C 1215.12 867.336 1167.98 867.144 1123 868.313 L 768.169 878.457 C 743.837 879.22 707.676 879.868 682.287 879.949 C 681.45 880.64 680.735 881.23 680.142 881.719 C 679.147 885.269 678.895 884.235 679.839 887.283 C 684.793 887.984 689.385 888.056 694.362 887.847 C 722.231 886.682 750.105 887.104 777.971 886.472 L 1167.79 886.362 C 1190.98 886.326 1213.97 884.899 1237.08 885.054 C 1276.12 885.316 1315.37 884.504 1354.39 885.235 C 1354.52 878.18 1354.41 875.766 1356.04 868.872 C 1347.02 862.379 1274.95 865.254 1259.5 865.442 z"/>
<path transform="translate(0,0)" fill="currentColor" d="M 1408.22 608.132 C 1418.34 606.837 1429.37 611.648 1424.51 623.606 C 1411.65 655.234 1379.46 694.597 1349.59 711.394 C 1316.09 718.051 1343.9 668.798 1351.11 657.517 C 1364.55 636.479 1383.01 614.091 1408.22 608.132 z M 1348.83 699.529 C 1372.41 687.143 1404.96 650.006 1415.17 624.036 C 1415.74 622.595 1415.71 620.567 1415.55 618.996 L 1414.49 617.365 C 1412.81 617.233 1411.21 617.048 1409.54 617.149 C 1385.96 625.852 1371.01 643.188 1358.23 664.048 C 1353.3 672.102 1343.32 689.696 1343.99 698.741 L 1345.13 700.429 C 1346.3 700.163 1347.71 699.895 1348.83 699.529 z"/>
<path transform="translate(0,0)" fill="currentColor" d="M 1194.06 640.572 C 1205.39 639.051 1235.92 638.654 1241.63 646.552 C 1259.97 671.911 1198.12 669.97 1191.35 669.909 C 1180.38 668.721 1145.22 671.678 1142.52 658.75 C 1139.11 642.458 1184.27 641.4 1194.06 640.572 z M 1148.92 657.363 C 1160.85 658.708 1173.49 660.149 1185.5 660.049 C 1196.08 660.172 1226.56 661.106 1234.3 654.815 C 1232.11 648.438 1210.85 649.105 1205.25 649.426 C 1186.11 650.805 1167.39 651.657 1148.92 657.363 z"/>
<path transform="translate(0,0)" fill="currentColor" d="M 1539.11 690.737 C 1603.21 689.69 1656.07 740.72 1657.29 804.822 C 1658.5 868.924 1607.61 921.918 1543.51 923.299 C 1479.18 924.686 1425.94 873.565 1424.72 809.226 C 1423.51 744.886 1474.77 691.787 1539.11 690.737 z M 1549.53 912.176 C 1607.32 907.444 1650.49 857.008 1646.25 799.18 C 1642 741.353 1591.93 697.758 1534.07 701.512 C 1475.51 705.311 1431.28 756.116 1435.57 814.639 C 1439.87 873.163 1491.04 916.966 1549.53 912.176 z"/>
<path transform="translate(0,0)" fill="currentColor" d="M 1515.24 714.344 C 1555.92 711.468 1528.97 765.309 1539.8 777.854 C 1543.36 779.373 1541.8 779.064 1545.97 778.66 C 1560.24 767.36 1531.41 699.014 1583.41 721.05 C 1615.08 734.468 1657.79 781.372 1596.4 787.696 C 1587.89 788.573 1575.86 791.406 1567.67 793.778 C 1568.71 798.232 1568.99 801.051 1569.46 805.576 C 1581.16 804.929 1592.76 802.679 1604.42 801.461 C 1610.6 801.48 1632.04 793.084 1635.63 799.848 C 1645.57 818.579 1630.74 856.155 1616.56 868.578 C 1602.16 881.197 1589.12 863.361 1580.83 853.76 C 1573.76 845.574 1566.45 836.918 1559.89 828.466 C 1557.07 830.481 1554.04 832.242 1551.08 834.045 C 1558.97 845.992 1565.77 855.416 1571.34 868.66 C 1578.45 879.695 1596.94 890.323 1570 899.956 C 1550.85 906.289 1526.09 907.17 1507.21 899.336 C 1492.79 893.352 1500.19 879.749 1507.06 871.519 C 1515.44 861.48 1521.53 850.915 1527.67 839.528 C 1525.67 836.183 1523.64 832.853 1521.6 829.537 C 1513.02 840.114 1492.04 866.099 1482.05 873.682 C 1455.4 889.661 1431.08 806.937 1454.57 795.75 C 1467.72 789.493 1496.84 801.217 1512.63 805.734 C 1513.44 801.938 1514.64 799.249 1516.06 795.675 C 1494.78 786.813 1437.56 780.557 1461.04 748.287 C 1474.66 729.558 1492.53 718.435 1515.24 714.344 z M 1466.1 762.431 C 1473.05 765.316 1483.58 769.176 1488.22 774.518 C 1488.94 775.337 1492.43 776.354 1493.69 776.608 C 1504.04 779.869 1513.05 782.553 1522.77 787.585 L 1528.46 781.542 C 1527.16 777.965 1525.73 774.137 1525.47 770.349 C 1524.75 759.535 1530.01 732.359 1520.01 725.262 L 1515.01 725.185 C 1497.28 729.45 1480.99 737.273 1471.14 753.346 C 1469.34 756.31 1467.66 759.34 1466.1 762.431 z M 1557.48 782.122 L 1563.5 785.931 C 1577.22 783.16 1590.97 780.594 1604.76 778.234 C 1625.44 772.396 1616.96 761.963 1606.46 750.044 C 1594.59 736.563 1581.34 732.008 1564.55 727.719 C 1560.8 746.266 1562.87 759.751 1557.48 782.122 z M 1535.15 791.185 C 1528.91 793.474 1524.38 798.945 1523.31 805.504 C 1522.23 812.062 1524.77 818.692 1529.95 822.856 C 1535.13 827.02 1542.15 828.073 1548.32 825.612 C 1557.69 821.879 1562.32 811.316 1558.71 801.901 C 1555.11 792.486 1544.61 787.712 1535.15 791.185 z M 1592.89 852.515 C 1598.03 857.013 1601.76 859.887 1607.28 863.878 C 1620.41 855.092 1640.1 814.709 1624.21 806.566 C 1621.14 806.673 1619.2 806.664 1616.13 807.311 C 1606.41 808.83 1573.85 811.92 1569.29 816.16 C 1566.52 825.068 1586.5 844.731 1592.89 852.515 z M 1574.46 889.18 C 1570.7 880.932 1545.91 841.597 1540.97 837.819 L 1538.37 837.477 C 1533.53 844.1 1513.38 880.768 1509.78 889.429 C 1520.13 892.433 1535.44 896.601 1546.23 895.676 C 1557.98 894.225 1563.37 893.788 1574.46 889.18 z M 1456.43 805.731 C 1452.19 830.544 1460.27 847.749 1475.35 866.608 C 1479.03 863.745 1496.89 850.738 1497.05 846.916 L 1495.41 845.971 C 1496.67 841.298 1504.1 837.397 1506.33 833.615 C 1509.85 827.638 1509.06 826.4 1515.77 823.199 C 1512.62 812.951 1467.14 807.247 1456.43 805.731 z"/>
<path transform="translate(0,0)" fill="currentColor" d="M 500.112 694.19 C 562.247 691.709 614.726 739.865 617.582 801.984 C 620.437 864.103 572.598 916.871 510.498 920.101 C 447.865 923.359 394.547 875.021 391.666 812.37 C 388.786 749.719 437.445 696.692 500.112 694.19 z M 516.478 909.096 C 572.471 902.511 612.657 851.978 606.465 795.941 C 600.272 739.903 550.021 699.364 493.942 705.164 C 437.305 711.022 396.273 761.883 402.527 818.477 C 408.781 875.072 459.929 915.747 516.478 909.096 z"/>
<path transform="translate(0,0)" fill="currentColor" d="M 478.269 717.184 C 515.103 714.591 490.11 771.036 502.477 779.496 C 518.7 779.243 506.812 738.426 513.929 725.565 C 529.759 696.962 598.447 752.634 586.37 774.412 C 579.847 786.174 542.228 788.937 527.905 793.103 C 529.831 798.237 530.237 799.766 531.146 805.175 C 546.811 802.382 573.981 798.541 589.696 796.139 C 614.205 792.393 589.554 875.125 567.049 870.781 C 552.576 867.988 530.935 837.652 521.933 827.763 C 519.651 830.342 517.218 831.954 514.464 834.006 C 521.262 843.581 526.628 851.752 532.807 861.745 C 534.846 865.719 546.097 881.641 546.211 882.446 C 549.958 908.743 486.558 904.412 474.776 898.487 C 460.546 891.331 461.864 882.912 468.828 873.71 C 478.682 860.691 484.986 849.463 492.123 834.941 C 489.46 833.288 486.715 831.094 484.189 829.19 C 478.296 837.965 457.721 865.821 449.757 871.557 C 422.456 891.219 396.302 805.52 421.405 794.151 C 431.586 789.54 462.409 801.508 474.151 804.67 C 475.114 802.007 476.635 798.877 477.818 796.243 C 467.743 791.709 453.924 786.474 443.558 783 C 401.528 768.917 431.018 738.752 454.869 725.312 C 463.046 720.704 469.214 719.122 478.269 717.184 z M 525.594 727.562 C 522.82 740.013 523.461 749.802 522.585 762.303 C 522.186 767.995 518.912 777.112 519.691 782.108 C 525.571 786.662 558.822 779.013 566.774 776.918 C 572.927 775.587 581.63 772.695 577.292 764.596 C 565.41 742.416 548.571 732.636 525.594 727.562 z M 485.545 787.898 L 490.582 782.815 C 489.658 779.647 487.874 773.734 487.586 770.568 C 486.667 760.474 489.536 735.694 483.948 727.294 C 481.231 726.177 479.588 726.758 476.602 727.225 C 456.263 733.557 441.107 742.414 432.976 763.03 C 440.39 766.631 453.396 775.099 458.762 777.04 C 468.838 780.371 476.055 782.819 485.545 787.898 z M 497.109 791.253 C 487.737 794.352 482.523 804.337 485.335 813.799 C 488.148 823.261 497.969 828.777 507.512 826.254 C 513.95 824.552 518.951 819.483 520.565 813.023 C 522.179 806.563 520.15 799.736 515.27 795.207 C 510.389 790.677 503.431 789.162 497.109 791.253 z M 423.641 803.358 C 417.572 828.786 424.737 843.686 440.537 863.481 C 445.941 859.493 455.133 853.184 458.242 847.585 C 463.174 835.833 475.308 829.18 478.077 822.929 C 473.792 813.488 434.496 807.084 423.641 803.358 z M 512.008 894.427 C 522.703 893.917 528.8 891.75 538.727 887.915 C 528.59 870.538 517.415 854.239 506.115 837.611 C 506.115 837.61 503.607 836.659 503.365 836.568 C 492.561 845.116 481.295 872.872 474.436 887.085 C 489.387 894.041 496.096 894.415 512.008 894.427 z M 586.241 805.414 C 567.311 808.467 550.028 809.821 531.562 812.44 C 526.622 820.516 546.078 841.42 551.941 847.368 C 558.138 853.805 562.355 856.824 569.973 861.516 C 581.106 850.403 596.876 820.639 588.43 805.881 L 586.241 805.414 z"/>
<path transform="translate(0,0)" fill="url(#Gradient1)" d="M 1910.34 800.456 C 1905.31 815.635 1897 845.635 1881.93 851.329 C 1858.09 860.334 1815.42 853.063 1790.05 856.363 L 1786.27 854.434 C 1797.31 853.346 1812.86 851.663 1823.63 851.441 C 1866.32 850.56 1867.13 842.713 1877.59 804.123 L 1910.34 800.456 z"/>
<path transform="translate(0,0)" fill="currentColor" fill-opacity="0.0235294" d="M 1776.99 571.198 C 1766.21 566.936 1688.69 543.123 1686.02 538.629 C 1700.77 538.961 1762.35 563.608 1777.78 569.755 L 1776.99 571.198 z"/>
<path transform="translate(0,0)" fill="currentColor" fill-opacity="0.0117647" d="M 330.55 888.4 C 331.708 888.101 335.199 887.977 336.592 887.893 L 337.921 889.101 C 337.857 892.656 338.341 891.336 336.367 894.196 C 333.071 894.743 313.712 893.12 308.772 892.867 L 299.231 891.761 L 299.702 892.037 L 300.124 890.646 C 311.734 890.398 319.034 889.871 330.55 888.4 z"/>
<path transform="translate(0,0)" fill="currentColor" fill-opacity="0.0470588" d="M 1866.8 648.922 C 1874.22 647.608 1899.33 647.12 1906.21 649.53 L 1904.91 650.223 L 1906.09 650.078 L 1904.58 649.777 C 1902.83 651.068 1899.09 650.67 1896.87 650.674 C 1893.14 647.853 1874.2 649.698 1866.8 648.922 z"/>
<path transform="translate(0,0)" fill="currentColor" fill-opacity="0.0470588" d="M 1790.05 856.363 C 1786.33 856.826 1778.81 858.034 1775.69 855.948 C 1779.2 854.247 1782.31 854.54 1786.27 854.434 L 1790.05 856.363 z"/>
<path transform="translate(0,0)" fill="currentColor" fill-opacity="0.176471" d="M 1891.8 859.754 L 1899.7 855.943 L 1898.85 859.017 L 1892.27 861.453 L 1891.8 859.754 z"/>
</svg>
