<svg xmlns="http://www.w3.org/2000/svg" version="1.1" style="display: block;" viewBox="0 0 2048 1365">
<path transform="translate(0,0)" fill="currentColor" d="M 991.71 391.56 C 1011.66 389.512 1056.96 391.022 1077.11 391.823 C 1138.73 394.272 1205.8 400.151 1266.55 411.305 C 1299.15 417.355 1331.46 424.863 1363.39 433.805 C 1379.94 438.434 1396.6 444.136 1413.04 448.58 C 1552.17 486.809 1689.69 530.63 1825.28 579.938 C 1834.71 583.352 1846.42 588.222 1855.93 590.646 C 1882.33 597.253 1913.27 590.778 1923.9 622.777 C 1932.62 649.036 1940.56 676.992 1947.31 703.776 C 1952.62 724.871 1943.5 748.814 1927.41 762.76 C 1923.23 766.386 1915.38 771.318 1910.97 775.19 C 1902.43 790.47 1891.87 805.537 1876.37 814.635 C 1868.01 819.589 1858.25 819.199 1848.18 820.322 C 1845.47 823.14 1842.74 825.94 1839.99 828.719 C 1828.26 840.359 1812.61 842.328 1796.7 842.884 C 1749.11 844.549 1699.91 846.733 1652.4 846.608 C 1650.54 860.734 1646.49 874.485 1640.41 887.369 C 1606.47 959.678 1522.4 990.213 1449.81 956.462 C 1419.73 942.477 1393.56 914.382 1379.28 884.672 C 1374.5 874.719 1371.35 862.448 1367.54 851.835 C 1358.2 856.278 1354.03 861.035 1346.58 868.253 C 1333.88 865.896 1316.71 866.619 1303.45 866.662 L 1244.32 866.861 L 1006.25 867.815 L 720.385 867.933 C 688.553 868.03 656.721 867.962 624.89 867.73 C 611.894 867.527 597.942 867.268 584.935 866.567 C 581.913 866.404 574.573 861.887 570.372 861.168 C 558.668 859.166 547.14 857.898 535.448 855.677 C 531.378 881.28 515.214 909.761 497.359 928.283 C 471.33 955.798 435.397 971.789 397.532 972.71 C 358.395 973.171 320.675 958.083 292.652 930.759 C 265.082 903.988 251.274 870.165 250.663 831.962 C 239.28 831.674 227.827 833.047 215.621 833.057 C 194.223 833.074 170.563 828.994 149.756 823.967 C 147.199 823.35 141.483 819.21 139.715 817.354 C 126.497 803.471 109.905 780.655 109.217 761.271 C 99.3414 760.654 75.8931 762.51 73.1646 751.134 C 68.6244 732.206 88.3472 729.231 101.575 725.868 C 97.0206 699.684 89.0925 659.284 76.774 636.531 C 104.644 585.533 318.143 574.127 376.987 570.553 C 435.467 566.753 493.994 563.737 552.555 561.508 C 596.785 560.006 642.64 559.999 686.513 557.999 C 692.386 554.731 702.459 545.635 707.969 541.005 C 718.628 532.032 729.381 523.171 740.226 514.422 C 780.266 482.04 824.098 449.466 864.827 417.807 C 895.1 394.276 954.085 393.588 991.71 391.56 z M 1249.69 594.717 C 1244.68 612.878 1238.89 636.077 1235.36 654.499 C 1353.55 653.983 1331.36 657.391 1303.49 760.98 C 1298.46 779.677 1285.03 777.419 1269.13 777.201 C 1253.53 776.986 1237.32 777.623 1221.79 776.671 C 1218.57 776.467 1215.36 776.091 1212.18 775.546 C 1209.17 789.574 1206.17 805.067 1202.85 818.912 L 1351.21 818.427 C 1359.25 770.975 1374.27 731.751 1414.63 702.334 C 1450.07 676.505 1501.78 672.867 1543.9 680.085 C 1563.4 683.347 1582.26 689.684 1599.77 698.86 C 1642.63 723.776 1659.27 749.303 1675.88 796.024 C 1678.05 802.126 1683.69 820.711 1687.88 822.073 C 1699.93 825.994 1744.96 821.623 1757.19 821.161 C 1776.85 820.417 1822.89 818.138 1838.7 814.854 C 1845.54 813.435 1891.82 772.809 1901.3 765.568 C 1897.91 751.806 1901.01 703.639 1899.81 685.882 C 1898 659.206 1892.86 633.897 1893.34 607.648 C 1883.26 604.534 1864.13 602.542 1852.9 601.241 C 1830.76 598.709 1808.59 596.454 1786.4 594.475 C 1708.15 587.578 1629.78 582.226 1551.33 578.419 C 1503.89 576.033 1457.04 575.167 1409.53 575.97 C 1403.39 576.074 1397.67 576.003 1391.53 576.577 C 1365.1 578.28 1344.68 579.013 1318.02 582.997 C 1294.99 586.441 1272.44 591.283 1249.69 594.717 z M 730.624 819.006 L 1042.91 818.748 C 1090.64 818.743 1145.44 820.173 1192.61 818.582 C 1194.03 811.09 1195.56 801.784 1197.31 794.516 C 1201.66 772.362 1206.32 750.27 1211.29 728.245 C 1214.66 713.14 1222.86 678.164 1223.06 663.986 C 1053.25 657.828 883.347 654.747 713.428 654.743 C 712.786 706.906 721.277 767.789 730.624 819.006 z M 1520.5 957.862 C 1595.1 951.835 1650.63 886.39 1644.43 811.807 C 1638.23 737.224 1572.66 681.841 1498.09 688.209 C 1423.76 694.555 1368.6 759.87 1374.78 834.213 C 1380.95 908.556 1446.14 963.87 1520.5 957.862 z M 407.396 961.127 C 480.887 953.837 534.566 888.37 527.313 814.875 C 520.061 741.381 454.621 687.669 381.123 694.884 C 307.572 702.105 253.813 767.601 261.071 841.149 C 268.329 914.696 333.853 968.422 407.396 961.127 z M 157.611 722.104 C 169.726 722.667 199.906 723.831 206.224 732.768 C 224.569 758.716 164.58 761.418 156.432 761.88 C 160.523 778.605 166.065 793.041 175.858 807.413 C 189.795 827.865 214.149 824.103 236.046 823.768 C 221.024 743.548 281.615 684.546 355.784 670.753 C 402.097 662.141 454.543 675.558 493.287 701.816 C 521.606 721.388 538.62 749.38 551.824 780.621 L 569.917 819.967 C 619.75 820.218 669.585 819.984 719.413 819.264 C 712.79 776.072 707.347 732.862 706.253 689.159 C 705.965 677.63 704.96 666.209 705.385 654.664 L 370.369 653.149 L 243.129 653.081 C 211.492 653.022 171.979 653.103 140.573 650.545 C 145.249 665.361 155.882 707.205 157.611 722.104 z M 885.234 419.038 C 896.377 429.984 907.847 442.062 892.391 454.943 C 844.577 494.792 793.187 530.879 748.138 574.131 L 748.552 575.187 C 755.377 570.648 767.054 560.816 773.927 555.377 L 825.077 514.575 L 870.447 478.183 C 881.552 469.314 897.431 459.554 902.886 446.527 C 936.022 425.72 974.192 427.461 1011.9 427.819 C 1046.05 428.144 1081.72 428.122 1115.8 431.426 C 1160.56 436.334 1206.12 441.288 1250.3 449.872 C 1268.25 453.359 1278.98 464.395 1276.59 482.884 C 1272.28 516.292 1261.1 553.023 1252.13 585.509 C 1259.77 582.944 1264.91 581.909 1272.74 580.314 C 1362.6 564.11 1459.43 565.162 1550.66 567.813 C 1596.84 569.154 1656.64 572.118 1702.9 576.952 C 1702.72 563.523 1703.22 562.995 1690.19 558.993 L 1409.05 474.858 C 1389.67 469.178 1366.89 464.027 1348.44 458.196 C 1331.77 433.115 1323.56 435.056 1295.6 428.688 C 1226.93 413.049 1157.53 405.196 1087.2 402.732 C 1060.02 401.841 1027.97 399.396 1001.24 401.436 C 965.134 403.405 918.507 404.889 885.234 419.038 z M 991.516 648.782 L 1138.36 651.886 L 1189.8 653.074 C 1200.01 653.217 1214.69 652.821 1224.52 653.537 C 1227.39 644.063 1241.03 598.502 1239.24 592.344 C 1231.93 591.087 1215.15 591.174 1207.18 591.054 C 1185.84 590.791 1164.49 590.671 1143.15 590.696 C 1085.75 590.606 1027.63 589.354 970.319 590.52 C 895.802 591.018 811.194 588.62 737.517 591.41 C 728.047 608.168 718.454 626.229 714.185 645.148 C 782.209 645.069 850.23 645.946 918.229 647.779 C 939.341 648.334 971.724 646.682 991.516 648.782 z M 969.374 451.582 C 919.451 454.508 928.624 457.604 912.576 502.566 L 885.233 578.612 L 1172.23 578.564 C 1188.91 578.579 1212.3 579.27 1228.44 578.217 C 1238 560.512 1254.77 496.599 1254.93 475.965 C 1220.7 457.355 1014.73 447.418 969.374 451.582 z M 151.256 642.325 L 160.25 642.497 L 535.246 643.898 C 567.394 643.924 600.019 643.667 632.128 644.106 C 656.749 644.442 679.665 645.597 704.611 644.911 C 710.538 622.673 715.041 615.432 724.387 594.674 C 722.829 594.567 721.43 594.413 719.869 594.484 C 614.936 596.222 510.029 599.246 405.17 603.556 C 365.431 605.067 325.726 607.36 286.077 610.432 C 240.346 614.024 190.804 616.851 151.256 642.325 z M 572.027 829.923 C 575.719 840.471 578.17 846.28 584.574 855.729 L 614.5 855.848 L 1052.07 855.842 C 1148.91 855.832 1247.72 856.43 1344.5 855.075 C 1346.39 846.387 1347.69 837.519 1349.53 829.163 C 1335.11 829.188 1319.71 828.945 1305.38 829.527 C 1163.62 830.727 1021.86 831.022 880.097 830.41 L 652.044 829.945 C 625.809 829.795 598.012 830.572 572.027 829.923 z M 1896.14 608.445 C 1903.47 626.991 1904.85 653.334 1907.21 673.446 C 1907.61 676.925 1908.06 694.46 1908.98 695.9 L 1911.63 694.212 C 1917.79 690.296 1923.71 691.757 1931.13 691.923 L 1932.88 691.402 C 1932.53 686.599 1929.26 676.457 1927.84 671.527 C 1921.44 649.287 1917.68 621.32 1896.14 608.445 z M 141.5 751.105 C 150.467 751.202 196.77 752.653 196.399 740.322 C 189.116 731.616 152.114 732.332 140.913 733.417 C 128.181 734.807 89.6643 732.102 84.3501 745.371 C 87.9873 753.447 131.869 750.91 141.5 751.105 z M 910.912 474.061 C 872.737 505.764 828.552 543.611 791.99 577.249 L 791.941 578.376 L 792.413 578.562 C 818.775 578.549 846.396 578.105 872.654 578.634 L 900.834 502.278 C 904.07 493.564 908.652 483.141 911.472 474.835 L 910.912 474.061 z M 1653.32 837.119 C 1662.19 837.121 1671.87 837.471 1680.56 836.042 C 1691.23 836.04 1700.36 835.512 1711.02 834.786 L 1725.9 834.251 C 1748.4 834.732 1806.97 835.607 1824.53 826.118 C 1793.02 830.763 1757.64 830.732 1725.56 833.01 C 1712.14 832.624 1696.97 833.119 1683.42 833.262 C 1664.33 817.405 1656.97 748.084 1620.43 728.836 C 1635.03 746.871 1644.36 766.445 1650.06 789 C 1654.36 806.02 1653.44 819.83 1653.32 837.119 z M 1808.96 585.987 C 1792.17 579.93 1775.23 574.291 1758.16 569.077 C 1744.71 564.97 1725.92 559.787 1713.16 554.572 C 1712.99 563.06 1713 570.017 1713.42 578.493 C 1736.83 582.265 1755.94 583.851 1779.68 584.663 C 1787.62 584.934 1801.75 586.713 1808.96 585.987 z M 92.4186 646.4 L 92.643 647.16 C 94.868 654.48 98.8784 661.908 100.775 668.978 C 105.693 687.307 109.224 706.434 112.49 725.122 C 123.001 723.957 136.406 724.208 145.696 722.4 L 147.075 721.06 C 142.84 700.635 137.081 668.394 131.358 649.523 C 117.681 648.98 106.038 647.943 92.4186 646.4 z M 248.027 825.414 C 252.641 815.286 253.016 798.781 256.453 787.376 C 268.997 744.882 300.005 710.293 340.882 693.2 C 351.335 688.924 361.174 686.316 372.261 684.259 C 401.446 681.354 417.111 682.64 445.135 691.821 C 463.796 699 486.024 713.425 499.373 728.319 C 531.143 763.767 538.61 799.299 536.967 845.01 C 544.88 847.097 560.481 849.298 569.071 850.775 C 545.675 780.805 521.651 716.982 446.649 690.481 C 422.461 682.67 397.02 678.09 371.707 682.629 C 335.902 683.955 302.032 699.223 277.328 725.175 C 249.301 754.729 241.447 785.581 248.027 825.414 z M 146.269 761.849 C 137.47 761.988 128.856 762.196 120.058 761.86 C 124.446 776.403 143.745 806.631 157.35 815.158 C 159.955 816.79 166.192 817.257 169.327 817.243 C 161.206 802.594 149.446 778.398 146.269 761.849 z M 1912.15 761.995 C 1918.35 756.517 1920.68 753.843 1925.9 747.598 C 1932.86 738.41 1946.46 715.813 1936.59 705.068 C 1931.94 702.914 1915.34 703.847 1909.36 703.952 C 1910.44 721.658 1912.33 744.587 1912.15 761.995 z M 1085.76 443.776 C 1113.48 444.109 1243.7 454.29 1260.68 471.955 C 1261.86 473.161 1262.96 474.444 1263.97 475.796 C 1264.94 500.761 1236.11 575.092 1238.15 587.491 L 1237.82 586.55 L 1238.57 587.42 C 1241.52 585.864 1244.85 577.541 1245.68 574.248 C 1252.85 545.856 1261.15 515.32 1268.31 487.171 C 1272.33 471.396 1251.46 460.419 1239.46 458.66 C 1218.86 453.967 1197.78 450.794 1176.84 448.043 C 1123.89 440.903 1070.53 437.252 1017.11 437.113 C 1008.02 437.065 985.416 436.535 976.717 437.436 C 954.896 439.442 922.57 441.34 904.619 454.444 L 904.239 455.631 L 907.573 456.371 L 907.556 457.813 C 899.471 465.188 890.766 472.414 882.263 479.332 C 841.776 512.27 802.615 547.091 761.32 579.026 L 776.431 578.815 C 797.102 556.526 906.692 459.999 929.716 449.767 C 945.152 442.906 965.755 441.843 982.487 441.235 C 1007.71 440.319 1033.09 441.084 1058.3 442.264 C 1067.39 442.69 1076.77 442.458 1085.76 443.776 z M 1350.08 440.513 L 1356.26 448.879 C 1429.38 469.44 1502.27 490.82 1574.91 513.015 L 1661.09 539.93 C 1670.3 542.712 1686.76 548.42 1695.67 550.234 C 1669.13 532.332 1652.75 529.773 1622.03 521.182 C 1603.37 516.065 1584.8 510.651 1566.31 504.943 C 1546.78 498.806 1527.53 491.511 1507.96 485.209 C 1466.46 472.038 1424.6 460.055 1382.42 449.276 C 1372.14 446.623 1360.06 442.851 1350.08 440.513 z M 90.0269 636.789 C 100.944 637.07 131.894 641.226 137.902 640.733 L 138.625 639.946 C 179.06 604.425 268.94 602.196 321.922 598.954 C 372.92 595.757 423.963 593.307 475.033 591.605 L 643.998 586.051 C 672.583 585.26 704.707 583.69 733.055 583.983 C 717.489 577.627 697.372 567.127 681.335 568.5 C 665.177 569.728 647.46 569.221 630.98 569.851 C 533.719 572.75 436.526 577.606 339.46 584.418 C 273.573 589.312 205.782 595.573 141.335 611.456 C 126.832 615.03 100.851 627.039 90.0269 636.789 z M 1366.41 798.662 C 1365.23 805.868 1357.25 841.707 1357.4 845.129 C 1360.97 844.753 1362.64 845.191 1365.18 843.306 C 1365.21 839.939 1366.49 798.899 1366.41 798.662 z M 733.696 573.385 C 746.888 559.877 765.854 544.622 780.538 532.482 L 848.982 476.334 C 855.963 470.623 888.205 446.02 889.148 438.988 C 886.804 434.093 876.849 428.457 871.783 427.77 C 853.15 438.892 835.362 453.985 818.205 467.328 C 792.955 486.964 767.282 506.533 742.974 527.324 C 730.176 538.271 714.37 549.196 702.506 560.504 L 725.7 570.124 L 733.696 573.385 z M 1865.81 810.086 C 1873.63 805.386 1900.16 788.066 1899.78 779.013 C 1895.68 782.526 1866.55 807.405 1865.59 809.139 L 1865.81 810.086 z M 1288.67 765.55 C 1294.65 757.2 1321.09 675.189 1309.24 669.687 C 1291.52 661.464 1254.33 665.298 1233.61 663.441 C 1226.3 697.942 1221.16 735.307 1213.17 769.195 C 1226.24 768.817 1279.9 769.194 1288.67 765.55 z"/>
<path transform="translate(0,0)" fill="currentColor" d="M 1508.39 728.553 C 1559.36 727.732 1601.42 768.227 1602.53 819.189 C 1603.64 870.151 1563.39 912.444 1512.43 913.847 C 1461.07 915.262 1418.36 874.609 1417.23 823.234 C 1416.11 771.859 1457.01 729.381 1508.39 728.553 z M 1514.43 903.765 C 1559.61 901.274 1594.32 862.791 1592.15 817.591 C 1589.98 772.391 1551.74 737.41 1506.53 739.26 C 1460.86 741.128 1425.45 779.834 1427.64 825.49 C 1429.83 871.146 1468.79 906.281 1514.43 903.765 z"/>
<path transform="translate(0,0)" fill="currentColor" d="M 1502.35 760.633 C 1535.61 756.697 1565.81 780.327 1569.99 813.552 C 1574.17 846.777 1550.76 877.152 1517.57 881.576 C 1484.03 886.046 1453.27 862.341 1449.05 828.77 C 1444.82 795.198 1468.75 764.611 1502.35 760.633 z M 1517.45 870.094 C 1544.59 866.145 1563.51 841.129 1559.93 813.944 C 1556.36 786.759 1531.6 767.494 1504.37 770.701 C 1486.42 772.815 1471 784.427 1464.01 801.092 C 1457.01 817.758 1459.53 836.897 1470.6 851.185 C 1481.67 865.473 1499.57 872.698 1517.45 870.094 z"/>
<path transform="translate(0,0)" fill="currentColor" d="M 388.525 735.06 C 439.445 731.927 483.296 770.596 486.557 821.508 C 489.818 872.42 451.26 916.368 400.357 919.758 C 349.271 923.16 305.132 884.433 301.859 833.339 C 298.586 782.245 337.423 738.204 388.525 735.06 z M 399.461 909.533 C 445.07 906.564 479.578 867.09 476.424 821.493 C 473.271 775.897 433.657 741.549 388.074 744.887 C 342.751 748.206 308.642 787.545 311.777 832.881 C 314.913 878.217 354.113 912.485 399.461 909.533 z"/>
<path transform="translate(0,0)" fill="currentColor" d="M 382.701 766.663 C 404.639 762.646 427.042 770.743 441.344 787.856 C 455.646 804.969 459.635 828.454 451.788 849.33 C 443.94 870.206 425.468 885.247 403.434 888.701 C 369.966 893.948 338.498 871.315 332.823 837.917 C 327.149 804.518 349.378 772.763 382.701 766.663 z M 399.443 877.659 C 427.548 874.587 447.916 849.425 445.068 821.296 C 442.219 793.168 417.22 772.6 389.07 775.224 C 360.601 777.878 339.748 803.223 342.629 831.67 C 345.51 860.117 371.02 880.767 399.443 877.659 z"/>
<path transform="translate(0,0)" fill="currentColor" d="M 1332.46 475.777 C 1367.31 482.355 1395.16 490.033 1428.88 501.452 C 1440.02 505.222 1462.96 509.74 1472.03 515.922 C 1477.81 523.768 1474.19 549.227 1468.64 557.355 C 1466.25 560.852 1456.54 560.042 1452.25 559.978 C 1424.99 559.674 1397.73 560.151 1370.5 561.409 C 1353.55 562.191 1336.43 566.087 1319.53 564.953 C 1310.99 564.367 1313.69 548.736 1315.38 543.827 C 1320.17 529.906 1321.59 482.945 1332.46 475.777 z M 1354.28 553.114 C 1357.67 549.705 1365.11 504.249 1365.73 496.815 C 1363.24 495.234 1362.95 495.112 1360.15 494.207 C 1356.11 513.61 1351.89 532.973 1347.48 552.294 C 1350.52 553.155 1351.11 553.148 1354.28 553.114 z M 1340.51 554.174 C 1343.55 551.041 1352.43 501.572 1353.2 494.119 C 1351.04 491.618 1351.45 492.352 1347.74 491.19 C 1346.32 498.197 1335.08 551.563 1335.59 553.37 L 1340.51 554.174 z M 1325.87 555.706 L 1330.05 553.844 C 1331.17 550.747 1333.56 532.765 1334.2 528.546 C 1336.25 515.713 1338.49 502.909 1340.91 490.14 C 1339.48 488.811 1339.62 488.833 1337.74 488.367 C 1334.89 497.421 1322.75 546.701 1323.31 553.923 C 1324.73 555.32 1324.1 554.99 1325.87 555.706 z M 1383.74 552.082 C 1384.92 543.553 1392.57 506.32 1392.48 502.8 C 1389.57 501.448 1388.9 501.269 1385.74 500.653 C 1383.45 516.936 1378.68 534.817 1375.52 551.239 C 1379.06 552.193 1380.04 552.117 1383.74 552.082 z M 1369.34 551.555 C 1371.27 541.661 1379.69 507.566 1379.41 500.209 C 1376.8 498.339 1375.83 498.371 1372.59 497.68 C 1370.17 510.755 1364.19 538.63 1363.29 551.112 C 1365.25 552.212 1367.09 552.322 1369.34 551.555 z M 1463.13 522.664 C 1460.59 527.818 1457.4 544.681 1456.4 550.914 L 1457.48 552.761 C 1459.27 552.463 1462.15 552.563 1463.07 550.895 C 1465.77 545.992 1467.47 526.413 1463.13 522.664 z M 1448.82 519.728 C 1446.57 531.776 1444.63 539.871 1441.93 551.395 C 1444.29 552.443 1448.02 552.093 1450.75 552.061 C 1451.74 546.865 1456.48 525.057 1455.07 521.969 L 1448.82 519.728 z M 1436.21 515.662 C 1434.4 524.976 1430.68 542.261 1430.18 551.096 C 1432.74 552.408 1434.51 552.075 1437.44 552.011 C 1439.34 540.908 1441.33 529.819 1443.41 518.747 C 1440.37 516.896 1439.65 516.751 1436.21 515.662 z M 1411.23 507.379 C 1410.11 512.978 1402.23 548.934 1403.59 551.637 C 1405.46 551.899 1407.25 552.162 1409.13 552.356 C 1411.1 542.554 1416.38 519.264 1416.9 510.311 C 1414.5 508.406 1414.19 508.39 1411.23 507.379 z M 1423.31 511.677 C 1422.34 516.495 1415.77 548.135 1416.46 551.717 C 1418.82 551.818 1421.02 551.982 1423.38 551.788 C 1425.2 539.448 1427.92 526.943 1430.43 514.699 C 1427.56 512.809 1426.64 512.637 1423.31 511.677 z M 1398.85 503.372 L 1389.58 551.206 C 1392.62 552.041 1393.59 552.281 1396.72 552.504 C 1398.15 545.511 1405.69 510.525 1403.6 505.649 L 1398.85 503.372 z"/>
<path transform="translate(0,0)" fill="currentColor" d="M 1154.04 605.275 C 1166.61 604.597 1221.91 600.766 1227.04 613.199 C 1227.23 622.813 1215.5 626.652 1208.11 628.808 C 1205.36 629.122 1205.07 629.038 1202.31 628.584 C 1202.48 626.622 1207.86 621.588 1209.77 619.371 C 1201.27 610.179 1150.64 618.827 1143.94 612.416 L 1144.39 610.583 C 1148.37 607.378 1149.35 607.089 1154.04 605.275 z"/>
<path transform="translate(0,0)" fill="currentColor" d="M 1195.51 630.286 C 1202.39 630.023 1216.72 633.603 1214.74 642.323 C 1212.22 644.619 1211.52 644.648 1208.14 645.364 C 1199.29 645.443 1194.92 645.591 1187.68 639.674 C 1186.4 636.37 1186.4 637.811 1187.73 634.607 C 1190.9 631.901 1191.56 631.706 1195.51 630.286 z"/>
<path transform="translate(0,0)" fill="currentColor" fill-opacity="0.0196078" d="M 1725.56 833.01 C 1757.64 830.732 1793.02 830.763 1824.53 826.118 C 1806.97 835.607 1748.4 834.732 1725.9 834.251 L 1725.56 833.01 z"/>
<path transform="translate(0,0)" fill="currentColor" fill-opacity="0.0313725" d="M 1899.78 779.013 C 1900.16 788.066 1873.63 805.386 1865.81 810.086 L 1865.59 809.139 C 1866.55 807.405 1895.68 782.526 1899.78 779.013 z"/>
<path transform="translate(0,0)" fill="currentColor" fill-opacity="0.258824" d="M 371.707 682.629 C 397.02 678.09 422.461 682.67 446.649 690.481 L 445.135 691.821 C 417.111 682.64 401.446 681.354 372.261 684.259 L 371.707 682.629 z"/>
<path transform="translate(0,0)" fill="currentColor" fill-opacity="0.27451" d="M 1683.42 833.262 C 1696.97 833.119 1712.14 832.624 1725.56 833.01 L 1725.9 834.251 L 1711.02 834.786 C 1701.6 833.612 1694.67 833.983 1685.23 834.256 L 1683.42 833.262 z"/>
<path transform="translate(0,0)" fill="currentColor" fill-opacity="0.0862745" d="M 1685.23 834.256 C 1694.67 833.983 1701.6 833.612 1711.02 834.786 C 1700.36 835.512 1691.23 836.04 1680.56 836.042 L 1685.23 834.256 z"/>
</svg>
