<svg xmlns="http://www.w3.org/2000/svg" version="1.1" style="display: block;" viewBox="0 0 2048 1365">
<path transform="translate(0,0)" fill="currentColor" fill-opacity="0.921569" d="M 136.853 730.568 C 140.504 727.109 152.158 716.476 153.778 713.115 C 165.103 689.623 153.036 683.316 176.345 664.139 C 261.403 594.162 397.948 580.952 503.593 565.111 C 528.948 561.31 565.25 559.959 588.357 554.612 C 594.408 553.212 637.527 527.002 645.072 522.682 C 680.647 502.291 716.707 482.758 753.221 464.1 C 819.07 430.968 889.823 400.181 962.681 388.109 C 1068.9 370.509 1181.97 368.815 1289.35 371.699 C 1426 374.532 1562.22 388.046 1696.76 412.118 C 1707.4 413.927 1719.19 416.169 1729.75 417.77 C 1773.84 424.458 1747.72 433.443 1741.63 456.581 C 1763.71 481.065 1855.85 562.535 1864.24 582.665 C 1869.07 594.256 1867.51 611.592 1866.89 623.957 C 1866.22 637.135 1858.98 677.532 1860.65 685.951 C 1861.09 688.15 1862.52 690.045 1863.99 691.674 C 1872.31 700.847 1885.82 706.232 1895.55 714.025 C 1903.89 736.744 1898.27 753.641 1899.95 776.015 C 1902.42 808.942 1916.18 807.557 1893.38 834.539 C 1897.52 844.337 1899.58 859.869 1890.73 867.659 C 1879.85 871.225 1871.29 869.974 1860.31 871.261 C 1813.14 876.792 1759.72 883.928 1712.6 885.181 C 1699.05 921.361 1675.23 949.491 1639.76 966.084 C 1637.98 966.918 1633.48 968.44 1632.89 969.69 L 1637.84 970.145 L 1639.32 972.145 C 1654.91 973.288 1672.55 971.956 1688.4 972.023 C 1741.04 972.244 1793.71 971.004 1846.29 974.423 C 1847.47 974.5 1847.94 970.072 1854.34 974.029 L 1854.73 976.133 C 1847.87 982.245 1789.64 975.17 1778.57 979.885 C 1756.03 980.74 1729.09 979.886 1706.02 979.872 L 1542.5 979.04 L 1200.23 978.859 L 711.413 978.294 L 535.924 978.137 C 505.825 978.102 473.559 978.735 443.663 977.911 C 433.349 973.952 379.743 975.487 365.658 975.494 L 235 975.845 C 226.426 975.92 202.13 977.797 195.643 975.314 L 195.389 973.722 L 197.918 971.321 L 197.025 969.868 C 205.798 966.769 419.672 967.382 438.279 968.929 C 397.199 959.587 360.504 935.346 340.854 897.214 C 306.905 897.166 162.617 894.361 141.412 873.299 C 139.613 871.512 138.097 869.06 138.29 866.437 C 138.525 863.243 140.365 860.666 142.848 858.768 C 144.428 857.56 146.091 856.459 147.749 855.363 C 147.75 848.86 148.371 819.132 146.567 815.167 C 134.402 788.429 128.13 761.395 136.853 730.568 z M 1005.61 627.565 L 768.411 639.553 C 729.275 641.497 688.564 644.11 649.508 645.338 C 644.176 686.25 646.922 731.181 651.508 772.122 C 653.029 785.7 655.85 798.8 657.739 812.127 L 662.511 836.183 C 811.866 834.224 960.897 826.977 1109.79 823.992 C 1108.35 753.764 1106.03 693.811 1116.47 623.941 L 1115.95 623.533 C 1112.07 623.772 1108.23 623.177 1105.88 626.556 C 1099.17 636.184 1093.05 638.867 1081.41 639.691 C 1069.2 640.556 1056.01 640.579 1043.71 641.153 C 1032.04 641.428 1008.2 647.427 1006.11 630.018 C 1006.03 629.361 1005.74 628.248 1005.61 627.565 z M 1139.07 573.94 C 1135.49 586.995 1132.05 600.09 1128.75 613.222 C 1180.94 610.681 1233.15 608.526 1285.38 606.759 C 1322.73 605.145 1360.1 603.814 1397.47 602.767 C 1407.93 593.146 1415.88 593.192 1433.66 592.565 C 1444.6 592.179 1523.67 586.366 1490.54 618.496 C 1481.54 627.223 1446.82 622.855 1434.37 624.821 C 1417.6 625.937 1400.48 630.708 1393.89 612.742 L 1297.92 616.174 C 1243.52 618.189 1179.74 619.192 1125.95 622.952 C 1114.53 686.61 1117.79 759.27 1119.23 823.999 C 1194.82 819.929 1271.13 819.521 1346.8 816.578 C 1359.39 816.089 1372.4 815.765 1384.99 815.793 C 1415.32 770.998 1443.77 725.474 1474.79 681.033 C 1501.11 643.332 1525.77 601.53 1547.67 561.139 L 1530.11 561.53 L 1266.49 569.579 C 1225.02 570.957 1180.05 573.584 1139.07 573.94 z M 502.002 968.19 L 502.754 970.079 C 511.669 971.29 541.351 970.519 551.98 970.499 L 651.868 970.453 L 832.5 970.518 C 848.005 970.598 954.974 972.979 964.672 969.077 C 984.611 968.279 1007.96 968.87 1028.08 968.903 L 1140.74 969.026 L 1510.58 969.508 C 1506.09 970.548 1502.5 970.411 1497.93 970.453 C 1456.34 970.831 1414.65 969.778 1373.07 970.311 C 1374.96 972.656 1394.14 971.347 1398.48 971.354 L 1457.65 971.565 C 1471.43 971.677 1486.07 974.084 1499.67 972.542 C 1501.55 972.328 1503.14 972.433 1505.01 972.508 L 1504.58 971.49 C 1509.52 971.576 1515.82 972.212 1520.07 970.101 C 1514.97 966.604 1503.76 962.276 1496.97 957.883 C 1471.42 941.333 1455.65 921.152 1443.06 894.064 C 1350.88 895.332 1256.54 894.217 1164.14 894.456 L 593.184 895.942 C 574.556 933.257 540.638 955.74 502.002 968.19 z M 888.253 416.879 C 894.806 421.159 906.451 429.948 912.886 432.142 C 953.43 420.852 986.51 412.454 1029.23 408.399 C 1162.19 395.781 1299.04 396.588 1431.77 412.022 C 1454.2 414.785 1495.56 417.93 1514.47 428.959 C 1533.07 439.814 1568.75 490.416 1575.86 509.121 C 1582.94 527.763 1538.12 598.593 1527.69 616.023 C 1522.82 624.227 1517.86 632.37 1512.8 640.452 C 1503.22 655.803 1486.41 683.33 1475.27 697.052 C 1535.22 650.932 1624.97 657.731 1686.1 698.163 C 1704.56 667.094 1722.5 636.964 1739.12 604.822 C 1747.98 587.693 1756.19 573.387 1763.58 555.213 C 1737.64 521.788 1704.1 490.12 1674.83 459.452 C 1661.07 445.036 1642.57 427.529 1631.17 411.478 C 1519.9 394.332 1407.62 384.497 1295.06 382.038 C 1258.86 381.037 1202.74 379.559 1166.75 381.542 C 1066.27 383.881 984.661 387.802 888.253 416.879 z M 481.442 961.733 C 555.617 953.593 609.128 886.831 600.924 812.663 C 592.72 738.494 525.911 685.041 451.75 693.31 C 377.68 701.568 324.307 768.277 332.501 842.354 C 340.695 916.432 407.357 969.863 481.442 961.733 z M 1590.59 971.566 C 1664.92 963.674 1718.65 896.814 1710.35 822.522 C 1702.06 748.23 1634.91 694.865 1560.66 703.562 C 1486.99 712.192 1434.12 778.718 1442.35 852.443 C 1450.58 926.168 1516.82 979.397 1590.59 971.566 z M 747.49 516.761 L 743.72 529.765 C 761.067 526.47 789.568 524.793 790.131 550.027 C 791.038 562.011 792.641 568.181 789.428 579.622 C 818.121 579.372 850.863 577.029 879.807 575.732 L 1101.22 565.249 C 1114.95 513.585 1132.53 462.21 1147.22 410.887 C 1141.05 411.096 1134.38 411.184 1128.26 411.548 C 1078.38 413.547 1025.72 416.512 976.507 426.035 C 895.497 441.711 819.746 478.15 747.49 516.761 z M 1164.21 562.966 L 1413.64 554.936 L 1425.47 554.507 L 1447.56 423.445 C 1413.78 420.404 1381.71 416.202 1347.54 413.869 C 1295.87 410.753 1244.09 409.48 1192.32 410.053 C 1181.97 460.669 1174.51 513.099 1164.21 562.966 z M 261.912 667.418 C 277.72 665.221 294.369 663.601 310.367 664.168 C 335.982 665.076 354.226 654.583 377.003 671.893 C 378.694 673.185 380.365 674.504 382.016 675.848 C 422.099 654.704 468.542 648.984 512.557 659.772 C 559.357 673.249 591.425 696.099 616.355 739.09 C 635.073 771.367 642.023 822.147 638.107 858.887 L 658.412 858.787 C 641.673 798.456 635.75 732.521 637.47 670.126 C 638.191 643.989 645.738 622.617 655.34 598.705 C 642.242 599.783 601.175 604.141 627.161 575.898 C 635.977 566.316 662.64 551.645 674.549 544.342 C 714.397 519.577 755.273 496.507 797.069 475.194 C 827.854 459.777 860.796 445.502 892.295 431.351 C 886.904 427.959 881.539 424.528 876.2 421.055 C 778.762 457.353 689.038 508.006 599.681 560.689 C 580.125 572.219 562.718 599.717 537.863 608.032 C 505.77 618.768 471.347 618.786 438.099 624.441 C 370.387 633.474 325.821 642.071 261.912 667.418 z M 178.226 711.031 C 234.703 733.415 266.29 714.991 307.187 675.937 L 307.133 674.093 L 307.76 675.298 L 308.157 673.448 L 306.556 673.501 C 287.028 674.29 266.296 676.47 246.615 678.066 C 221.775 680.08 196.196 680.784 171.554 682.764 C 169.714 690.872 168.007 699.009 166.433 707.172 C 170.224 708.311 174.64 709.48 178.226 711.031 z M 1681.8 706.674 C 1651.53 686.077 1605.05 670.061 1568.57 674.423 C 1533.21 677.482 1504.35 686.142 1474.97 708.27 C 1421.16 748.804 1405.06 851.993 1327.77 859.197 C 1301.16 861.678 1269.2 861.018 1242.43 861.182 L 1117.77 862.643 L 637.269 868.509 C 636.714 874.446 636.08 880.374 635.365 886.293 L 789.705 886.302 L 1439.77 884.719 C 1427.7 846.383 1429.37 807.496 1448.06 771.459 C 1465.35 737.794 1495.45 712.498 1531.59 701.268 C 1569.49 689.385 1610.55 692.975 1645.82 711.252 C 1654.36 715.738 1663.84 721.955 1671.08 728.325 C 1674.57 721.066 1678.14 713.849 1681.8 706.674 z M 1678.01 734.585 C 1717.14 774.554 1727.23 821.907 1715.85 875.859 L 1724.27 874.98 L 1740.98 874.099 C 1741.99 817.777 1742.77 768.419 1701.07 723.724 C 1697.62 720.023 1693.18 715.82 1689.19 712.78 C 1685.55 719.987 1681.89 727.534 1678.01 734.585 z M 1119.88 833.274 C 1120.05 839.523 1120.07 846.852 1120.57 852.998 L 1136.51 852.735 C 1183.55 852.356 1230.59 851.642 1277.63 850.591 C 1321.82 849.677 1341.04 856.39 1376.57 825.062 C 1372.71 825.111 1364.04 824.983 1360.58 825.435 C 1282.34 828.618 1198.05 832.115 1119.88 833.274 z M 1688.27 459.39 C 1706.93 477.681 1725.06 496.515 1742.62 515.866 C 1750.97 525.083 1758.91 534.878 1767.4 543.933 C 1768.28 544.873 1771.94 544.731 1773.25 544.701 L 1776.41 544.612 L 1777.06 544.592 C 1791.04 544.958 1805.02 545.529 1818.98 546.307 C 1801.31 529.509 1783.73 512.621 1766.23 495.643 C 1756.36 486.087 1746.17 476.89 1737.37 466.323 C 1727.94 455.007 1734.96 451.452 1736.32 442.598 L 1735.69 442.141 C 1720.86 447.679 1703.15 454.73 1688.27 459.39 z M 157.421 852.29 C 162.595 851.717 168.144 850.97 173.313 850.956 C 170.488 846.44 158.827 827.182 155.902 824.616 C 157.366 833.141 157.248 843.472 157.421 852.29 z M 149.147 773.828 C 159.48 775.117 181.379 776.619 189.643 780.515 C 205.662 788.065 220.283 826.225 223.745 842.192 L 224.529 853.563 C 232.045 853.895 241.209 855.034 247.904 851.799 C 256.77 840.475 223.917 775.458 210.527 766.51 C 203.157 761.584 200.855 761.773 192.731 762.241 C 176.548 765.206 164.828 768.711 149.147 773.828 z M 215.093 850.917 C 212.531 833.629 201.556 803.535 188.24 791.361 C 181.838 785.508 155.116 784.852 145.041 783.156 C 151.702 805.245 153.619 804.06 167.275 823.102 C 171.724 829.305 180.897 844.835 185.244 851.883 C 195.199 851.777 205.151 851.455 215.093 850.917 z M 631.748 590.4 C 652.637 589.081 673.121 587.135 694.072 586.81 C 698.357 581.292 700.201 579.243 705.351 574.536 C 696.186 556.074 711.578 542.892 727.075 535.696 L 732.805 533.09 C 733.447 531.06 735.619 524.845 735.633 523.136 C 719.569 531.935 633.102 577.119 629.716 587.913 C 629.595 588.297 629.517 588.693 629.417 589.082 C 630.718 590.515 629.907 590.175 631.748 590.4 z M 1831.7 631.858 C 1838.61 616.556 1838.79 609.392 1857.34 609.146 L 1856.88 586.454 C 1831.77 585.015 1802.41 585.508 1777.1 586.5 L 1759.34 587.079 C 1751.03 603.094 1742.64 619.066 1734.16 634.994 C 1759.5 633.998 1789.21 632.089 1814.25 632.001 L 1831.7 631.858 z M 1680.04 451.363 C 1695.12 446.597 1710.03 441.332 1724.76 435.578 L 1739.71 429.817 C 1709.54 426.129 1675.56 418.013 1644.09 413.642 L 1680.04 451.363 z M 734.75 565.404 C 750.746 565.025 766.098 563.236 781.242 562.828 C 780.338 545.734 778.53 535.038 757.464 537.355 C 737.719 539.464 717.752 545.302 711.413 566.068 L 734.75 565.404 z M 776.384 572.466 C 752.391 574.532 735.09 575.215 711.012 575.12 C 713.886 578.786 717.269 582.885 719.99 586.589 C 728.258 589.062 760.652 589.426 769.431 585.28 C 773.274 583.466 778.851 578.133 780.611 573.546 L 780.063 572.079 C 778.769 572.156 777.62 572.133 776.384 572.466 z M 1728.59 644.813 C 1718.87 661.382 1703.69 688.861 1693.22 703.83 C 1728.03 732.701 1745.19 769.9 1749.38 814.642 C 1751.1 834.141 1751.34 853.742 1750.09 873.277 C 1770.43 872.129 1791.87 872.365 1809.49 861.913 C 1843.57 843.371 1863.49 809.38 1893.59 796.666 C 1891.96 783.537 1889.37 772.025 1889.87 758.662 C 1890.01 754.914 1890.62 750.912 1888.53 748.65 C 1879.06 746.919 1868.85 760.085 1860.31 762.639 L 1858.51 762.067 C 1856.13 745.758 1879.09 740.623 1890.67 739.555 C 1890.13 734.074 1889.66 727.722 1888.88 722.341 L 1888.14 721.543 C 1881.22 714.204 1876.68 718.395 1868.06 715.517 C 1822.57 700.322 1818.31 685.08 1828.92 641.103 L 1814.36 641.548 C 1785.77 642.482 1757.17 643.57 1728.59 644.813 z M 994.751 888.18 C 1001.01 888.139 1010.11 888.347 1016.1 887.56 C 989.197 886.735 960.412 887.357 933.295 887.401 L 799.621 887.372 L 691.37 887.421 C 675.461 887.431 652.164 886.682 636.74 887.5 C 639.319 888.585 692.867 888.935 700.22 888.861 C 754.515 888.323 808.368 887.918 862.509 891.146 C 875.737 891.935 893 888.211 906.139 888.915 C 933.481 890.379 968.235 885.837 994.751 888.18 z M 723.521 607.533 C 728.612 604.183 730.044 602.575 734.295 598.098 C 721.521 597.789 714.431 597.732 706.392 586.661 C 702.169 592.119 692.375 602.435 702.324 608.282 C 706.77 610.895 718.721 609.167 723.521 607.533 z M 311.513 887.821 L 336.14 887.811 C 319.801 852.355 318.415 811.816 332.296 775.327 C 345.457 740.22 372.018 711.776 406.142 696.245 C 432.142 684.504 452.488 683.319 480.25 684.06 C 520.634 689.098 554.86 705.374 580.272 738.07 C 604.056 768.691 614.571 807.57 609.463 846.006 C 607.725 859.933 603.854 873.511 597.987 886.262 L 626.222 886.186 C 632.573 826.965 632.127 770.437 593.326 721.418 C 562.612 682.615 504.589 657.517 455.176 664.402 C 408.591 668.494 372.827 685.01 342.434 721.125 C 299.189 772.512 301.264 825.781 311.513 887.821 z M 1773.91 554.147 C 1771.34 562.408 1768.01 569.428 1764.47 577.299 C 1790.17 576.577 1814.53 575.789 1840.25 575.869 C 1842.58 575.819 1845.3 576.178 1846.93 575.06 C 1840.73 568.391 1834.37 561.866 1827.87 555.49 C 1810.9 555.79 1791.07 554.761 1773.91 554.147 z M 1832.97 681.816 C 1839.2 690.844 1845.05 693.326 1854.43 699.196 L 1858.85 701.563 C 1858.64 700.344 1858.87 700.463 1857.82 699.694 C 1840.28 686.763 1863.19 632.159 1856.35 619.567 C 1852.99 618.872 1852.16 618.992 1848.71 619.262 C 1837.27 641.725 1834.01 656.4 1832.97 681.816 z M 162.967 715.927 C 158.846 723.314 153.706 727.892 148.233 734.122 C 141.63 741.64 143.141 756.396 143.095 766.13 C 208.134 742.287 220.072 745.291 249.191 811.108 C 265.346 847.621 269.362 867.323 220.21 863.178 C 198.676 862.1 164.03 857.162 146.832 867.037 C 183.095 882.341 260.944 886.15 302.123 887.28 C 291.53 829.873 291.377 777.501 325.665 727.734 C 337.305 710.841 356.227 691.785 373.876 681.142 C 356.634 670.58 354.315 670.731 333.698 672.391 C 329.464 672.919 324.791 673.37 320.691 674.346 C 306.133 694.032 267.409 725.67 242.159 728.445 C 209.196 732.068 192.596 727.567 162.967 715.927 z M 1871.59 861.1 C 1886.81 861.458 1890.06 857.817 1886.52 841.709 C 1883.7 844.609 1871.75 858.134 1871.59 861.1 z M 1073.89 619.48 C 1062.69 619.703 1017.83 617.603 1014.13 629.064 C 1018.58 634.283 1031.76 632.457 1038.24 631.867 C 1052 630.854 1085.33 631.798 1094.93 625.598 L 1095.71 623.967 C 1091.91 619.984 1087.01 619.663 1081.85 619.545 C 1079.2 619.491 1076.55 619.469 1073.89 619.48 z M 1434.02 602.423 C 1425.85 602.856 1406.5 602.074 1404.31 612.247 C 1410.75 619.296 1444.77 614.291 1455.75 614.061 C 1462.9 614.119 1486.14 616.687 1487.08 606.73 C 1481.29 599.814 1444.24 601.768 1434.02 602.423 z M 1894.12 806.784 C 1874.35 818.488 1865.28 829.419 1848.41 845.002 C 1840.16 852.615 1831.35 858.746 1822.61 865.613 L 1825.09 865.969 C 1864.01 862.65 1860.2 857.917 1884.73 828.489 C 1889.86 822.338 1895.36 818.234 1897.16 809.952 L 1896.33 807.698 L 1894.12 806.784 z M 1119.07 613.725 C 1121.64 603.379 1127.24 584.336 1128.67 574.674 C 1126.06 573.905 1121.33 574.407 1118.43 574.55 C 1034.91 577.511 951.178 583.532 867.568 586.258 C 839.332 587.179 809.942 589.484 781.852 590.033 C 768.795 598.584 761.204 598.058 745.725 598.102 C 739.027 609.312 733.318 615.055 720.401 618.759 C 705.125 623.14 684.081 616.772 687.315 597.401 C 682.129 596.217 671.765 597.5 666.06 597.948 C 661.743 608.881 657.437 619.615 653.644 630.755 L 652.661 634.557 C 655.988 637.326 668.351 634.773 673.028 634.618 C 697.54 633.808 722.056 632.327 746.545 630.977 L 959.752 620.291 C 975.856 619.442 992.346 618.697 1008.45 617.517 C 1012.33 617.232 1019.52 612.581 1024.07 612.024 C 1039.43 610.138 1055.79 610.176 1071.27 609.61 C 1081.54 609.234 1092.12 609.294 1100.99 614.687 L 1119.07 613.725 z M 1157.68 410.525 C 1141.64 461.824 1126.18 513.303 1111.3 564.951 C 1119.11 564.624 1126.93 564.344 1134.75 564.11 L 1154.61 563.714 C 1162.01 514.54 1172.78 458.916 1182.58 410.129 C 1175.43 410.271 1164.54 410.829 1157.68 410.525 z M 1109.89 833.613 C 961.49 838.699 813.059 842.866 664.607 846.115 L 667.906 858.822 C 684.858 858.33 701.807 858.257 718.765 858.258 C 849.402 858.262 980.521 853.013 1111.11 853.017 C 1111 849.384 1111.04 836.001 1109.89 833.613 z M 576.886 567.555 C 470.183 577.194 263.298 599.46 182.797 670.834 C 183.178 671.965 182.965 671.747 183.301 671.968 C 197.522 671.407 211.734 670.619 225.93 669.604 C 246.325 668.176 259.554 657.724 279.77 650.133 C 300.648 642.189 322.034 635.649 343.784 630.558 C 404.162 616.472 466.75 612.628 527.518 601.65 C 538.126 599.733 570.846 576.095 577.488 567.941 L 576.886 567.555 z M 1456.62 424.803 C 1449.73 468.072 1442.53 511.292 1435.04 554.461 C 1468.53 552.981 1507.14 551.735 1540.75 551.884 L 1552.76 551.78 C 1577.12 505.346 1567.34 510.844 1540.6 470.768 C 1514.71 431.954 1499.4 430.799 1456.62 424.803 z"/>
<path transform="translate(0,0)" fill="currentColor" fill-opacity="0.937255" d="M 458.442 722.72 C 516.631 718.175 567.583 761.438 572.532 819.594 C 577.481 877.75 534.571 929.001 476.451 934.352 C 417.758 939.756 365.892 896.331 360.895 837.603 C 355.898 778.875 399.681 727.311 458.442 722.72 z M 475.458 925.329 C 528.599 920.532 567.911 873.75 563.484 820.577 C 559.057 767.403 512.55 727.766 459.347 731.824 C 405.618 735.921 365.503 782.989 369.974 836.688 C 374.445 890.387 421.791 930.173 475.458 925.329 z"/>
<path transform="translate(0,0)" fill="currentColor" fill-opacity="0.937255" d="M 1562.98 733.823 C 1620.77 726.698 1673.43 767.671 1680.73 825.438 C 1688.02 883.206 1647.21 935.989 1589.47 943.462 C 1531.47 950.967 1478.42 909.94 1471.09 851.926 C 1463.76 793.913 1504.94 740.978 1562.98 733.823 z M 1586.47 934.681 C 1639.56 928.822 1677.81 880.964 1671.82 827.883 C 1665.83 774.802 1617.88 736.673 1564.81 742.796 C 1511.93 748.898 1473.97 796.645 1479.94 849.54 C 1485.91 902.434 1533.56 940.519 1586.47 934.681 z"/>
<path transform="translate(0,0)" fill="currentColor" fill-opacity="0.933333" d="M 1847.29 795.444 C 1850.71 795.044 1850.9 794.947 1854.13 795.915 C 1856.95 798.53 1856.38 797.291 1857.16 800.702 L 1855.95 802.541 C 1850.45 805.653 1771.05 809.387 1758.75 810.176 C 1755.63 810.57 1755.05 810.496 1751.94 810.011 L 1750.39 807.746 C 1750.27 804.16 1749.8 805.238 1751.52 802.63 C 1758.69 799.56 1833.91 796.235 1847.29 795.444 z"/>
<path transform="translate(0,0)" fill="currentColor" fill-opacity="0.933333" d="M 502.002 968.19 L 804.581 968.648 L 909.328 968.801 C 926.543 968.82 948.021 968.194 964.672 969.077 C 954.974 972.979 848.005 970.598 832.5 970.518 L 651.868 970.453 L 551.98 970.499 C 541.351 970.519 511.669 971.29 502.754 970.079 L 502.002 968.19 z"/>
<path transform="translate(0,0)" fill="currentColor" fill-opacity="0.968627" d="M 636.74 887.5 C 652.164 886.682 675.461 887.431 691.37 887.421 L 799.621 887.372 L 933.295 887.401 C 960.412 887.357 989.197 886.735 1016.1 887.56 C 1010.11 888.347 1001.01 888.139 994.751 888.18 C 968.235 885.837 933.481 890.379 906.139 888.915 C 893 888.211 875.737 891.935 862.509 891.146 C 808.368 887.918 754.515 888.323 700.22 888.861 C 692.867 888.935 639.319 888.585 636.74 887.5 z"/>
<path transform="translate(0,0)" fill="currentColor" fill-opacity="0.964706" d="M 1510.58 969.508 C 1514.11 969.504 1516.59 969.339 1520.07 970.101 C 1515.82 972.212 1509.52 971.576 1504.58 971.49 L 1505.01 972.508 C 1503.14 972.433 1501.55 972.328 1499.67 972.542 C 1486.07 974.084 1471.43 971.677 1457.65 971.565 L 1398.48 971.354 C 1394.14 971.347 1374.96 972.656 1373.07 970.311 C 1414.65 969.778 1456.34 970.831 1497.93 970.453 C 1502.5 970.411 1506.09 970.548 1510.58 969.508 z"/>
<path transform="translate(0,0)" fill="currentColor" fill-opacity="0.933333" d="M 443.663 977.911 C 421.828 978.572 198.635 979.232 195.605 977.616 C 193.705 976.603 193.694 975.984 193.017 974.062 C 194.506 970.779 193.661 971.915 197.025 969.868 L 197.918 971.321 L 195.389 973.722 L 195.643 975.314 C 202.13 977.797 226.426 975.92 235 975.845 L 365.658 975.494 C 379.743 975.487 433.349 973.952 443.663 977.911 z"/>
<path transform="translate(0,0)" fill="currentColor" fill-opacity="0.952941" d="M 1637.84 970.145 C 1649.04 970.03 1660.23 970.153 1671.44 970.196 C 1730.91 970.421 1790.39 970.485 1849.86 970.298 C 1851.79 970.292 1853.72 970.922 1855.48 971.641 C 1857.69 974.032 1857.15 972.796 1857.22 976.381 C 1853.76 981.998 1845.09 980.68 1838.91 980.628 C 1818.87 980.461 1798.59 980.144 1778.57 979.885 C 1789.64 975.17 1847.87 982.245 1854.73 976.133 L 1854.34 974.029 C 1847.94 970.072 1847.47 974.5 1846.29 974.423 C 1793.71 971.004 1741.04 972.244 1688.4 972.023 C 1672.55 971.956 1654.91 973.288 1639.32 972.145 L 1637.84 970.145 z"/>
</svg>
