<svg version="1.1" xmlns="http://www.w3.org/2000/svg" style="display: block;" viewBox="0 0 2048 1365">
<path transform="translate(0,0)" fill="currentColor" d="M 1147.41 382.492 C 1284.74 380.829 1422.09 382.562 1559.33 387.691 C 1598.24 388.884 1637.14 390.567 1676.02 392.739 C 1704.6 394.413 1734.4 396.931 1762.68 401.679 C 1768.72 402.694 1776.03 404.703 1779.59 410.022 C 1781.45 422.419 1756.32 432.016 1746.53 436.789 C 1765.43 467.17 1783.22 503.119 1800.66 534.71 C 1807.44 546.99 1824.1 578.63 1828.25 590.888 C 1833.44 606.215 1831.33 639.876 1832.51 656.979 L 1839.72 763.805 C 1841.54 788.048 1845.31 813.014 1844.02 837.253 C 1841.21 889.852 1825.13 889.95 1780.38 895.499 C 1757.85 898.278 1735.26 900.608 1712.63 902.487 C 1677.01 905.782 1633.08 912.725 1597.65 909.199 C 1585.75 935.742 1567.43 956.447 1540.82 969.184 C 1513.52 982.13 1482.18 983.629 1453.77 973.346 C 1422.11 961.879 1400.89 939.913 1387.04 910.054 L 940.5 909.798 L 618.919 910.291 C 607.367 935.083 589.328 954.945 564.563 967.198 C 536.673 980.852 504.5 982.861 475.127 972.784 C 442.116 961.257 422.399 939.546 407.545 909.05 C 372.205 909.043 235.69 907.045 213.739 886.668 C 207.679 881.042 213.921 859.705 214.357 851.377 C 214.958 839.894 214.027 827.928 213.772 816.419 L 212.378 746.585 C 211.935 713.185 212.313 670.994 238.967 646.05 C 286.142 601.903 384.096 590.921 446.417 576.913 C 459.804 573.904 484.816 571.641 495.443 568.12 C 511.727 562.724 536.24 548.256 551.84 539.752 C 584.01 521.903 616.424 504.496 649.072 487.536 C 698.281 462.575 758.271 432.051 809.899 414.445 C 871.107 393.571 947.137 388.854 1011.57 385.975 C 1056.82 383.792 1102.11 382.631 1147.41 382.492 z M 1021.93 593.352 C 1016.07 688.536 1009.97 779.297 1006.99 874.888 L 1029.11 874.601 C 1128.62 874.53 1232.59 872.959 1331.8 874.88 C 1333.99 848.498 1340.48 822.651 1351 798.36 C 1365.63 764.6 1387.39 734.79 1401.83 700.253 C 1419.92 656.992 1427.96 627.879 1415.85 581.92 L 1398.49 582.56 C 1273.63 586.454 1146.71 591.142 1021.93 593.352 z M 672.483 603.105 C 657.278 672.788 673.567 802.488 681.762 874.887 L 998.645 874.977 C 998.868 817.206 1002.55 754.644 1006.02 696.788 C 1007.76 667.636 1009.63 622.117 1012.93 594.023 L 997.015 594.541 C 888.857 598.066 780.677 600.921 672.483 603.105 z M 657.367 897.163 L 675.279 897.059 C 672.138 877.745 669.027 847.781 667.048 828.083 C 661.1 768.878 649.651 660.749 662.591 603.68 C 626.041 604.237 589.389 607.366 552.858 608.628 C 547.444 608.114 538.718 610.204 536.258 603.804 C 534.671 599.675 535.017 594.943 537.66 591.72 C 545.829 581.757 560.736 573.455 571.313 566.687 C 615.83 537.635 662.384 511.831 710.612 489.474 C 765.056 463.616 835.012 434.979 894.086 427.115 C 1001.83 412.772 1116.15 415.174 1224.61 415.646 C 1324.51 415.365 1424.39 417.412 1524.19 421.786 C 1571.11 423.901 1666.94 426.046 1707.83 440.585 C 1727.22 432.252 1742.37 424.373 1760.69 414.275 C 1745.05 411.031 1716.52 409.176 1699.96 408.04 C 1660.09 405.523 1620.18 403.628 1580.25 402.356 C 1431.31 396.588 1282.25 394.499 1133.21 396.089 C 1040.65 396.881 934.683 398.235 844.752 418.524 C 799.228 428.795 741.934 456.595 699.61 477.398 C 663.683 494.778 628.172 513.004 593.106 532.061 C 565.356 547.134 535.259 564.946 506.575 577.698 C 489.943 584.042 470.024 585.195 452.859 589.075 C 393.24 602.551 288.95 613.18 245.367 657.465 C 252.199 656.636 271.175 655.114 276.774 653.156 C 286.577 649.728 293.744 644.31 305.341 641.849 C 345.834 633.254 386.765 630.451 427.953 627.479 C 437.146 626.815 448.986 625.395 458.058 626.376 C 460.322 626.625 462.802 628.144 463.739 630.339 C 467.067 638.134 457.237 649.707 453.152 654.695 C 432.883 679.446 396.317 681.702 368.958 694.891 C 368.789 695.006 368.62 695.12 368.451 695.235 C 366.881 696.337 367.546 695.973 365.487 696.261 C 358.325 695.91 348.851 700.665 342.722 700.714 C 330.67 700.81 316.032 701.767 304.333 701.712 C 292.22 701.655 250.217 707.203 241.305 701.639 C 239.094 698.558 239.628 700.012 239.447 696.05 C 242.338 688.675 259.779 672.464 266.206 666.004 C 255.142 666.629 247.654 666.815 236.906 670.006 C 222.401 700.441 224.972 728.224 225.545 761.099 C 225.977 783.947 226.292 806.796 226.489 829.647 C 226.628 845.188 227.382 863.494 223.105 878.379 C 253.825 889.317 267.615 887.14 296.887 892.092 C 294.297 887.616 283.801 870.304 283.592 866.465 C 282.006 837.302 286.136 807.435 286.435 778.13 C 286.51 770.766 285.659 752.506 296.528 755.049 C 307.377 765.218 321.587 847.305 323.383 865.91 C 324.138 873.734 318.852 885.566 315.549 893.1 C 332.749 894.936 352.109 895.343 369.586 895.919 C 368.639 831.264 375.167 792.01 422.834 746.577 L 425.175 744.425 C 432.123 741.077 440.184 735.446 448.012 731.815 C 466.241 723.772 489.084 718.829 509.102 718.885 C 621.767 719.201 655.201 798.052 657.367 897.163 z M 1425.83 581.374 C 1459.46 702.815 1335.19 776.914 1340.76 895.434 C 1340.79 895.989 1341.15 896.438 1341.43 896.863 C 1344.55 896.863 1346.84 897.138 1349.7 895.977 C 1351.67 886.397 1351.33 869.995 1352.7 859.239 C 1358.2 816.019 1369.06 783.766 1401.4 754.208 C 1434.96 728.29 1472.94 720.996 1514.63 726.004 C 1545.91 729.761 1581.91 744.335 1601.62 770.016 L 1688.18 768.492 C 1724.89 767.633 1765.41 766.264 1801.98 766.528 C 1799.23 723.414 1797 676.148 1777 637.226 C 1774.16 631.692 1767.57 619.485 1762.2 615.84 C 1736.5 598.386 1699.72 584.458 1669.41 578.217 C 1661.61 576.613 1647.19 577.221 1639.65 577.466 C 1568.94 579.569 1496.75 580.083 1425.83 581.374 z M 1037.09 430.856 C 1034.37 477.94 1028.6 534.011 1027.78 580.087 C 1126.42 578.665 1226.36 572.83 1325.02 571.629 C 1353.25 570.592 1381.48 569.733 1409.72 569.054 C 1396.85 524.611 1386.42 475.859 1374.36 430.648 C 1285.07 429.145 1195.76 428.753 1106.47 429.473 L 1037.09 430.856 z M 1423.54 568.211 L 1610.02 565.373 C 1631.01 565.085 1651.99 564.951 1672.99 564.861 C 1679.73 564.832 1686.92 556.662 1692.72 555.028 C 1705.23 551.504 1721.9 552.758 1735.1 553.106 L 1750.19 553.209 C 1739.46 522.754 1724.02 484.393 1707.48 456.203 C 1676.56 439.267 1597.71 438.128 1560.44 436.509 C 1503.57 433.931 1446.67 432.101 1389.75 431.019 L 1423.54 568.211 z M 522.466 965.553 C 578.223 960.486 619.377 911.275 614.502 855.501 C 609.626 799.727 560.557 758.403 504.766 763.087 C 448.704 767.794 407.135 817.155 412.034 873.201 C 416.934 929.246 466.437 970.646 522.466 965.553 z M 1501.46 966.287 C 1556.79 961.106 1597.45 912.067 1592.3 856.737 C 1587.14 801.407 1538.12 760.722 1482.79 765.849 C 1427.42 770.98 1386.7 820.04 1391.86 875.409 C 1397.01 930.777 1446.09 971.472 1501.46 966.287 z M 727.678 496.573 C 724.46 509.426 723.243 516.795 722.254 530.084 C 751.897 527.217 761.686 532.77 761.276 564.173 C 760.606 574.92 760.042 578.502 755.176 587.989 C 827.445 587.193 901.749 582.311 973.126 581.811 C 974.986 567.133 992.54 433.251 992.039 432.356 C 988.806 432.156 987.373 432.046 984.173 432.43 C 952.549 434.143 922.035 436.27 890.701 441.526 C 833.706 451.087 780.129 472.871 727.678 496.573 z M 1606.14 775.11 C 1632.61 813.429 1637.87 850.987 1635.38 897.26 L 1662.24 894.81 L 1742.34 886.884 C 1758.29 885.188 1777.36 882.468 1793.12 881.341 C 1804.51 842.955 1802.9 812.327 1802.29 772.662 C 1785.17 773.001 1760.95 772.391 1744.87 773.458 C 1718.05 774.186 1691.21 774.633 1664.37 774.797 C 1645.65 775.006 1624.72 775.654 1606.14 775.11 z M 1808.77 631.766 L 1819.01 633.349 C 1819.18 605.498 1818.75 593.718 1803.55 569.744 C 1785.05 563.1 1724.4 562.556 1703.09 564.246 C 1695.51 565.17 1694.41 565.947 1688.28 570.913 C 1709.83 574.917 1728.71 583.729 1748.28 593.16 C 1768.18 602.745 1776.19 609.013 1786.17 628.677 C 1793.84 629.596 1801.14 630.444 1808.77 631.766 z M 1622.15 897.1 C 1624.29 853.974 1619.74 809.938 1589.46 776.455 C 1562.93 747.117 1519.79 735.297 1481.14 738.407 C 1386.36 746.457 1365.92 816.332 1363.5 897.606 L 1382.62 897.282 C 1375.16 866.596 1377.69 834.86 1394.33 807.37 C 1410.64 780.561 1436.98 761.379 1467.5 754.09 C 1480.35 751.053 1490.91 751.106 1503.96 752.098 C 1575.95 763.064 1618.98 826.04 1601.77 897.06 L 1622.15 897.1 z M 730.599 541.437 C 715.105 542.942 697.407 542.728 686.858 556.036 C 675.796 569.99 680.026 586.582 699.017 589.099 C 709.184 589.075 734.962 590.629 741.61 583.853 C 751.282 573.993 754.281 540.477 732.782 541.322 C 732.053 541.348 731.326 541.386 730.599 541.437 z M 1788.06 554.015 L 1797.58 555.187 C 1790.99 543.362 1736.13 444.789 1733.08 442.992 L 1719.3 449.064 C 1734.66 477.65 1755.26 521.597 1764.95 553.354 C 1772.56 553.493 1780.49 553.511 1788.06 554.015 z M 294.302 862.856 C 296.497 867.204 302.917 880.783 305.757 883.604 L 306.933 882.263 C 308.129 879.653 311.215 873.217 311.203 870.132 C 311.1 842.594 302.321 812.612 297.005 785.581 C 296.964 785.373 296.321 783.912 296.215 783.667 L 294.302 862.856 z M 682.688 881.131 C 683.365 886.032 684.056 892.367 685.008 897.108 L 890.496 897.083 C 925.874 897.08 962.748 896.532 998.025 897.15 L 997.964 881.115 L 682.688 881.131 z M 624.027 897.413 C 630.704 897.636 637.372 897.935 644.05 897.778 C 643.536 851.592 637.222 800.399 602.707 766.13 C 574.764 738.387 534.981 729.512 496.648 733.409 C 425.947 740.309 388.456 790.499 383.494 857.782 C 382.555 870.508 382.639 883.102 382.993 895.849 L 402.746 895.822 C 400.554 883.904 398.546 873.186 399.11 861.061 C 402.505 788.082 462.475 739.221 533.843 751.119 C 565.904 758.287 592.909 775.693 610.58 803.718 C 629.979 834.484 630.412 863.377 624.027 897.413 z M 987.324 581.254 L 1002.55 580.982 L 1013.32 580.645 C 1016.31 530.768 1019.6 480.909 1023.19 431.071 L 1007.23 431.532 C 1004.09 446.459 1001.77 469.115 999.789 484.606 L 987.324 581.254 z M 1818.68 645.579 C 1810.04 644.101 1801.22 642.462 1792.53 641.418 C 1808.98 686.091 1810.85 718.856 1813.19 766.092 L 1827.27 765.777 C 1826.04 729.502 1823.25 681.292 1818.68 645.579 z M 1331.13 881.131 L 1006.84 881.203 L 1007.02 897.091 L 1243.45 896.979 L 1302 897.17 C 1306.87 897.187 1326.17 897.462 1329.78 896.731 C 1330.07 891.548 1330.26 886.236 1331.13 881.131 z M 1813.68 772.001 C 1812.75 804.413 1815.3 849.264 1805.71 879.806 C 1811.05 878.562 1815.62 877.725 1820.56 875.265 C 1839.01 854.968 1830.29 798.298 1828.08 771.926 L 1813.68 772.001 z M 557.749 595.13 C 596.531 594.029 635.673 590.973 674.371 590.506 C 655.08 562.164 680.564 536.919 709.007 531.036 C 709.366 527.258 712.22 505.613 710.93 503.988 C 666.517 525.748 623.897 547.832 582.464 574.93 C 575.363 579.575 558.515 589.759 552.603 594.882 C 554.55 595.962 555.023 595.413 557.749 595.13 z M 446.744 638.464 C 400.955 640.742 354.156 643.71 309.358 653.345 C 288.698 657.788 280.432 666.157 267.245 681.547 C 265.34 683.771 260.182 688.579 259.715 690.963 C 261.092 691.156 261.401 691.331 262.748 691.169 L 307.216 689.261 C 344.738 687.897 371.037 683.315 406.071 668.665 C 418.799 663.343 432.565 659.335 442.364 648.665 C 444.811 646.021 448.733 641.999 449.328 638.736 L 446.744 638.464 z"/>
<path transform="translate(0,0)" fill="currentColor" d="M 1071.58 622.342 C 1073.26 622.25 1084.38 622.257 1085.15 622.705 C 1095.26 628.549 1102.36 632.536 1114.15 634.03 C 1118.92 634.635 1118.6 645.996 1115.97 649.601 C 1112.79 653.952 1104.24 654.151 1099 654.801 C 1094.71 659.917 1090.05 660.507 1083.73 662.083 C 1061.46 664.451 1064.82 657.472 1046.07 654.492 C 1033.75 652.533 1033.8 647.351 1037.69 636.758 C 1039.22 632.586 1050.07 633 1053.42 631.922 C 1061.02 624.395 1060.45 623.693 1071.58 622.342 z M 1090.86 646.772 C 1095.85 646.601 1103.54 647.045 1106.98 643.75 C 1105.18 635.543 1068.64 639.119 1060.38 639.56 C 1054.24 639.718 1051.69 639.481 1046.15 641.919 L 1045.19 643.88 L 1044.11 643.16 L 1045.03 642.483 L 1045.45 644.242 C 1058.17 648.16 1077.07 646.994 1090.86 646.772 z"/>
<path transform="translate(0,0)" fill="currentColor" d="M 950.42 625.427 C 968.136 625.454 963.703 626.902 978.945 634.163 C 980.033 634.682 988.098 635.157 992.074 636.498 C 996.714 641.118 996.144 646.458 993.397 652.342 C 990.905 657.68 980.951 654.805 977.877 656.637 C 969.719 661.499 968.575 663.11 958.922 665.086 C 945.181 665.586 942.921 665.807 931.59 657.925 C 924.664 655.15 913.513 659.472 912.108 648.886 C 909.854 631.915 922.283 637.75 929.719 634.197 C 940.535 629.029 934.907 626.972 950.42 625.427 z M 976.247 648.055 C 979.942 647.911 980.847 648.213 983.578 646.068 L 984.332 644.247 C 979.393 638.505 941.034 641.056 931.84 641.332 C 927.961 641.79 925.162 641.688 922.302 644.387 L 922.049 645.843 C 928.424 651.008 966.452 648.677 976.247 648.055 z"/>
<path transform="translate(0,0)" fill="currentColor" d="M 501.082 789.691 C 542.654 783.012 581.735 811.4 588.238 853 C 594.741 894.6 566.188 933.56 524.561 939.887 C 483.182 946.177 444.504 917.832 438.04 876.479 C 431.576 835.127 459.758 796.33 501.082 789.691 z M 522.443 927.346 C 556.993 922.215 580.871 890.087 575.82 855.525 C 570.77 820.964 538.697 797.011 504.124 801.981 C 469.436 806.968 445.388 839.169 450.455 873.845 C 455.522 908.52 487.779 932.494 522.443 927.346 z"/>
<path transform="translate(0,0)" fill="currentColor" d="M 1479.41 792.471 C 1520.16 785.515 1558.88 812.78 1566.07 853.495 C 1573.26 894.21 1546.22 933.088 1505.55 940.512 C 1464.54 947.996 1425.28 920.685 1418.03 879.638 C 1410.78 838.59 1438.32 799.483 1479.41 792.471 z M 1501.48 928.09 C 1535.57 922.858 1558.94 890.944 1553.64 856.86 C 1548.34 822.777 1516.38 799.467 1482.31 804.835 C 1448.33 810.188 1425.1 842.038 1430.39 876.026 C 1435.67 910.014 1467.48 933.307 1501.48 928.09 z"/>
<path transform="translate(0,0)" fill="currentColor" fill-opacity="0.964706" d="M 368.451 695.235 C 379.759 702.887 413.098 733.702 425.175 744.425 L 422.834 746.577 C 405.874 733.169 382.335 711.074 365.487 696.261 C 367.546 695.973 366.881 696.337 368.451 695.235 z"/>
</svg>