<svg xmlns="http://www.w3.org/2000/svg" version="1.1" style="display: block;" viewBox="0 0 2048 1365">
<path transform="translate(0,0)" fill="currentColor" d="M 1082.43 400.43 C 1110.78 398.994 1144.88 399.689 1173.45 399.821 C 1260.39 400.545 1347.26 404.845 1433.84 412.711 C 1485.62 417.516 1537.39 424.155 1589.04 429.962 L 1653.06 437.139 C 1662.82 438.262 1689.4 439.006 1693.62 448.087 C 1693.82 458.733 1680.11 461.797 1672.17 463.884 C 1704.69 481.825 1741.95 506.741 1773.75 526.537 C 1798.03 541.652 1833.88 563.903 1853.58 583.3 C 1867.76 600.987 1873.01 624.919 1872.69 647.197 C 1872.54 657.58 1866.68 658.08 1866.02 659.918 C 1863.13 668.061 1866.3 704.721 1870.53 711.272 C 1878.09 722.983 1895.25 728.301 1896.58 745.837 C 1897.67 756.77 1897.11 766.644 1896.41 777.538 C 1895.4 793.271 1892.21 800.494 1883.32 812.87 C 1869.08 832.677 1849.89 830.584 1828.34 836.049 C 1820.56 838.023 1811.8 843.677 1803.85 845.786 C 1785.52 849.259 1766.05 852.569 1747.68 855.361 C 1708.81 861.084 1669.89 866.406 1630.91 871.327 C 1619.24 897.822 1598.92 919.574 1573.28 933.027 C 1543.83 948.63 1509.38 951.838 1477.55 941.941 C 1443.97 931.427 1418.86 910.074 1402.7 879.013 L 983.5 879.816 L 572.138 881.06 C 561.059 900.734 542.658 918.516 523.043 929.591 C 493.07 946.608 457.532 950.913 424.362 941.547 C 388.758 931.453 362.779 908.937 344.862 877.01 C 302.196 875.226 175.835 875.201 146.506 848.385 C 138.945 841.472 136.417 830.151 136.16 820.315 C 135.737 804.12 139.186 787.204 141.417 771.178 C 147.042 730.761 150.384 682.413 180.214 651.46 C 247.454 581.688 542.509 568.859 640.901 566.937 C 650.928 559.676 666.694 550.35 677.425 543.665 C 698.823 530.289 720.334 517.094 741.955 504.08 C 786.465 477.503 838.542 447.69 887.111 430.173 C 949.232 407.768 1017 403.665 1082.43 400.43 z M 683.544 614.052 C 669.977 661.284 671.022 711.505 673.217 760.202 C 673.678 770.429 674.525 792.387 676.068 802.093 C 685.438 801.537 695.454 801.13 704.753 800.362 L 955.076 788.8 C 990.857 787.438 1035.51 784.848 1070.92 785.178 C 1069.92 735.084 1068.81 657.141 1081.18 609.06 L 1047.46 609.516 C 926.15 610.264 804.84 611.776 683.544 614.052 z M 1091.91 609.003 C 1076.25 661.674 1081.56 731.099 1080.46 785.129 C 1092.43 784.147 1104.49 783.854 1116.51 783.557 C 1153.57 782.642 1190.91 780.19 1227.97 779.926 C 1264.24 779.074 1300.52 778.812 1336.8 779.14 C 1352.68 756.1 1440.2 628.218 1437.17 609.405 C 1436.92 607.828 1436.89 608.137 1435.77 607.35 C 1416.26 606.426 1394.76 606.873 1375.06 606.927 C 1344.5 606.932 1313.95 607.123 1283.4 607.5 C 1220.49 608.3 1154.75 609.203 1091.91 609.003 z M 615.109 847.31 C 614.586 853.719 613.951 860.288 613.792 866.703 C 661.514 865.531 711.109 866.076 758.949 865.967 L 1031.09 865.328 C 1138.97 865.358 1249.62 863.811 1357.21 865.31 C 1356.93 849.22 1356.51 832.745 1358.13 816.723 C 1362.13 777.219 1380 735.956 1408.04 707.546 C 1464.63 650.221 1568.47 651.955 1624.92 708.7 C 1633.23 717.059 1639.23 724.852 1646.16 734.394 C 1673.7 731.298 1701.21 728.042 1728.71 724.627 C 1746.33 722.476 1763.54 720.381 1781.38 716.994 C 1802.54 712.978 1796.35 694.573 1794.05 678.5 C 1793.23 672.77 1787.12 666.083 1783.72 661.5 C 1770.21 645.055 1759.01 631.888 1751.65 611.59 C 1723.87 611.912 1694.82 610.771 1667.06 609.351 C 1593.71 605.598 1520.37 607.755 1447.05 606.716 C 1444.95 649.851 1358.74 760.515 1334.1 799.386 C 1303.74 847.288 1239.64 840.023 1188.67 840.792 L 1059.98 842.549 L 615.109 847.31 z M 1636.9 856.946 L 1658.19 854.066 C 1660.76 810.131 1652.13 758.968 1622.01 725.079 C 1597.42 697.695 1562.93 681.231 1526.17 679.325 C 1519.22 678.924 1508.35 678.732 1501.51 679.398 C 1403.11 689.449 1365.69 775.839 1370.5 865.324 C 1379.26 865.243 1388.02 865.216 1396.77 865.243 C 1389.41 845.319 1387.19 828.599 1389.09 807.331 C 1394.38 748.047 1454.19 688.723 1515.75 692.673 C 1592.26 695.006 1643.86 753.661 1640.97 829.713 C 1640.67 838.917 1639.3 848.055 1636.9 856.946 z M 599.934 866.794 C 603.053 832.514 603.416 813.089 595.992 779.871 C 580.579 710.912 513.225 660.023 441.702 670.393 C 429.059 671.681 419.892 673.451 408.001 677.998 C 327.317 708.852 309.273 784.035 315.121 862.173 L 338.025 862.955 C 326.225 823.504 325.533 789.003 345.627 751.688 C 361.889 721.245 389.587 698.516 422.618 688.506 C 439.035 683.605 463.207 681.948 480.232 685.223 C 517.618 692.913 546.272 710.529 567.564 742.831 C 586.927 772.419 593.873 808.437 586.903 843.104 C 585.162 851.262 582.679 859.245 579.483 866.951 L 599.934 866.794 z M 1123.07 599.63 C 1225.36 597.367 1331.99 598.041 1434.46 597.805 C 1430.53 588.716 1428.13 584.897 1421.95 577.154 L 1403.82 577.5 L 1099.07 581.181 C 1097.88 587.38 1096.75 593.904 1095.13 599.979 L 1123.07 599.63 z M 1882.89 750.619 C 1834.54 759.301 1784.81 763.757 1735.8 766.586 C 1721.18 767.43 1692.12 769.666 1678.27 768.403 C 1698.37 764.415 1723.27 763.256 1743.88 760.823 C 1788.56 755.548 1837.08 751.946 1881.19 743.284 L 1880.52 742.269 C 1872.12 729.653 1856.7 726.673 1854.18 708.796 C 1852.54 696.994 1851.45 685.124 1850.9 673.223 C 1850.84 671.467 1850.73 667.004 1850.76 664.967 C 1850.31 664.772 1849.85 664.578 1849.4 664.383 C 1849.33 664.382 1849.27 664.381 1849.2 664.38 C 1837.72 666.126 1813.73 670.319 1802.96 670.02 C 1809.2 695.927 1814.67 721.305 1781.36 726.5 C 1764.89 729.07 1748.87 731.34 1732.27 733.359 C 1705.1 736.715 1677.9 739.838 1650.68 742.728 C 1669.32 779.38 1672.48 812.205 1671.87 852.36 C 1696.31 849.142 1797.71 837.307 1813.3 828.058 C 1824.68 821.316 1833.03 807.72 1842.82 798.778 C 1858.01 785.767 1864.18 782.665 1882.49 775.374 C 1882.88 766.679 1883.03 759.32 1882.89 750.619 z M 698.461 588.177 C 693.609 594.72 691.508 597.856 687.494 605.079 C 699.409 604.639 711.328 604.309 723.25 604.09 C 843.524 602.841 965.035 599.94 1085.26 600.002 L 1089.91 581.898 C 1077.53 582.054 1063.78 581.933 1051.52 582.549 L 861.578 586.379 C 821.582 587.584 784.543 594.53 743.989 588.911 C 732.653 587.341 710.523 588.235 698.461 588.177 z M 180.166 773.042 C 176.696 817.5 170.09 826.728 220.416 828.997 C 221.254 829.037 222.093 829.061 222.932 829.068 C 233.972 829.255 247.091 829.81 257.932 828.982 C 256.146 819.114 254.425 809.023 252.114 799.285 C 244.79 768.427 240.372 769.829 212.109 771.566 C 201.922 772.076 190.252 772.936 180.166 773.042 z M 1793.63 613.442 L 1766.05 614.886 C 1770.89 623.319 1776.78 631.129 1781.68 639.043 C 1795.8 661.862 1807.64 657.342 1830.91 653.555 C 1840.59 652.1 1849.48 650.795 1859.03 648.68 C 1857.99 635.355 1857.35 626.749 1853.74 613.778 C 1833.72 612.826 1813.66 612.714 1793.63 613.442 z M 189.296 671.534 L 192.566 685.78 C 209.215 684.543 216.246 683.852 226.573 698.143 C 280.697 702.125 280.48 689.934 319.513 658.4 C 307.879 656.192 297.508 656.162 285.734 656.451 C 254.978 658.017 218.812 662.307 189.296 671.534 z M 1368.24 454.748 C 1388.19 487.256 1411.59 529.592 1428.5 563.967 C 1478.36 564.08 1528.22 564.674 1578.07 565.751 C 1602.06 566.371 1632.3 566.684 1655.85 568.897 C 1634.36 552.11 1613.01 539.916 1591.72 524.591 C 1519.72 472.771 1455.36 462.409 1368.24 454.748 z M 1330.29 782.433 C 1278 785.661 1225.66 788.091 1173.3 789.721 C 1142.99 790.891 1111.06 792.625 1080.9 793.125 C 1081.92 805.9 1082.87 820.82 1087.22 832.911 L 1197.7 831.168 C 1227.8 830.532 1259.7 832.02 1288.84 823.549 C 1307.6 818.091 1322.72 799.744 1333.33 783.912 L 1333.03 782.414 L 1330.29 782.433 z M 1085.35 567.535 C 1092.95 567.281 1100.55 567.082 1108.15 566.935 L 1119.6 487.678 C 1121.46 474.577 1124.85 454.708 1125.64 442.153 C 1123.71 440.763 1120.2 441.12 1117.64 441.084 C 1109.97 467.412 1102.06 493.673 1093.94 519.864 C 1091.69 527.06 1079.86 561.791 1079.73 567.177 C 1082.55 567.806 1082.47 567.796 1085.35 567.535 z M 670.453 837.688 C 668.225 827.155 666.935 816.445 666.598 805.684 C 658.902 805.799 650.592 806.096 642.952 805.723 C 652.009 802.675 656.337 802.616 665.898 802.438 C 661.552 735.937 657.387 679.603 672.677 614.209 L 661.662 614.453 C 585.102 616.563 508.604 620.529 432.236 626.345 C 392.176 629.725 347.517 632.539 308.978 643.784 C 314.072 644.319 336.436 645.598 333.641 653.999 C 327.326 672.98 300.741 687.132 286.486 700.803 C 283.872 703.272 274.64 708.302 272.863 708.52 C 259.837 710.117 231.162 710.186 218.94 708.818 L 209.557 701.278 C 185.748 700.51 179.553 703.567 177.175 678.069 C 165.79 696.548 159.189 739.815 156.502 762.18 C 174.41 760.814 240.337 753.166 252.032 763.588 C 261.193 771.752 270.835 812.458 271.037 825.602 C 271.098 829.549 270.524 833.779 267.781 836.829 C 262.847 842.315 252.006 842.876 245.169 842.869 C 224.35 842.845 186.606 844.773 170.779 828.907 C 165.338 823.452 164.294 814.621 164.359 807.247 C 164.456 796.073 166.528 784.841 167.265 773.688 L 154.418 774.19 C 152.004 791.235 143.828 824.291 156.294 837.437 C 187.604 859.834 263.291 858.454 302.055 861.92 C 296.732 810.031 304.291 752.859 338.219 711.221 C 363.748 680.459 400.356 660.977 440.131 656.984 C 482.932 652.706 522.636 663.514 556.118 690.788 C 602.107 728.251 615.827 781.501 615.651 838.465 C 633.916 838.034 652.184 837.775 670.453 837.688 z M 662.148 570.234 L 676.368 573.229 L 692.018 574.825 C 733.798 542.658 777.878 513.595 823.905 487.87 C 838.237 479.837 852.709 472.055 867.313 464.528 C 874.767 460.657 885.279 455.757 891.905 451.379 C 890.019 449.604 883.41 449.282 880.754 449.334 C 848.06 453.148 696.49 548.175 662.148 570.234 z M 1803.11 562.729 C 1786.46 551.971 1662.71 471.802 1654.16 470.088 L 1633.28 476.571 C 1669.62 495.92 1704.4 518.52 1739.4 540.164 C 1753.68 548.992 1767.6 558.307 1784.13 562.343 C 1791.67 563.1 1795.67 563.002 1803.11 562.729 z M 715.481 575.012 L 744.041 574.971 C 743.759 555.6 753.63 552.306 768.342 542.453 C 776.305 537.148 783.951 532.051 792.14 527.102 C 795.146 526.959 798.153 526.86 801.161 526.805 C 833.887 526.307 836.184 547.165 835.828 574.269 C 908.162 569.867 988.562 570.649 1062.05 568.635 C 1076.6 531.554 1091.43 480.157 1104.03 441.093 C 1047.06 441.251 971.689 445.627 918.925 464.41 C 875.973 479.699 831.172 504.841 790.99 526.111 C 783.987 530.474 774.281 536.117 767.708 540.721 C 750.786 551.335 731.375 563.063 715.481 575.012 z M 796.83 539.115 C 788.098 543.529 762.474 558.393 758.232 568.073 C 757.105 570.645 758.014 572.019 758.951 574.191 C 765.275 579.584 774.468 578.024 782.75 577.738 C 791.407 577.586 813.474 578.383 820.128 574.908 C 826.701 565.979 823.875 548.733 814.664 542.709 C 809.136 539.094 803.145 539.482 796.83 539.115 z M 1879.76 789.962 C 1864.67 796.336 1851.32 806.208 1840.8 818.763 L 1840.8 819.978 C 1855.33 816.993 1866.33 814.183 1875.54 801.409 C 1877.51 798.676 1880.58 793.315 1879.76 789.962 z M 615.091 581.454 C 545.43 583.861 475.898 589.143 406.672 597.284 C 336.542 605.905 254.5 618.238 194.384 656.4 C 212.631 652.34 242.485 645.912 260.76 644.444 C 265.389 643.921 280.258 643.234 282.624 642.686 C 293.901 640.077 306.087 636.454 317.428 633.559 C 333.526 629.618 349.814 626.501 366.229 624.218 C 425.259 616.323 493.103 612.582 552.437 609.842 C 590.51 608.083 637.316 605.014 674.944 605.165 C 678.088 597.404 680.163 594.105 685.031 587.247 C 671.03 586.455 662.659 583.367 649.501 581.405 C 641.528 580.216 623.61 581.153 615.091 581.454 z M 1070.9 793.664 L 1042.47 794.541 C 921.517 797.581 796.396 805.087 675.857 805.102 C 677.217 816.676 678.436 826.245 680.655 837.648 C 689.428 837.299 698.207 837.137 706.987 837.163 L 956.132 834.547 C 995.489 834.111 1036.72 832.86 1075.94 833.092 C 1072.97 819.087 1072.04 807.954 1070.9 793.664 z M 1140.77 441.325 C 1135.66 479.637 1129.52 529.671 1122.09 567.027 C 1210.7 565.825 1301.34 564.031 1389.75 563.96 L 1413.43 563.955 C 1393.42 526.847 1373.12 489.9 1352.52 453.119 C 1306.2 449.353 1259.82 446.443 1213.4 444.392 C 1191.45 443.366 1161.88 443.214 1140.77 441.325 z M 1086.23 414.542 C 1030.07 415.935 971.624 418.696 917.315 433.984 C 913.764 434.983 900.441 438.557 897.935 439.996 C 900.271 443.458 909.659 440.935 905.573 454.173 L 905.358 454.855 C 907.774 455.105 946.636 441.916 954.039 440.527 C 1049.09 422.788 1146 427.567 1242.16 432.739 C 1328.79 437.398 1422.91 438.057 1506.7 463.811 C 1564.98 481.722 1627.61 532.523 1677.69 567.484 C 1679.96 569.071 1680.11 572.299 1679.86 574.754 C 1674.52 582.464 1660.13 581.21 1651.57 581.181 C 1580.68 580.945 1508.25 576.284 1437.48 577.211 C 1443.16 585.312 1444.49 588.356 1447 597.916 C 1469.25 597.767 1491.5 597.765 1513.75 597.912 C 1554.69 598.118 1595.63 598.902 1636.54 600.265 C 1688.63 602.035 1739.15 606.089 1791.16 601.02 C 1809.53 599.23 1830.54 600.48 1849.05 601.301 C 1840.65 586.817 1828.05 579.7 1814.48 570.242 C 1785.08 578.121 1769.12 573.176 1743.47 558.174 C 1721.69 545.434 1700.37 531.358 1678.68 518.325 C 1642.79 496.76 1601.58 474.992 1571.78 444.893 C 1588.62 454.193 1599.95 462.817 1618.06 471.689 C 1627.73 465.204 1658.99 457.856 1671.79 453.216 C 1656.3 452.333 1639.49 450.091 1623.97 448.152 C 1566.95 441.027 1510.05 434.397 1452.89 428.427 C 1331.09 415.979 1208.62 411.341 1086.23 414.542 z M 1506.06 707.544 C 1443.85 712.445 1397.36 766.807 1402.16 829.03 C 1406.97 891.253 1461.27 937.826 1523.5 933.11 C 1585.86 928.384 1632.55 873.951 1627.73 811.597 C 1622.91 749.243 1568.41 702.632 1506.06 707.544 z M 450.301 698.364 C 385.889 703.441 337.766 759.739 342.776 824.156 C 347.785 888.574 404.032 936.755 468.455 931.814 C 532.974 926.865 581.243 870.516 576.226 806.002 C 571.209 741.489 514.809 693.279 450.301 698.364 z"/>
<path transform="translate(0,0)" fill="currentColor" d="M 1013.31 616.399 C 1023.56 615.749 1070.56 619.813 1061.38 638 C 1057.78 645.119 1046.73 642.437 1042.77 644.805 C 1034.7 649.634 1034.05 651.551 1024.36 653.916 C 1009.56 655.489 1006.14 654.056 992.312 648.407 C 952.743 632.244 992.172 617.491 1013.31 616.399 z M 1046.76 635.563 L 1051.32 633.586 L 1051.68 632.041 C 1046.9 628.616 997.658 629.955 989.495 630.354 L 985.718 632.083 L 985.16 633.77 C 989.542 638.195 1038.57 636.564 1046.76 635.563 z"/>
<path transform="translate(0,0)" fill="currentColor" d="M 1361.81 613.276 C 1404.2 611.57 1444.04 636.608 1376.8 649.789 C 1364.73 650.513 1359.08 649.662 1347.3 646.215 C 1304.22 633.608 1336.81 617.415 1361.81 613.276 z M 1376.5 634.712 C 1383.63 634.769 1399.09 636.203 1403.63 632.388 L 1403.85 630.311 C 1399.88 627.272 1371.16 628.488 1364.3 628.494 C 1357.78 628.543 1341.58 627.664 1336.72 631.086 L 1336.43 632.44 C 1342.34 636.276 1368.51 634.812 1376.5 634.712 z"/>
<path transform="translate(0,0)" fill="currentColor" d="M 230.901 714.426 C 238.317 713.845 242.288 713.034 249.285 715.749 C 244.704 718.841 193.992 720.224 183.751 720.387 C 174.65 720.505 170.817 721.102 161.532 719.619 C 179.708 716.633 211.515 715.676 230.901 714.426 z"/>
<path transform="translate(0,0)" fill="currentColor" d="M 450.476 724.249 C 500.475 719.358 545.043 755.751 550.248 805.718 C 555.452 855.685 519.341 900.481 469.408 906 C 419.028 911.569 373.744 875.064 368.493 824.65 C 363.241 774.237 400.03 729.183 450.476 724.249 z M 471.398 892.243 C 514.003 885.626 543.148 845.684 536.449 803.091 C 529.75 760.499 489.751 731.432 447.171 738.214 C 404.709 744.977 375.738 784.842 382.419 827.318 C 389.1 869.794 428.909 898.841 471.398 892.243 z"/>
<path transform="translate(0,0)" fill="currentColor" d="M 1511.23 733.04 C 1559.73 731.095 1600.64 768.805 1602.64 817.304 C 1604.65 865.804 1566.99 906.761 1518.49 908.823 C 1469.91 910.889 1428.87 873.151 1426.86 824.568 C 1424.85 775.985 1462.64 734.989 1511.23 733.04 z M 1521.47 895.098 C 1562.37 891.448 1592.59 855.365 1589 814.46 C 1585.42 773.555 1549.38 743.28 1508.47 746.802 C 1467.47 750.332 1437.11 786.465 1440.71 827.461 C 1444.3 868.457 1480.48 898.756 1521.47 895.098 z"/>
<path transform="translate(0,0)" fill="currentColor" d="M 715.481 575.012 C 731.375 563.063 750.786 551.335 767.708 540.721 L 768.342 542.453 C 753.63 552.306 743.759 555.6 744.041 574.971 L 715.481 575.012 z"/>
<path transform="translate(0,0)" fill="currentColor" fill-opacity="0.235294" d="M 790.99 526.111 L 792.14 527.102 C 783.951 532.051 776.305 537.148 768.342 542.453 L 767.708 540.721 C 774.281 536.117 783.987 530.474 790.99 526.111 z"/>
</svg>
