<svg version="1.1" xmlns="http://www.w3.org/2000/svg" style="display: block;" viewBox="0 0 2048 1365">
<path transform="translate(0,0)" fill="currentColor" d="M 940.229 396.441 C 995.925 394.451 1052.06 395.755 1107.82 395.866 C 1150.69 395.952 1201.42 393.465 1243.21 399.812 C 1251.1 401.011 1259.51 403.087 1265.54 408.648 C 1286.92 428.336 1292.7 532.536 1294.33 565.077 L 1707.26 565.088 L 1841.04 565.087 C 1867.54 565.087 1897.21 565.687 1923.48 564.433 C 1926.44 570.666 1940.5 617.518 1940.59 624.623 C 1941.11 663.137 1933.23 719.98 1925.93 756.972 C 1935.78 756.817 1952.86 755.395 1952.07 770.553 C 1951.39 783.669 1951.62 816.392 1942.54 825.896 C 1936 832.739 1901.39 831.148 1891.88 833.002 C 1884 834.37 1876.79 828.864 1865.01 829.329 C 1810.26 831.493 1751.52 839.435 1697.27 840.155 C 1697.79 896.527 1674.03 938.362 1624.15 965.091 L 1753 965.087 C 1763.29 965.085 1817.23 963.023 1822.63 967.99 C 1822.84 971.18 1822.92 970.042 1820.46 973.283 C 1815.94 975.597 1766.87 974.344 1758.92 974.539 C 1694.37 976.125 1629.27 970.124 1565.34 979.616 C 1555.37 981.097 1535.48 974.589 1523.51 974.551 L 889.284 974.526 C 756.659 974.523 623.96 974.47 491.324 974.598 C 479.317 974.609 466.301 979.527 450.641 979.601 C 434.086 979.681 424.143 974.649 408.644 974.542 C 348.901 974.132 287.776 975.186 228.04 974.18 C 226.215 974.149 224.527 971.175 223.815 969.642 L 224.567 967.597 C 229.908 963.369 274.995 964.998 284.135 965.003 L 393.632 965.073 C 373.926 955.28 357.005 940.681 344.43 922.623 C 324.235 893.628 316.525 857.741 323.029 823.011 C 329.327 788.486 349.035 757.858 377.847 737.819 C 406.441 717.881 441.818 710.199 476.106 716.483 C 510.475 722.983 540.836 742.915 560.467 771.866 C 583.258 804.914 587.641 838.329 580.457 877.028 C 630.035 876.404 680.823 876.968 730.5 876.958 L 1437.36 876.948 C 1436.69 873.971 1436.09 870.978 1435.56 867.973 C 1429.9 834.389 1437.66 799.928 1457.17 772.011 C 1478.24 742.426 1510.15 722.378 1545.95 716.247 C 1579.98 710.811 1614.77 719.119 1642.67 739.34 C 1675.61 763.13 1690.7 792.927 1697.01 832.148 C 1703.85 831.127 1710.96 830.949 1717.88 830.622 C 1714.89 806.514 1712.62 790.227 1702.6 767.351 C 1687.33 731.524 1658.19 703.418 1621.83 689.453 C 1584.31 674.998 1537.93 677.179 1500.94 693.568 C 1452.17 715.175 1424.85 762.992 1414.06 813.52 C 1412.07 822.838 1410.78 850.516 1409.64 853.494 C 1407.17 855.567 1405.04 855.689 1401.5 855.637 C 1373.58 855.221 1345.57 855.459 1317.67 855.65 C 1243.24 856.495 1168.8 856.719 1094.36 856.321 C 934.436 855.693 774.51 855.921 614.589 857.005 C 611.342 856.996 606.738 857.274 605.706 854.546 C 602.303 845.549 601.119 831.672 599.861 822.172 C 594.868 784.471 581.979 748.625 554.709 721.243 C 527.597 694.443 490.888 679.607 452.768 680.044 C 342.145 680.232 295.865 773.419 301.775 870.165 C 302.281 878.437 302.285 891.559 291.06 891.249 C 272.969 890.749 254.616 890.328 236.407 890.114 C 235.287 887.455 230.76 876.415 228.67 874.807 C 217.893 867.226 205.121 857.725 193.707 851.231 C 186.091 846.897 170.227 850.638 165.441 835.89 C 158.2 813.58 157.117 784.56 159.257 761.233 C 159.563 757.89 168.201 754.105 169.818 749.683 C 168.307 747.939 165.845 745.636 165.616 743.25 C 165.106 737.914 176.27 729.446 179.312 725.227 C 185.372 716.825 178.079 717.265 175.474 710.124 C 174.562 707.623 174.893 704.139 174.847 701.486 C 174.493 680.892 173.372 651.969 178.063 632.037 C 178.661 629.496 185.059 621.248 184.856 619.93 C 184.716 619.025 181.933 617.841 181.478 615.2 C 183.332 610.628 186.915 606.933 190.577 603.699 C 199.109 596.223 208.99 590.445 219.689 586.676 C 226.079 584.465 233.626 582.237 240.263 580.811 C 332.931 560.89 428.493 557.004 522.817 550.615 C 535.053 549.786 548.194 550.663 560.316 551.396 C 592.095 526.296 642.229 495.103 676.901 473.542 C 711.32 452.139 763.483 418.889 802.127 408.736 C 844.816 397.521 896.009 398.214 940.229 396.441 z M 655.082 772.608 C 666.135 769.494 678.577 765.082 689.077 760.352 C 710.978 750.486 732.807 751.784 756.376 751.802 L 813.914 751.853 L 1002.14 750.791 C 1001.27 722.108 1000.96 693.411 1001.19 664.716 C 1001.18 635.57 1000.98 609.045 1003.04 579.886 C 981.943 579.769 960.848 579.76 939.752 579.86 C 904.032 580.002 881.791 580.341 848.851 596.776 C 828.818 606.77 805.112 603.526 783.531 604.043 C 750.543 604.173 716.493 604.027 683.409 603.922 C 670.951 603.445 666.996 603.165 667.697 589.438 C 668.742 568.978 678.618 555.326 693.991 542.575 C 730.631 512.183 771.6 486.475 811.832 461.114 C 817.914 457.279 824.371 453.567 830.802 450.446 C 864.344 435.05 888.926 435.958 925.443 434.241 C 969.102 432.189 1012.11 433.033 1055.74 433.079 L 1130.68 433.08 C 1146.78 433.083 1163.04 432.627 1179.1 433.863 C 1186.71 434.449 1194.31 435.579 1201.5 438.231 C 1207.4 440.406 1211.02 444.821 1213.52 450.46 C 1218.44 461.511 1224.6 539.13 1220.2 549.214 C 1215.01 561.082 1196.08 569.949 1184.55 573.864 C 1160.52 582.025 1127.56 578.998 1102.04 579.091 C 1071.44 579.203 1040.77 578.785 1010.19 579.682 C 1008.16 600.495 1007.84 621.149 1007.91 642.034 C 1008.04 678.308 1007.44 714.526 1009.01 750.779 C 1086.21 749.988 1171.93 748.918 1248.87 750.546 C 1253.9 665.785 1255.68 585.515 1244.93 500.849 C 1237.32 440.993 1251.55 422.339 1177.71 421.58 C 1133.95 421.13 1088.63 420.734 1044.67 421.119 C 1006.48 421.727 964.182 419.98 926.695 421.454 C 898.399 422.448 869.984 422.701 842.903 431.988 C 815.56 441.366 686.365 529.92 664.793 552.859 C 660.621 557.295 656.044 562.822 654.245 568.74 C 646.472 594.308 650.401 685.916 651.5 715.029 C 652.222 734.127 652.621 753.645 655.082 772.608 z M 1286.57 750.7 C 1306.19 750.475 1347.38 748.522 1365.17 752.375 C 1384.57 756.576 1387.71 779.542 1416.44 774.796 C 1432.43 735.245 1459.6 700.469 1499.92 684.426 C 1584.47 650.786 1670.95 679.911 1710.3 762.216 C 1765.02 760.304 1819.82 761.342 1874.56 760.956 C 1875.43 760.949 1876.59 761.879 1877.23 762.344 L 1878.4 764.825 C 1877.71 766.333 1877.61 767.468 1876.26 767.567 C 1829.3 770.981 1758.85 767.562 1713.66 770.06 C 1721.48 792.132 1723.76 806.084 1727.18 829.159 C 1730.35 830.153 1731.35 829.742 1734.76 829.267 C 1780.86 826.827 1829.5 823.197 1875.6 819.832 C 1877.22 809.718 1879.28 797.966 1880.48 787.927 C 1884.43 754.808 1883.61 754.658 1916.82 754.9 C 1919.63 743.445 1921.93 731.872 1923.72 720.215 C 1919.85 720.482 1887.66 721.237 1885.81 719.068 C 1874.04 705.252 1862.22 672.261 1851.08 660.244 C 1841.43 649.842 1839.14 613.067 1847.16 611.638 C 1861.67 609.055 1912.48 610.271 1927.92 610.187 C 1925.62 597.814 1922.83 585.183 1917.35 573.754 L 1289.36 573.882 C 1290.56 632.836 1289.62 691.813 1286.57 750.7 z M 1439.5 965.062 L 1508.35 965.117 C 1479.17 953.013 1455.3 924.455 1443.33 895.674 C 1441.9 892.167 1440.59 888.612 1439.41 885.013 L 578.036 885.007 C 567.756 918.21 546.155 945.699 515.255 962.062 C 513.251 963.117 511.224 964.129 509.177 965.098 L 1439.5 965.062 z M 786.833 421.887 C 793.742 423.457 807.412 424.678 810.841 428.925 C 809.33 435.273 770.816 458.916 762.764 464.406 C 732.537 484.939 702.567 505.849 672.862 527.13 C 665.648 532.266 636.927 550.93 634.924 557.658 C 627.418 561.316 587.938 559.801 576.217 560.277 C 563.136 570.718 550.241 582.041 533.123 585.271 C 502.666 591.017 471.773 589.499 440.849 591.952 C 376.704 597.041 310.905 599.065 247.791 612.063 C 243.81 612.883 236.818 615.101 233.38 612.854 C 233.969 610.214 234.383 609.524 236.797 608.118 C 256.563 596.605 416.718 586.567 447.41 584.963 C 473.955 583.576 511.83 584.669 536.516 577.309 C 547.523 574.027 556.73 566.707 565.922 560.101 C 552.753 559.681 538.457 558.569 525.118 559.514 C 425.298 566.585 322.743 568.675 225.383 593.303 C 216.615 595.52 184.601 610.003 194.063 622.158 C 212.611 627.389 265.696 621.035 287.418 623.879 C 293.817 624.717 303.442 623.556 310.656 624.299 C 323.106 625.582 321.305 652.72 317.879 659.703 C 305.463 685.01 285.521 715.8 265.106 735.446 C 259.227 740.773 200.888 740.526 190.371 739.435 C 188.598 739.251 185.68 734.833 184.498 733.144 L 175.487 742.961 C 184.913 749.186 186.371 750.309 191.993 759.982 C 231.061 762.494 271.983 759.733 310.571 761.712 C 314.08 754.601 317.082 748.396 321.24 741.608 C 330.199 727.861 339.781 715.508 352.543 705.003 C 403.016 663.455 483.526 659.912 537.981 695.813 C 566.946 714.909 584.378 740.151 597.043 771.891 C 613.405 771.628 632.052 770.784 648.176 771.287 C 643.499 732.728 644.417 682.617 643.729 643.401 C 643.417 625.61 643.214 588.803 646.374 572.706 C 647.754 565.424 650.888 558.587 655.505 552.788 C 674.706 528.435 799.352 446.514 832.586 429.067 C 844.363 422.885 865.941 418.911 879.798 417.46 C 905.394 414.781 931.668 414.907 957.452 414.815 L 1049.54 414.577 L 1135.97 414.532 C 1161.96 414.558 1187.23 414.501 1213.11 417.662 C 1247.38 421.846 1246.3 448.508 1249.24 475.878 C 1258.94 566.007 1264.03 660.036 1255.47 750.557 C 1262.77 750.542 1270.45 750.397 1277.71 750.626 C 1279.88 707.206 1281.05 663.743 1281.22 620.27 C 1281.2 606.399 1280.99 592.341 1280.19 578.504 C 1278.84 575.894 1285.12 566.286 1285.1 565.802 C 1284.26 541.185 1283.26 516.195 1279.45 491.663 C 1276.28 471.241 1273.12 424.249 1255.01 412.611 C 1246.64 407.236 1211.92 405.364 1200.79 405.418 C 1142.27 405.701 1083.06 403.369 1024.56 404.487 C 987.718 404.613 950.882 405.132 914.055 406.045 C 868.171 407.5 831.2 408.181 786.833 421.887 z M 271.174 717.471 C 279.826 705.36 288.449 692.654 296.878 680.517 C 310.824 660.437 312.857 654.829 310.835 631.391 C 272.315 629.759 232.766 631.104 194.145 629.994 C 193.905 633.604 193.721 638.18 193.314 641.689 C 204.676 641.844 272.428 641.427 277.303 643.957 C 288.082 669.265 257.784 704.766 253.804 729.005 C 258.969 732.178 268.478 721.378 271.174 717.471 z M 612.31 847.795 L 660.168 847.607 C 653.352 824.936 650.952 803.892 648.984 780.339 C 632.94 777.83 615.895 778.564 599.588 778.759 C 608.221 808.328 607.509 819.153 612.31 847.795 z M 226.143 731.671 L 243.079 730.362 L 250.167 713.666 C 259.045 692.772 271.003 671.193 270.821 649.272 L 224.288 649.195 C 226.096 671.826 226.175 708.386 226.143 731.671 z M 193.28 768.935 C 196.285 776.795 197.835 781.004 202.1 788.367 C 209.758 788.882 223.807 790.868 230.221 787.193 L 232.879 783.092 L 240.229 769.375 C 225.279 769.31 208.022 769.593 193.28 768.935 z M 233.909 795.268 C 221.672 797.052 210.018 798.177 197.754 795.31 C 189.141 785.032 183.894 772.021 181.358 759.114 C 181.138 757.994 178.969 755.519 178.018 754.714 C 170.795 764.453 165.259 761.459 167.438 776.535 C 169.981 794.12 182.876 827.115 196.811 838.008 C 227.518 839.145 262.152 838.616 293.146 838.744 C 293.88 828.629 294.478 819.089 296.178 809.077 C 298.446 795.855 301.399 783.016 306.785 770.644 C 288.001 770.694 269.217 770.495 250.438 770.046 C 246.247 776.964 239.083 789.436 233.909 795.268 z M 976.933 441.477 C 973.943 441.475 970.557 441.386 967.61 441.483 C 927.994 442.703 874.798 440.966 839.018 456.326 C 826.636 461.642 809.06 472.987 797.36 480.512 C 774.81 495.087 752.467 509.979 730.337 525.184 C 756.348 523.542 768.966 524.521 770.599 554.707 C 771.066 563.167 771.076 571.646 770.63 580.107 C 767.963 588.483 765.313 591.325 757.683 595.921 C 778.354 595.931 805.91 596.766 826.19 595.153 C 838.453 594.178 865.772 580.498 879.31 576.718 C 907.708 568.789 943.451 571.007 973.31 571.123 C 973.597 543.705 974.203 516.291 975.128 488.888 C 975.54 474.737 975.647 455.25 976.933 441.477 z M 1942.83 786.598 C 1936.24 786.596 1919.29 787.665 1915.12 784.428 C 1914.18 780.629 1913.91 781.969 1915.6 779.167 C 1922.79 775.555 1936.02 779.688 1942.73 777.409 C 1943.17 773.779 1943.27 773.005 1942.75 769.405 C 1937.23 764.559 1902.92 766.705 1892.35 766.158 C 1890.07 783.236 1887.26 807.556 1883.42 824.065 C 1892.78 823.617 1930.39 822.352 1936.23 818.718 C 1939.86 813.73 1940.1 808.279 1940.73 802.236 L 1942.83 786.598 z M 168.006 807.712 C 169.51 823.958 169.404 838.413 188.436 843.099 C 178.729 829.272 175.22 819.001 168.006 807.712 z M 241.682 882.256 L 292.955 882.394 L 293.073 847.944 L 235.787 847.968 C 228.095 847.966 211.983 848.329 204.714 847.51 C 218.136 864.096 229.145 855.31 241.682 882.256 z M 662.558 831.023 L 1006.43 830.985 C 1005.64 821.688 1004.99 811.329 1003.88 802.147 L 782.706 802.156 C 741.886 802.173 699.202 801.618 658.539 802.54 C 658.57 810.034 661.119 823.339 662.558 831.023 z M 703.464 566.608 C 718.236 566.453 733.01 566.394 747.783 566.431 L 762.555 566.237 C 761.942 558.905 761.604 540.14 755.425 536.068 C 747.107 530.586 729.31 535.569 719.23 532.531 C 707.841 542.897 704.323 547.902 703.602 563.298 C 703.55 564.401 703.504 565.505 703.464 566.608 z M 436.205 724.834 C 368.987 733.647 321.571 795.184 330.186 862.427 C 338.801 929.671 400.2 977.267 467.468 968.848 C 535.015 960.395 582.852 898.686 574.201 831.164 C 565.55 763.642 503.702 715.986 436.205 724.834 z M 184.015 677.669 C 194.528 677.615 205.661 677.376 216.116 677.726 L 215.953 649.31 C 209.946 649.332 189.724 649.879 185.236 648.245 C 184.161 659.244 183.991 666.608 184.015 677.669 z M 1899.56 669.1 C 1904.61 669.127 1925.71 669.641 1929.16 668.502 L 1929.64 667.74 C 1930.46 658.554 1932.1 644.752 1932.19 635.882 L 1883.87 635.929 C 1886.24 644.163 1894.46 662.264 1899.56 669.1 z M 216.87 707.654 L 216.324 686.666 L 183.988 686.63 L 184.053 707.832 C 191.599 707.767 209.867 707.058 216.87 707.654 z M 1022.89 441.272 L 985.303 441.342 C 983.816 481.914 981.358 530.474 981.916 570.777 C 995.298 570.874 1008.68 570.812 1022.06 570.592 L 1023.75 570.359 C 1024.6 565.418 1024.1 541.559 1024.07 535.458 L 1022.89 441.272 z M 693.206 575.982 C 693.518 578.756 693.337 581.574 696.036 583.268 C 708.665 591.198 745.715 589.729 758.764 585.004 C 761.02 581.889 761.663 581.241 762.428 577.518 L 761.771 576.373 C 749.637 574.818 707.772 576.028 693.206 575.982 z M 217.278 731.806 C 217.261 728.381 217.777 717.788 216.354 715.708 L 216.22 715.659 C 210.609 716.286 194.949 716.357 191.793 717.234 L 191.608 718.514 C 190.708 724.343 189.874 725.375 186.269 730.014 C 187.997 730.535 188.941 730.044 190.685 729.535 C 197.791 733.219 208.966 731.997 217.278 731.806 z M 1928.95 677.278 L 1911.04 677.214 L 1895.5 677.227 C 1888.95 669.77 1870.15 638.472 1880.47 629.925 C 1887.69 623.944 1927.11 630.776 1932.07 626.873 C 1932.73 623.121 1932.92 624.576 1931.59 621.253 C 1929.82 619.866 1927.56 618.592 1925.28 618.608 C 1901.15 618.78 1875.91 618.617 1851.85 618.754 C 1851.36 623.766 1850.58 639.208 1852.63 643.477 C 1860.51 659.922 1871.82 674.927 1879.76 691.577 C 1882.59 697.496 1886.84 706.359 1890.09 711.766 L 1924.94 711.829 C 1926.47 700.335 1927.81 688.816 1928.95 677.278 z M 1286.02 757.273 C 1285.31 768.721 1284.11 782.459 1283.9 793.728 C 1315.04 792.255 1346.59 793.664 1377.77 792.894 C 1380.09 792.836 1382.21 793.664 1384.11 794.91 L 1384.56 797.052 C 1383.31 798.873 1383.24 799.811 1381.07 799.875 C 1371.06 800.173 1360.05 799.989 1350.11 799.967 C 1327.77 799.735 1305.44 800.009 1283.12 800.787 C 1282.24 815.562 1279.97 831.718 1278.2 846.516 L 1301.75 846.364 C 1333.27 846.328 1370.65 845.364 1401.7 846.545 C 1402.96 821.86 1405.14 806.367 1413.43 782.986 C 1380.61 783.466 1383.92 764.66 1361.92 759.227 C 1347.31 755.62 1302.62 757.205 1286.02 757.273 z M 694.883 552.146 C 679.986 568.472 677.857 573.469 675.823 595.617 L 698.115 595.897 L 699.497 595.284 C 698.454 594.596 689.786 590.156 690.091 590.534 C 686.218 585.739 681.773 576.736 682.764 570.572 C 686.887 566.852 689.969 570.734 694.612 566.451 C 694.7 561.41 694.816 557.499 695.341 552.496 L 694.883 552.146 z M 1277.43 757.549 C 1270.11 757.559 1262.28 757.714 1255.01 757.394 C 1253.9 769.552 1252.52 782.359 1251.73 794.489 L 1274.77 794.037 C 1276.2 782.128 1276.73 769.568 1277.43 757.549 z M 1213.07 545.982 C 1213.84 530.033 1211.42 458.505 1202.81 449.595 C 1198.85 445.488 1190.45 443.83 1185.05 443.04 C 1165.72 440.212 1144.44 441.258 1124.88 441.246 L 1031.62 441.264 L 1032.88 570.632 L 1115.96 570.494 C 1145.04 570.47 1173.12 573.458 1198.73 557.872 C 1204.75 554.047 1208.55 551.586 1213.07 545.982 z M 1552.22 724.56 C 1484.65 732.057 1435.97 792.924 1443.5 860.488 C 1451.03 928.051 1511.92 976.709 1579.48 969.148 C 1646.99 961.592 1695.61 900.751 1688.09 833.233 C 1680.56 765.714 1619.74 717.068 1552.22 724.56 z M 626.273 550.828 C 681.449 509.416 738.025 469.903 795.902 432.357 L 775.217 426.854 C 710.496 459.393 632.652 511.002 573.227 551.985 C 581.196 551.245 586.769 551.106 594.75 551.087 L 626.273 550.828 z M 1251.08 801.114 C 1249.82 814.38 1248.31 825.577 1246.31 838.673 C 1222.71 837.834 1196.68 838.323 1172.85 838.323 L 1046.86 838.32 L 664.287 838.313 L 667.2 847.766 L 688.5 847.608 L 1070.63 847.682 L 1193.19 847.693 C 1217.47 847.693 1245.59 848.441 1269.46 846.779 C 1271.46 831.522 1273.19 816.232 1274.67 800.916 C 1266.91 800.987 1258.81 801.187 1251.08 801.114 z M 1210.28 801.529 C 1144.09 802.451 1077.09 802.159 1010.85 802.209 C 1011.62 811.828 1012.43 821.444 1013.3 831.055 L 1041.75 831.015 C 1107.42 831.011 1175.21 830.105 1240.69 831.058 C 1241.87 822.109 1243.84 809.915 1244.41 801.151 C 1233.55 801.212 1221.01 800.993 1210.28 801.529 z M 1009.05 757.216 C 1009.22 769.808 1009.75 782.394 1010.63 794.957 C 1029.55 794.935 1242.84 795.181 1245.12 793.568 L 1248.32 757.39 C 1169.62 756.816 1087.03 759.002 1009.05 757.216 z M 990.478 757.481 L 814.124 758.688 L 756.371 758.662 C 746.558 758.669 719.864 758.472 710.919 760.763 C 693.414 765.248 673.905 774.231 655.529 780.11 C 656.042 784.97 656.489 790.329 657.35 795.087 L 672.25 794.971 L 1004.11 794.964 C 1002.64 783.198 1002.71 769.484 1002.48 757.483 L 990.478 757.481 z"/>
<path transform="translate(0,0)" fill="currentColor" d="M 913.563 620.173 C 925.673 619.648 937.718 619.991 950.297 619.714 C 962.089 619.454 988.14 617.038 983.169 637.086 C 982.317 640.523 979.985 642.646 977.339 644.814 C 959.806 646.357 940.383 644.434 922.884 645.481 C 904.569 646.578 902.098 629.673 913.563 620.173 z M 976.144 636.958 C 975.982 632.589 976.621 632.133 974.529 628.633 C 968.573 627.063 924.341 627.983 914.884 628.062 C 914.822 631.013 914.298 634.642 915.871 636.918 C 929.121 638.049 961.851 637.373 976.144 636.958 z"/>
<path transform="translate(0,0)" fill="currentColor" d="M 1207.79 619.527 C 1213.91 619.393 1232.23 617.801 1235.05 621.879 C 1255.37 651.331 1202.29 644.086 1194.25 644.028 C 1188.21 644.156 1168.85 645.517 1165.81 641.194 C 1146.05 613.133 1198.91 619.584 1207.79 619.527 z M 1227.25 636.126 L 1229.94 635.862 C 1231.57 633.497 1231.37 633.067 1231.34 630.032 L 1230.02 627.585 C 1219.93 625.855 1184.61 627.209 1172.31 627.445 C 1170.74 628.744 1170.08 629.151 1168.92 630.893 C 1169.31 633.953 1168.84 632.803 1171.33 635.237 C 1180.14 638.233 1215.87 636.093 1227.25 636.126 z"/>
<path transform="translate(0,0)" fill="currentColor" d="M 1558.92 631.438 C 1563.51 630.931 1569.46 631.111 1574 631.201 C 1642.6 632.557 1704.05 666.4 1737.94 726.683 C 1741.06 732.24 1748.45 740.795 1744.15 746.312 L 1741.91 746.51 C 1738.83 744.284 1727.93 724.749 1724.34 719.497 C 1719.64 712.579 1714.57 705.919 1709.15 699.546 C 1679.34 664.653 1634.23 643.356 1588.76 639.797 C 1523.54 630.173 1458.23 656.736 1418.25 709.155 C 1413.31 715.643 1403.19 737.331 1398.07 739.198 C 1395.02 737.652 1396.04 738.806 1394.82 735.685 C 1396.9 724.671 1418.49 695.775 1426.73 686.742 C 1461.32 648.808 1509.14 634.105 1558.92 631.438 z"/>
<path transform="translate(0,0)" fill="currentColor" d="M 432.04 635.586 C 509.574 625.88 582.102 662.431 615.714 733.449 C 618.502 739.342 621.366 742.656 619.579 749.809 L 618.115 750.684 C 614.027 748.334 606.985 733.501 604.091 728.317 C 581.674 688.166 551.275 661.921 507.223 648.938 C 434.109 628.983 345.045 649.909 306.381 719.61 C 305.409 721.363 302.254 721.396 300.631 721.405 L 299.247 719.777 C 299.783 713.776 310.13 699.755 314.272 694.807 C 344.825 658.313 385.395 640.084 432.04 635.586 z"/>
<path transform="translate(0,0)" fill="currentColor" d="M 585.257 624.387 C 594.664 623.597 616.696 622.519 624.613 626.767 C 626.147 630.862 626.609 675.042 626.673 683.477 C 625.106 686.386 625.823 685.429 621.656 686.767 C 610.282 687.785 611.063 687.013 603.395 678.446 C 599.17 674.016 595.601 668.403 591.521 663.957 C 584.142 655.918 566.806 630.022 585.257 624.387 z M 586.122 644.92 C 593.539 654.655 606.047 672.193 615.241 679.095 L 618.084 677.718 C 618.905 673.448 617.951 642.752 619.046 632.15 C 611.834 631.804 597.055 630.776 590.407 631.318 L 586.726 632.444 C 584.485 636.691 585.56 639.76 586.122 644.92 z"/>
<path transform="translate(0,0)" fill="currentColor" d="M 1552.62 757.815 C 1602.15 750.379 1648.28 784.664 1655.44 834.238 C 1662.6 883.811 1628.06 929.748 1578.45 936.634 C 1529.22 943.467 1483.72 909.255 1476.62 860.068 C 1469.51 810.881 1503.47 765.192 1552.62 757.815 z M 1575.43 928.332 C 1620.01 923.156 1652.06 883.003 1647.24 838.39 C 1642.42 793.777 1602.52 761.402 1557.87 765.871 C 1512.72 770.39 1479.9 810.837 1484.78 855.952 C 1489.65 901.067 1530.36 933.565 1575.43 928.332 z"/>
<path transform="translate(0,0)" fill="currentColor" d="M 1564.42 869.053 C 1566.07 869.248 1570.97 870.188 1572.4 871.615 C 1581.93 881.487 1590.87 897.529 1596 910.169 C 1599.55 918.91 1574.71 921.294 1569.37 922.091 C 1560.97 922.245 1539.81 921.63 1536.09 912.503 C 1536.17 902.206 1550.45 881.483 1556.83 872.917 C 1558.27 870.983 1562.05 869.784 1564.42 869.053 z M 1544.7 910.462 C 1554.83 913.096 1560.37 913.381 1570.88 913.107 C 1577.45 912.314 1581.53 911.596 1587.97 910.09 C 1584.15 903.774 1571.58 880.681 1566.99 878.061 L 1563.25 877.668 C 1556.96 888.538 1550.78 899.47 1544.7 910.462 z"/>
<path transform="translate(0,0)" fill="currentColor" d="M 1578.29 775.889 C 1595.95 775.294 1617.65 789.684 1627.36 803.827 C 1633.46 812.715 1617.88 818.075 1612.17 820.843 C 1585.72 833.265 1570.1 841.048 1573.14 799.542 C 1573.62 792.984 1574.26 780.725 1578.29 775.889 z M 1608.66 813.558 L 1619.94 807.609 C 1607.64 794.052 1601.52 788.856 1583.26 783.906 C 1582.8 791.894 1579.77 814.296 1583.09 819.702 C 1590.57 824.57 1601.36 817.372 1608.66 813.558 z"/>
<path transform="translate(0,0)" fill="currentColor" d="M 1629.64 838.298 C 1633.13 838.117 1634.37 837.721 1637.27 839.479 C 1646.83 850.361 1632.01 894.676 1617.79 895.746 C 1614.12 894.259 1610.03 889.343 1607.15 886.298 C 1598.71 877.176 1575.13 856.002 1593.43 846.037 C 1601.04 841.891 1620.58 839.628 1629.64 838.298 z M 1609.69 875.694 L 1619.48 886.851 C 1625.58 876.68 1633.34 860.406 1631.92 848.419 L 1630.98 847.094 L 1628.44 847.333 C 1600.67 851.868 1583.14 848.784 1609.69 875.694 z"/>
<path transform="translate(0,0)" fill="currentColor" d="M 1495.28 838.03 C 1505.9 837.966 1530.69 841.797 1539.41 847.955 C 1554.49 858.603 1536.11 874.47 1528.07 883.584 C 1524.77 887.65 1519.48 894.304 1514.92 896.496 C 1499.18 895.368 1485.74 849.417 1495.28 838.03 z M 1514.07 888.303 L 1525.23 874.697 C 1530.24 868.936 1535.5 864.52 1535.34 856.841 C 1531.88 850.304 1508.31 848.308 1499.9 846.491 C 1500.54 864.552 1503.77 873.828 1514.07 888.303 z"/>
<path transform="translate(0,0)" fill="currentColor" d="M 1543.75 776.052 C 1546.03 775.827 1548.23 775.916 1550.52 775.942 C 1551.39 776.434 1553.43 777.276 1553.71 778.235 C 1556.2 786.881 1556.17 796.442 1556.78 805.348 C 1558.65 832.92 1548.21 836.033 1525.5 825.222 C 1512.36 819.26 1494.25 814.513 1509.26 798.444 C 1519.79 787.167 1529.41 781.128 1543.75 776.052 z M 1511.94 809.178 L 1524.41 815.679 C 1530.41 818.863 1539.16 824.449 1545.71 823.762 C 1551.4 818.77 1549.15 786.599 1545.94 783.962 C 1530.34 790.162 1522.64 795.959 1511.94 809.178 z"/>
<path transform="translate(0,0)" fill="currentColor" d="M 1562.59 832.432 C 1570.67 830.86 1578.5 836.102 1580.12 844.168 C 1581.74 852.233 1576.55 860.097 1568.5 861.771 C 1560.37 863.461 1552.42 858.211 1550.78 850.073 C 1549.14 841.934 1554.44 834.018 1562.59 832.432 z M 1567.47 853.793 C 1569.95 853.054 1571.83 851.005 1572.36 848.461 C 1572.88 845.918 1571.96 843.293 1569.97 841.63 C 1567.97 839.968 1565.23 839.537 1562.82 840.51 C 1559.33 841.919 1557.57 845.817 1558.81 849.366 C 1560.05 852.915 1563.86 854.864 1567.47 853.793 z"/>
<path transform="translate(0,0)" fill="currentColor" d="M 449.778 756.879 C 499.539 755.177 541.296 794.058 543.143 843.813 C 544.99 893.568 506.23 935.438 456.481 937.429 C 406.526 939.429 364.447 900.475 362.592 850.515 C 360.737 800.555 399.813 758.589 449.778 756.879 z M 462.428 928.295 C 507.104 923.045 539.131 882.668 534.073 837.97 C 529.016 793.272 488.777 761.072 444.058 765.937 C 399.066 770.832 366.626 811.37 371.714 856.34 C 376.802 901.311 417.48 933.576 462.428 928.295 z"/>
<path transform="translate(0,0)" fill="currentColor" d="M 451.445 868.974 C 452.798 869.129 457.551 869.917 458.896 871.07 C 469.116 880.446 478.048 897.514 483.546 910.162 C 487.255 918.695 462.361 921.237 457.243 922.02 C 448.395 922.17 428.185 921.62 423.288 912.981 C 422.513 903.265 440.948 872.713 451.445 868.974 z M 431.905 910.322 C 441.951 912.826 447.553 913.337 457.941 913.106 C 465.133 912.282 468.317 911.619 475.311 909.708 C 470.361 901.703 459.335 878.485 451.23 877.403 C 444.909 886.432 437.498 900.433 431.905 910.322 z"/>
<path transform="translate(0,0)" fill="currentColor" d="M 464.584 775.994 C 482.724 774.903 504.031 789.25 514.019 803.693 C 520.403 812.927 504.465 818.199 498.491 821.059 C 487.365 826.564 464.271 839.799 460.161 819.28 C 458.548 811.229 460.45 782.543 464.584 775.994 z M 494.492 814.063 L 506.836 807.634 C 494.194 793.915 488.905 789.32 470.33 783.651 C 469.707 791.603 466.381 813.806 470.165 819.689 C 477.698 824.276 487.192 817.662 494.492 814.063 z"/>
<path transform="translate(0,0)" fill="currentColor" d="M 382.279 838.075 C 392.523 838.032 418.671 841.924 426.824 848.077 C 441.467 859.131 422.68 875.182 414.396 884.389 C 410.782 888.807 406.512 895.247 401.247 896.563 C 386.626 894.604 372.581 850.512 382.279 838.075 z M 400.883 888.102 L 413.02 873.654 C 418.208 867.878 425.178 862.873 421.037 854.954 C 415.435 850.391 395.737 848.406 386.852 846.455 C 388.133 864.966 389.975 872.497 400.883 888.102 z"/>
<path transform="translate(0,0)" fill="currentColor" d="M 516.581 838.309 C 519.996 837.845 521.632 837.827 524.309 839.568 C 533.219 850.754 519.545 895.015 504.27 895.634 C 500.483 893.729 498.103 890.489 495.216 887.275 C 459.341 848.192 468.961 845.737 516.581 838.309 z M 496.529 875.678 C 499.476 878.923 503.998 883.617 506.591 886.929 C 512.166 877.22 520.632 859.131 518.719 848.008 L 517.572 847 L 515.612 847.309 C 507.898 848.605 488.264 850.254 483.937 855.443 C 482.63 863.387 491.247 870.22 496.529 875.678 z"/>
<path transform="translate(0,0)" fill="currentColor" d="M 429.611 776.199 C 432.841 775.761 439.7 774.706 440.925 778.907 C 443.265 787.317 442.985 796.743 443.378 805.424 C 444.763 836.06 434.664 835.878 410.759 824.959 C 405.59 822.529 395.188 818.172 391.585 814.32 C 384.657 798.805 417.994 780.627 429.611 776.199 z M 398.857 809.404 L 412.591 816.77 C 418.613 819.869 426.155 824.762 432.676 823.829 C 438.158 819.085 436.069 786.638 432.878 784.008 C 417.776 789.832 408.836 796.536 398.857 809.404 z"/>
<path transform="translate(0,0)" fill="currentColor" d="M 449.825 832.411 C 457.93 830.922 465.719 836.246 467.276 844.337 C 468.833 852.429 463.576 860.263 455.497 861.888 C 447.322 863.532 439.374 858.198 437.799 850.01 C 436.223 841.821 441.624 833.918 449.825 832.411 z M 455.457 853.555 C 458.953 851.969 460.549 847.886 459.057 844.349 C 457.564 840.812 453.526 839.108 449.951 840.505 C 447.551 841.443 445.85 843.609 445.508 846.163 C 445.166 848.716 446.236 851.254 448.304 852.79 C 450.372 854.327 453.111 854.62 455.457 853.555 z"/>
</svg>