<svg xmlns="http://www.w3.org/2000/svg" version="1.1" style="display: block;" viewBox="0 0 2048 1365">

<path transform="translate(0,0)" fill="currentColor" fill-opacity="0.988235" d="M 1102.09 411.532 C 1117.51 410.848 1134.02 410.729 1149.57 410.899 C 1262.48 412.139 1379.29 411.895 1488.56 443.661 C 1504.72 448.358 1524.87 458.865 1540.59 465.93 C 1574.5 480.99 1608.13 496.684 1641.45 513.003 C 1654.99 519.519 1668.48 526.158 1681.9 532.92 C 1695.5 539.849 1714.01 550.681 1728.41 553.923 L 1919.16 595.37 C 1926.37 597.006 1950.25 599.429 1953.64 602.936 C 1975.11 625.171 1972.31 634.699 1973.25 661.587 C 1973.7 674.243 1978.67 707.11 1983.46 719.03 C 1984.84 722.473 1993.24 732.119 1996.07 735.373 L 1996.04 780.008 L 2004.08 788.983 C 1995.14 818.634 1998.08 836.339 1968.48 854.344 C 1962.81 857.792 1953.7 859.11 1947.15 860.191 C 1924.56 863.916 1718.77 889.353 1714.26 888.105 C 1710.6 887.091 1709.04 883.446 1707.22 880.402 C 1702.2 880.42 1696.92 880.635 1691.88 880.757 C 1673.72 910.474 1660.1 929.903 1628.88 947.435 C 1596.66 965.578 1558.57 970.213 1522.95 960.327 C 1483.43 949.078 1456.38 924.751 1436.69 889.422 C 1428.53 889.126 1419.49 889.237 1411.26 889.167 L 1403.47 895.626 C 1385.97 896.465 1364.02 895.787 1346.32 895.676 L 1250.48 895.239 L 937.25 894.989 C 894.421 894.993 523.057 897.633 515.066 894.28 C 512.621 890.328 511.954 888.847 507.073 888.736 C 498.493 888.54 489.805 888.605 481.22 888.447 C 468.762 907.822 459.16 918.949 440.224 932.857 C 410.517 954.464 373.513 963.543 337.179 958.138 C 288.28 950.594 263.439 926.94 235.697 889.016 C 194.84 887.559 86.3496 895.325 55.2465 871.355 C 37.6569 857.8 67.9353 843.602 64.9644 827.913 C 63.3802 819.547 57.2924 815.569 50.8934 810.953 C 51.1531 804.755 51.5508 798.172 51.5124 792.033 C 51.3635 750.65 60.172 710.07 67.2566 669.502 C 71.5111 645.14 70.9703 640.824 93.4102 630.463 C 89.1929 628.058 87.8379 627.563 85.0951 623.518 C 84.2767 612.819 115.971 622.581 123.678 619.864 C 130.713 617.384 140.639 614.202 147.887 612.51 C 269.014 584.241 394.855 581.117 518.469 572.326 C 530.654 571.46 551.734 577.19 562.911 573.487 C 579.231 568.078 597.86 554.827 613.041 545.974 L 663.294 517.127 C 691.557 500.78 720.001 484.747 748.62 469.031 C 779.053 452.35 794.001 443.361 828.487 435.767 C 917.979 416.058 1010.75 412.999 1102.09 411.532 z M 709.489 818.605 L 1019.18 810.383 C 1018.71 763.726 1016.64 716.924 1019.61 670.391 C 1021.04 648.026 1024.52 625.755 1027.7 603.561 L 915.235 604.461 C 859.243 606.448 800.629 605.4 743.826 606.973 C 740.835 611.921 738.679 615.434 731.67 616.568 C 722.281 618.086 704.116 619.567 695.192 615.781 C 693.504 615.065 691.579 609.705 690.863 607.911 C 668.186 608.04 645.699 607.974 623.036 609.009 C 600.451 650.677 605.542 771.377 611.766 821.187 L 709.489 818.605 z M 1477.74 576.439 C 1367.65 581.784 1254.94 583.057 1144.62 585.22 L 1068.89 586.893 C 1060.79 587.047 1049.62 584.87 1042.79 588.62 C 1040.75 591.078 1040.55 592.847 1039.72 595.907 C 1101.54 595.061 1161.7 596.52 1223.38 597.137 L 1283.08 597.846 C 1293.2 598.017 1308.13 597.837 1317.6 599.463 C 1293.27 604.74 1233.05 603.955 1205.89 603.989 L 1036.74 603.762 C 1025.29 655.472 1024.39 718.632 1026.57 771.75 L 1027.15 809.878 L 1346.78 802.001 C 1401.35 737.972 1450.19 669.265 1492.73 596.673 C 1435.91 598.28 1380.7 605.227 1326.06 621.293 C 1321.84 622.534 1309.96 625.248 1306.65 622.418 C 1311.6 618.291 1328.97 612.438 1335.56 610.237 C 1389.16 592.335 1439.7 588.693 1495.53 587.05 C 1496.27 583.272 1497.12 579.628 1497.35 575.788 L 1477.74 576.439 z M 63.7366 799.941 C 65.6349 792.86 64.6843 769.201 69.7243 767.682 C 87.7157 762.26 115.74 762.805 130.796 774.637 C 149.115 775.506 166.666 774.602 184.672 775.051 C 201.485 724.989 227.334 687.574 275.941 663.317 C 319.87 641.483 370.669 637.977 417.182 653.569 C 495.632 680.032 535.97 752.19 537.553 831.59 C 537.708 839.376 538.544 849.059 536.216 856.518 L 535.007 857.438 C 530.616 850.964 529.79 815.855 528.502 805.148 C 505.835 616.691 249.18 593.948 191.766 775.502 L 205.629 775.185 C 216.163 746.268 228.533 724.706 251.621 704.751 C 330.137 636.887 457.8 657.983 501.662 755.096 C 523.644 803.766 515.58 838.056 522.486 886.272 L 744.5 886.125 L 1398.86 886.067 C 1402.08 864.977 1404.43 843.764 1405.9 822.481 C 1382.38 823.225 1358.85 823.731 1335.32 823.997 C 1328 831.509 1319.21 840.62 1310.23 845.929 C 1288.42 858.831 1248.93 857.594 1223.37 857.924 L 1030.97 859.047 L 787.195 863.839 C 720.389 864.608 653.579 865.003 586.769 865.026 C 578.423 865.04 526.151 865.823 522.832 864.35 C 521.13 861.585 521.476 862.859 522.208 859.018 C 524.466 857.796 600.598 858.442 608.884 858.459 C 607.9 850.907 606.921 841.632 605.587 834.283 C 593.973 834.272 553.496 835.858 545.74 833.061 C 543.124 830.111 543.808 831.546 543.183 827.622 C 546.11 823.378 550.828 822.361 555.817 822.186 C 571.892 821.62 588.213 821.868 604.292 821.804 C 597.909 763.452 593.098 664.062 613.67 609.437 C 572.448 608.894 531.432 611.217 489.442 611.797 C 378.95 613.322 267.944 623.957 161.383 654.564 C 156.798 655.881 153.331 659.281 148.665 659.651 C 142.883 644.198 232.815 628.849 245.987 626.181 C 365.244 602.025 487.107 604.857 608.125 600.858 C 615.813 600.604 618.544 601.674 622.75 594.827 C 621.604 594.521 621.911 594.49 621.526 594.606 C 607.611 595.609 593.737 596.161 579.8 596.691 C 450.885 601.586 322.423 602.069 195.259 626.943 C 180.152 629.874 165.115 633.162 150.163 636.805 C 141.325 638.983 111.564 648.783 104.572 643.086 C 104.741 639.838 104.91 636.87 105.251 633.618 C 97.7401 637.184 89.5261 640.714 82.7824 645.485 C 73.3759 669.648 63.9528 742.598 60.557 771.415 C 59.6486 779.124 61.8366 792.059 63.7366 799.941 z M 364.521 950.721 C 437.512 947.348 493.946 885.437 490.561 812.446 C 487.176 739.456 425.255 683.033 352.265 686.43 C 279.292 689.827 222.886 751.73 226.27 824.703 C 229.654 897.676 291.548 954.093 364.521 950.721 z M 1571.52 956.286 C 1643.6 950.098 1696.99 886.607 1690.72 814.533 C 1684.45 742.459 1620.9 689.14 1548.83 695.489 C 1476.88 701.828 1423.66 765.256 1429.92 837.216 C 1436.18 909.177 1499.55 962.465 1571.52 956.286 z M 635.453 565.296 C 642.079 568.34 646.135 570.099 652.262 574.214 C 684.518 552.606 717.321 531.825 750.64 511.894 C 777.186 495.994 803.579 479.665 832.641 468.667 C 937.216 429.09 1112.82 431.922 1224.27 438.371 C 1261.96 440.552 1300.68 442.451 1337.8 449.665 C 1392.61 460.316 1425.67 485.151 1469.62 517.675 C 1479.43 525.078 1490.08 532.654 1499.23 540.801 C 1509.82 550.237 1533.48 568.276 1507.37 575.496 L 1505.53 587.144 C 1622.51 585.016 1739.46 593.031 1855.05 611.1 C 1869.96 613.222 1884.78 615.98 1899.46 619.366 C 1906.74 621.101 1931.43 630.456 1935.01 628.882 C 1917.71 613.257 1773.45 592.577 1740.9 582.206 C 1704.34 570.558 1686.27 559.48 1652.23 542.08 C 1626.12 528.794 1599.83 515.861 1573.37 503.284 C 1532.9 484.127 1473.54 455.33 1432.4 442.811 C 1383.57 427.953 1304.65 424.547 1252.8 422.699 C 1194.98 420.634 1137.12 420.224 1079.27 421.469 C 998.524 424.096 914.563 428.12 835.345 444.037 C 829.396 445.233 812.924 447.845 808.594 451.201 C 812.49 452.058 815.521 452.302 818.523 454.809 L 818.719 456.451 C 812.29 462.947 758.489 491.105 746.732 498.068 C 727.174 509.537 707.728 521.194 688.396 533.037 C 671.08 543.808 653.306 555.654 635.453 565.296 z M 1325.25 570.827 L 1330.98 570.637 C 1335.07 565.05 1335.08 484.385 1335.08 470.78 C 1252.7 458.916 1169.51 453.655 1086.29 455.046 C 1082.92 495.347 1080.45 535.718 1078.89 576.13 C 1160.95 575.604 1243.32 571.786 1325.25 570.827 z M 1688.17 708.197 C 1703.06 707.267 1718.58 705.692 1733.45 704.017 C 1780.52 698.718 1828.23 698.06 1875.3 693.942 C 1868.83 679.129 1851.19 651.747 1854.85 636.061 C 1856.91 627.244 1873.97 629.021 1879.98 625.755 C 1867.45 621.959 1829.83 617.172 1815.28 615.01 C 1709.65 599.322 1608.06 595.53 1501.76 595.717 C 1495.31 606.32 1488.84 616.909 1482.41 627.531 C 1445.08 689.264 1400.19 744.959 1356.07 801.733 C 1366.47 801.206 1376.88 800.949 1387.29 800.961 C 1399.2 750.482 1430.57 706.753 1474.57 679.299 C 1528 646.481 1584.39 646.575 1640.55 672.319 C 1659.46 682.705 1673.72 691.726 1688.17 708.197 z M 795.071 573.468 C 792.122 578.506 791.412 579.383 786.747 583.114 L 1004.79 577.628 C 1010.49 553.173 1015.88 528.646 1020.95 504.052 C 1023.88 489.771 1027.13 470.774 1030.66 456.994 L 1016.17 457.561 C 920.574 462.3 847.253 473.448 765.009 525.91 C 789.159 527.938 802.648 550.932 795.071 573.468 z M 1694.53 714.605 C 1715.44 741.613 1721 758.441 1732.98 790.269 C 1756.65 789.895 1781.49 788.042 1805.25 786.844 L 1988.05 777.066 C 1988.14 765.452 1988.55 753.842 1989.3 742.251 C 1977.03 742.252 1958.2 741.827 1946.58 736.805 C 1927.72 728.655 1909.69 714.678 1890.13 706.783 C 1885.64 704.97 1884.4 700.441 1878.95 700.461 C 1817.53 704.901 1755.65 707.467 1694.53 714.605 z M 613.322 834.04 C 613.978 842.072 613.808 850.063 617.265 857.142 C 620.455 858.976 619.909 858.363 624.11 858.458 C 693.307 858.47 762.503 857.873 831.69 856.666 C 895.736 855.438 961.548 853.104 1025.45 852.886 C 1024.13 844.454 1022.81 836.985 1022.45 828.444 L 1011.34 828.53 L 613.322 834.04 z M 1029.63 828.087 C 1030.64 835.831 1032.1 845.038 1032.47 852.724 L 1069.25 852.79 L 1182.01 852.251 C 1215.53 852.02 1249.85 853.051 1283.03 848.384 C 1302.83 845.599 1312.39 837.241 1326.11 824.07 C 1313.98 824.015 1301.85 824.147 1289.72 824.467 C 1204.92 826.655 1114.58 827.966 1029.63 828.087 z M 1734.77 810.447 C 1735.19 819.347 1734.72 836.662 1739.27 843.693 C 1741.58 845.235 1741.98 845.096 1744.87 845.293 C 1763.48 842.404 1787.21 840.452 1806.2 838.568 C 1845.88 834.589 1885.63 831.361 1925.43 828.886 C 1939.43 815.257 1955.74 804.825 1976.19 804.173 C 1981.2 804.013 1985.52 805.652 1990.41 806.253 C 1992.59 803.647 1993.06 802.068 1991.61 798.792 C 1989.65 798.512 1989.53 798.397 1987.57 798.471 C 1936.37 800.319 1885.18 802.606 1834.02 805.332 C 1802.61 806.864 1765.66 807.65 1734.77 810.447 z M 183.68 780.636 C 166.574 780.629 148.871 780.388 131.816 780.68 C 138.269 799.608 143.839 821.222 146.588 840.992 C 148.5 854.743 147.332 859.243 133.69 860.514 C 113.981 862.091 94.9738 862.637 75.2317 861.874 C 72.5378 861.77 61.8384 861.108 60.0972 862.005 C 60.6381 864.533 61.3622 865.266 63.5824 866.724 C 85.6638 881.232 175.955 882.026 204.551 879.687 C 197.964 852.821 198.197 807.86 204.3 780.77 L 190.39 780.389 C 187.16 793.545 185.493 807.037 185.424 820.585 C 185.39 828.935 189.271 868.799 188.108 870.634 C 172.797 868.134 180.115 795.5 183.276 782.287 L 183.68 780.636 z M 1470.32 563.224 C 1473.04 561.9 1475.95 560.879 1477.74 558.588 C 1476.69 552.32 1448.87 531.822 1442.45 526.768 C 1418.54 507.93 1392.96 488.014 1363.75 478.442 C 1364.18 509.18 1363.15 539.331 1362.55 570.069 C 1386.96 569.154 1450.32 568.904 1470.32 563.224 z M 1394.42 801.086 C 1399.63 800.749 1404.84 800.369 1410.05 799.947 C 1418.43 775.531 1425.24 755.224 1442.08 735.017 C 1473.23 697.657 1511.97 678.062 1560.23 675.222 C 1641.81 678.652 1685.04 717.134 1712.82 791.52 C 1716.33 791.553 1720.69 791.724 1724.11 791.612 C 1708.12 739.983 1688.49 707.696 1639.13 680.342 C 1615.34 667.159 1578.58 658.4 1551.28 661.401 C 1504.5 666.059 1461.52 689.229 1431.92 725.751 C 1412.45 749.385 1402.53 771.979 1394.42 801.086 z M 1940.41 839.084 C 1951.91 827.315 1960.71 822.928 1975.83 817.297 C 1979.74 818.412 1983.5 820.003 1987.26 818.624 C 1989.62 816.373 1988.98 817.737 1989.09 814.321 L 1987.88 811.992 L 1985.29 811.529 C 1963.47 812.573 1940.06 821.881 1928.68 841.569 C 1936.22 848.609 1938.02 850.062 1948.75 850.026 L 1950.43 848.483 C 1947.75 844.345 1944.02 842.352 1940.41 839.084 z M 1034.17 576.927 L 1036.47 576.072 C 1044.39 542.058 1051.52 491.156 1057.05 455.81 L 1037.5 456.092 C 1033.66 477.744 1029.37 499.316 1024.65 520.794 C 1020.66 538.759 1015.4 559.361 1012.06 577.252 L 1034.17 576.927 z M 1920.09 714.399 C 1926.26 717.629 1932.74 721.154 1939.02 724.096 C 1949.71 727.948 1970.79 733.069 1982.17 733.747 C 1980.93 731.359 1972.58 713.687 1972.23 713.311 C 1953.63 719.388 1939.02 716.953 1920.09 714.399 z M 1954.65 643.768 C 1958.3 651.115 1960.56 657.323 1962.65 665.19 C 1963.4 668.014 1965.42 678.646 1966.6 680.01 L 1967.06 679.407 C 1966.12 671.468 1964.12 646.848 1960.02 642.542 C 1954.96 641.782 1949.89 641.055 1944.81 640.361 C 1935.89 639.181 1862.54 626.475 1862.38 643.678 C 1862.28 653.122 1882.17 690.038 1889.94 697.445 C 1899.73 707.626 1938.14 707.108 1952.77 708.444 C 1956.85 708.816 1962.55 707.801 1965.67 705.24 L 1966.2 703.426 C 1954.53 695.174 1894.88 713.532 1887.85 683.002 C 1892.61 666.116 1953.61 678.966 1959.6 671.263 C 1950.91 668.002 1891.13 669.286 1880.38 671.13 C 1878.74 667.134 1874.38 657.998 1874.92 654.11 C 1880.31 642.717 1907.9 642.744 1919.27 642.609 C 1930.67 642.712 1943.44 642.583 1954.65 643.768 z M 1494.19 456.135 C 1494.92 456.889 1496.21 458.136 1497.17 458.565 C 1558.44 486.002 1619.37 514.654 1679.03 545.427 C 1684.68 548.341 1695.67 556.377 1701.08 553.837 C 1694.9 542.935 1522.4 467.068 1498.52 456.159 C 1497.35 455.628 1495.45 455.897 1494.19 456.135 z M 105.007 773.969 C 75.1937 773.014 73.1252 770.99 71.3419 801.578 C 71.1701 804.525 64.729 803.97 63.4486 807.777 C 64.7549 811.995 72.7347 822.189 75.8654 825.561 C 82.7592 826.771 85.4938 827.1 92.4698 827.104 C 114.654 831.341 134.346 817.856 133.586 849.327 C 135.719 850.564 134.54 850.255 137.319 849.826 C 143.693 842.517 125.257 787.397 120.29 775.965 C 115.764 774.948 109.74 774.475 105.007 773.969 z M 706.561 553.009 C 714.579 545.386 724.388 540.452 734.076 535.288 C 761.779 520.037 790.265 499.407 819.919 486.405 C 878.745 460.611 945.005 453.958 1008.45 449.281 C 1023.98 448.136 1039.11 448.171 1054.57 446.952 C 1080.88 447.655 1111.04 447.105 1137.53 446.817 C 1174.77 447.468 1211.99 449.089 1249.15 451.678 C 1277.69 453.552 1318.18 456.61 1345.83 463.05 C 1359.69 466.322 1373.16 471.059 1386.01 477.181 C 1405.71 486.51 1480.16 540.374 1486.92 559.189 C 1486.51 563.135 1485.22 563.105 1481.7 566.514 L 1482.5 566.981 C 1489.45 566.708 1503.05 566.665 1508.86 563.652 C 1508.2 556.376 1470.18 529.257 1463.1 523.993 C 1432.68 501.366 1402.16 477.684 1365.41 466.426 C 1317.28 451.681 1265.36 450.476 1215.42 447.142 C 1169.37 444.333 1122.47 442.899 1076.43 445.077 C 1069.86 444.743 1048.87 444.73 1042.66 445.832 C 977.63 447.627 897.037 453.448 836.768 477.049 C 803.755 489.976 762.482 514.453 732.344 533.531 C 724.17 538.652 715.495 543.887 707.709 549.505 C 697.332 555.505 661.003 577.327 654.878 584.394 C 661.988 585.095 697.991 560.112 704.31 554.929 C 705.072 554.303 705.823 553.663 706.561 553.009 z M 1877.98 793.053 C 1857.58 793.67 1836.76 795.75 1816.44 796.204 L 1810 796.716 L 1809.49 797.483 C 1817.32 798.444 1820.34 798.025 1828.01 797.205 C 1845.38 796.321 1867.22 796.012 1884.04 794.224 C 1907.22 793.482 1930.4 792.542 1953.56 791.405 C 1958.46 791.138 1988.15 790.392 1990.3 787.557 C 1984.95 786.55 1957.71 789.005 1949.99 789.464 C 1925.99 790.785 1901.99 791.982 1877.98 793.053 z M 884.226 823.868 C 896.156 824.132 908.091 824.115 920.02 823.815 C 925.984 824.833 944.725 823.648 951.012 823.224 C 963.281 823.181 1008.1 823.071 1018.97 821.51 C 995.154 819.704 960.997 821.518 936.461 822.165 C 914.701 821.146 870.983 822.301 848.986 823.787 C 827.255 823.891 801.611 823.784 779.952 825.547 C 790.595 826.652 801.091 825.088 811.203 825.692 C 815.675 826.395 825.136 825.526 830.012 825.237 C 842.357 825.097 854.913 825.081 867.234 824.792 C 871.06 825.184 880.014 824.208 884.226 823.868 z M 1936.25 694.274 C 1944.85 694.769 1953.45 695.119 1962.06 695.323 C 1961.24 690.74 1960.46 685.965 1959.56 681.416 C 1948.75 681.1 1937.93 681.116 1927.13 681.465 C 1917.31 681.761 1906.23 681.808 1896.63 683.266 C 1909.02 695.962 1918.16 693.197 1936.25 694.274 z M 104.359 825.767 C 86.0595 816.832 67.7797 776.197 98.8534 775.131 C 107.881 776.611 114.403 779.209 119.406 787.231 C 124.073 794.713 134.256 817.341 127.189 824.331 C 118.908 827.468 112.439 823.712 104.359 825.767 z M 1080.16 455.055 L 1062.42 455.278 C 1056.89 492.864 1050.3 540.166 1042.61 576.98 L 1059.94 576.914 L 1071.9 576.766 C 1074.36 537.917 1076.19 493.378 1080.16 455.055 z M 1053.07 821.137 L 1079.12 820.954 L 1099.1 821.134 C 1107.7 821.112 1114.44 821.193 1122.99 820.125 L 1148.52 819.856 C 1158.21 821.436 1225.36 819.477 1236.74 818.17 L 1263.02 817.78 C 1268.17 818.329 1270.21 817.876 1275.3 817.101 C 1294.35 817.158 1314.94 817.623 1333.76 815.898 C 1331.72 814.917 1325.4 815.268 1322.77 815.275 C 1318.97 814.521 1294.72 814.92 1291.34 815.785 L 1262.72 816.174 C 1257.33 815.998 1253.37 816.359 1247.98 816.813 C 1241.14 817.261 1230.57 817.014 1223.44 817.077 C 1217.03 816.535 1133.06 818.338 1131.35 818.871 L 1122.78 819.075 L 1099.43 819.972 C 1093.02 819.816 1085.86 820.061 1079.39 820.138 C 1066.95 819.717 1053.2 820.084 1040.67 820.166 C 1037.49 819.93 1035.23 819.572 1032.09 820.176 L 1034.15 820.175 L 1032.15 820.725 C 1038.54 822.288 1046.67 822.466 1053.07 821.137 z M 1393.26 814.002 C 1387.01 814.098 1380.77 814.154 1374.52 814.172 C 1366.28 813.526 1358.23 814.276 1349.98 814.803 C 1348.24 814.945 1344.83 814.942 1343.62 815.742 C 1356.07 816.711 1380.73 816.051 1393.05 815.017 C 1396.15 815.193 1402.93 816.21 1404.68 813.581 C 1400.69 812.391 1397.45 813.336 1393.26 814.002 z M 706.445 592.385 C 703.571 599.196 702.549 602.644 700.62 609.712 C 709.101 609.586 717.585 609.715 726.059 610.1 C 736.968 609.239 737.901 600.451 741.314 591.3 C 734.989 591.177 725.61 590.713 719.565 591.425 L 706.445 592.385 z M 697.935 570.247 C 692.818 573.428 681.152 580.066 677.717 583.666 L 677.687 584.744 L 681.75 584.844 C 686.507 584.716 695.435 585.498 698.005 582.823 L 698.881 583.687 C 696.518 578.856 691.61 580.203 698.278 570.413 L 697.935 570.247 z M 1945.77 631.029 L 1965.04 636.569 C 1964.77 628.349 1953.42 613.617 1947.46 608.225 C 1910.08 603.088 1870.7 592.195 1833.09 584.04 C 1808.47 578.63 1783.81 573.351 1759.13 568.204 C 1745.12 565.283 1727.7 562.149 1714.15 558.594 L 1711.58 561.791 C 1717.22 570.184 1786.01 584.031 1798.27 586.477 C 1821.6 591.053 1844.91 595.776 1868.19 600.646 C 1889.7 605.168 1917.14 611.082 1937.42 620.845 C 1940.34 622.247 1944.11 628.172 1945.77 631.029 z M 1357.76 476.229 C 1352.6 474.813 1347.32 473.299 1342.13 472.048 C 1342.15 504.953 1340.9 537.847 1338.39 570.656 L 1354.8 570.138 C 1357.13 566.525 1357.91 484.452 1357.76 476.229 z M 679.309 595.45 C 669.028 595.949 639.49 594.779 632.877 598.603 L 632.276 599.787 C 636.401 600.639 644.115 600.142 648.611 600.025 C 659.4 600.026 685.643 600.712 694.999 598.206 L 694.928 596.497 C 688.802 594.586 685.798 595.083 679.309 595.45 z M 789.036 565.654 C 781.726 565.862 774.484 566.002 767.192 566.581 C 754.395 567.27 706.667 565.976 704.016 579.557 C 707.463 586.321 717.043 584.092 724.339 583.955 C 749.806 583.974 774.618 590.22 789.036 565.654 z M 574.857 587.073 C 582.474 586.757 590.685 586.27 598.25 586.201 L 638.875 584.729 C 642.097 582.384 645.485 580.068 648.419 577.394 C 645.8 576.525 628.771 568.956 628.335 568.988 C 612.351 575.456 584.444 580.652 574.857 587.073 z M 790.777 557.955 C 785.072 544.321 778.834 534.143 762.813 533.337 C 748.182 535.173 720.497 547.613 712.735 560.47 C 715.737 563.272 734.539 560.716 739.759 560.277 C 756.466 559.548 774.142 559.052 790.777 557.955 z M 1029.35 595.928 C 1030.47 592.026 1031.72 590.502 1030.46 587.434 L 1026.99 587.487 C 961.005 589.485 895.006 590.992 828.999 592.009 L 776.097 593 C 768.341 593.108 752.776 591.132 747.764 596.43 L 747.659 598.327 C 748.957 598.635 749.429 598.848 750.751 598.88 C 843.603 596.765 936.477 595.781 1029.35 595.928 z M 550.046 586.519 C 534.912 583.473 525.558 580.317 510.097 581.427 C 418.182 587.795 324.882 592.39 233.618 604.691 C 214.437 607.277 124.829 622.732 114.949 632.173 L 113.709 636.849 C 118.246 639.895 139.354 632.131 145.171 630.357 C 174.205 622.97 200.714 616.698 230.32 611.84 C 336.448 594.427 443.05 593.466 550.046 586.519 z M 1950.29 650.993 C 1937.05 651.146 1918.54 648.906 1907.56 649.38 C 1898.28 650.45 1891.72 650.943 1883.12 654.948 L 1882.25 656.407 C 1883.31 659.281 1883.77 661.78 1886.15 663.455 C 1894.77 664.478 1918.41 663.222 1928.5 663.143 C 1936.34 663.022 1945.35 663.141 1953.05 662.183 L 1950.29 650.993 z M 797.656 453.053 C 778.716 462.565 594.988 563.162 589.065 570.47 C 592.297 571.006 593.47 570.598 596.771 570.05 C 639.389 558.409 651.301 546.24 688.863 523.063 C 709.353 510.626 729.942 498.352 750.628 486.244 C 765.73 477.375 790.274 466.181 802.603 458.179 C 800.68 458.383 799.501 458.506 797.527 458.485 C 796.649 455.583 796.952 456.392 797.656 453.053 z M 1716.86 810.56 L 1715.16 811.521 C 1717.76 837.181 1718.79 852.491 1718.94 878.223 C 1734.59 878.354 1769.85 873.426 1786.78 871.489 C 1831.08 866.457 1875.32 860.96 1919.5 854.999 C 1923.28 854.446 1924.85 854.872 1927.46 852.749 C 1926.98 848.94 1924.99 847.115 1923.88 844.522 C 1923.31 843.184 1925.17 840.868 1922.97 837.548 C 1916.71 835.757 1897.94 838.043 1890.34 838.683 C 1861.8 840.89 1833.3 843.608 1804.86 846.836 C 1795.59 847.919 1785.13 849.073 1775.95 850.264 C 1724.95 856.88 1731.43 853.418 1727.81 809.813 L 1716.86 810.56 z"/>
<path transform="translate(0,0)" fill="currentColor" fill-opacity="0.988235" d="M 961.12 619.231 C 970.768 618.404 978.204 620.289 985.001 627.326 C 993.28 627.975 1005.64 628.703 1009.27 637.679 C 1008.94 649.176 994.192 649.377 985.603 650.283 C 979.369 656.696 977.496 657.396 968.781 658.784 C 957.39 657.758 954.927 656.849 945.368 650.393 C 938.449 650.088 920.479 649.548 919.493 641.399 C 917.582 625.605 937.605 629.983 943.73 627.299 C 952.606 623.408 949.591 621.252 961.12 619.231 z M 991.303 641.874 C 995.099 640.787 996.196 641.17 998.452 638.523 C 995.159 634.654 946.784 634.729 939.241 635.248 C 935.67 635.84 932.253 635.95 929.568 638.147 L 929.744 640.109 C 936.741 645.335 980.692 642.719 991.303 641.874 z"/>
<path transform="translate(0,0)" fill="currentColor" fill-opacity="0.988235" d="M 1394.58 620.34 C 1406.98 619.077 1415.73 617.962 1424.21 628.438 C 1432.67 629.063 1446.76 629.185 1450.16 639.013 C 1448.85 650.692 1434.49 650.508 1425.28 651.392 C 1420.91 655.946 1418.84 657.039 1413.22 659.4 C 1398.63 661.727 1394.9 660.981 1383.53 651.138 C 1378.16 650.651 1367.15 650.128 1363.97 646.572 C 1349.54 630.478 1376.99 628.818 1384.47 628.431 C 1388.62 623.791 1389.08 623.363 1394.58 620.34 z M 1434.25 642.932 C 1437.62 642.083 1438.26 642.586 1439.9 640.461 C 1436.57 633.268 1383.47 635.775 1375 636.284 C 1371.55 637.32 1370.92 636.882 1368.89 639.345 C 1373.12 645.318 1425.1 643.96 1434.25 642.932 z M 1413.35 651.582 C 1409.04 650.432 1396.49 650.671 1391.94 651.313 C 1399.25 654.079 1405.85 653.77 1413.35 651.582 z"/>
<path transform="translate(0,0)" fill="currentColor" fill-opacity="0.0352941" d="M 1391.94 651.313 C 1396.49 650.671 1409.04 650.432 1413.35 651.582 C 1405.85 653.77 1399.25 654.079 1391.94 651.313 z"/>
<path transform="translate(0,0)" fill="currentColor" d="M 540.968 647.547 C 550.182 647.217 589.11 643.297 592.814 650.997 C 592.682 651.536 575.162 672.325 575.357 672.202 C 562.721 680.12 535.323 677.189 520.27 677.109 C 503.673 677.222 490.587 678.243 477.339 666.284 C 472.467 661.885 465.562 659.229 469.1 651.542 C 476.319 647.508 530.455 647.753 540.968 647.547 z M 579.29 656.184 C 574.958 656.343 560.946 656.46 558.088 658.509 C 550.468 663.972 553.174 663.907 543.205 666.641 L 539.066 667.055 C 533.161 666.569 515.146 666.962 509.142 667.247 L 505.83 666.77 C 499.188 663.6 496.578 661.519 490.855 656.772 L 477.891 656.219 C 481.761 659.434 492.028 667.992 496.872 668.079 C 503.769 669.642 558.151 669.681 564.544 668.112 C 571.978 667.538 575.107 661.617 579.29 656.184 z"/>
<path transform="translate(0,0)" fill="currentColor" fill-opacity="0.0941176" d="M 505.83 666.77 L 509.142 667.247 C 513.545 668.835 534.374 668.226 539.066 667.055 L 543.205 666.641 C 547.077 668.717 558.904 667.734 564.544 668.112 C 558.151 669.681 503.769 669.642 496.872 668.079 C 500.44 668.062 502.688 668.402 505.83 666.77 z"/>
<path transform="translate(0,0)" fill="currentColor" fill-opacity="0.768627" d="M 509.142 667.247 C 515.146 666.962 533.161 666.569 539.066 667.055 C 534.374 668.226 513.545 668.835 509.142 667.247 z"/>
<path transform="translate(0,0)" fill="currentColor" fill-opacity="0.988235" d="M 109.662 657.089 C 131.78 655.961 124.96 690.342 120.861 702.395 C 116.428 715.431 109.298 735.228 93.4748 736.443 C 92.8974 736.391 92.3201 736.339 91.7427 736.287 L 90.9837 736.193 C 70.183 733.778 67.4818 672.343 109.662 657.089 z M 94.1567 728.663 C 105 723.817 109.455 714.362 113.534 703.657 C 116.986 694.597 127.46 665.369 108.577 666.933 C 101.506 670.116 98.3707 671.559 93.172 677.332 C 82.091 689.638 75.6742 719.745 94.1567 728.663 z"/>
<path transform="translate(0,0)" fill="currentColor" fill-opacity="0.988235" d="M 156.464 661.201 C 199.294 657.453 180.726 701.16 151.565 714.459 C 119.554 722.354 119.09 674.339 156.464 661.201 z M 152.085 704.061 C 170.861 695.033 191.413 668.416 156.681 671.098 C 148.093 673.473 141.658 676.389 137.677 684.788 C 130.531 699.863 134.528 709.929 152.085 704.061 z"/>
<path transform="translate(0,0)" fill="currentColor" fill-opacity="0.988235" d="M 110.664 745.405 C 116.139 745.035 134.917 743.642 135.754 751.336 C 130.72 755.826 103.486 757.398 94.7907 758.29 C 89.7188 758.914 74.6392 761.575 71.973 756.566 C 76.6046 748.9 101.823 746.226 110.664 745.405 z"/>
<path transform="translate(0,0)" fill="currentColor" fill-opacity="0.988235" d="M 343.686 709.636 C 404.329 701.266 460.2 743.846 468.21 804.537 C 476.221 865.228 433.312 920.846 372.575 928.497 C 312.343 936.085 257.289 893.611 249.345 833.425 C 241.401 773.24 283.549 717.936 343.686 709.636 z M 364.531 920.529 C 420.711 917.234 463.617 869.076 460.432 812.89 C 457.247 756.704 409.174 713.704 352.981 716.779 C 296.634 719.863 253.489 768.098 256.682 824.44 C 259.876 880.782 308.196 923.833 364.531 920.529 z"/>
<path transform="translate(0,0)" fill="currentColor" d="M 350.797 854.324 C 355.806 854.132 367.66 852.899 369.874 858.11 C 374.21 868.32 382.083 898.299 379.749 908.253 C 376.098 911.931 369.368 912.205 364.243 912.882 C 352.806 914.468 344.835 913.886 333.669 911.409 C 337.223 895.562 344.244 868.94 350.797 854.324 z M 360.809 890.098 C 363.909 887.629 363.723 888.658 364.332 885.206 C 364.948 881.717 362.024 873.258 360.101 870.627 C 358.187 875.722 355.404 881.574 355.892 886.855 C 357.342 889.524 357.054 888.708 360.809 890.098 z"/>
<path transform="translate(0,0)" fill="currentColor" d="M 264.108 821.149 C 277.906 821.614 292.074 821.873 305.878 822.496 C 313.119 822.822 325.701 822.855 325.546 832.436 C 322.41 839.11 315.944 841.786 309.542 845.509 C 298.901 852.561 286.349 860.071 274.326 864.302 C 265.175 847.792 263.561 839.503 264.108 821.149 z M 302.378 837.321 L 304.211 835.467 C 301.194 834.05 294.207 834.791 290.481 834.942 C 291.156 838.769 290.548 839.501 293.029 841.413 C 296.527 840.904 299.233 839.054 302.378 837.321 z"/>
<path transform="translate(0,0)" fill="currentColor" d="M 410.693 817.409 C 424.028 816.659 440.487 816.862 453.378 820.307 C 452.887 828.961 449.274 862.438 440.387 863.996 C 427.979 853.594 417.7 847.346 404.321 838.427 C 399.924 835.496 395.751 831.008 394.846 825.59 C 396.884 817.324 403.377 817.934 410.693 817.409 z M 428.398 837.574 L 428.874 832.894 C 425.466 828.984 418.99 830.605 413.947 830.986 C 418.319 833.907 423.493 838.362 428.398 837.574 z"/>
<path transform="translate(0,0)" fill="currentColor" d="M 390.154 731.545 C 404.272 733.981 418.832 744.796 427.735 755.722 C 422.171 761.317 406.488 772.9 399.699 778.183 C 399.125 778.699 398.549 779.212 397.968 779.72 C 392.656 784.371 386.742 789.374 379.372 788.878 C 377.625 787.78 376.185 787.285 375.732 785.052 C 373.314 773.107 385.417 741.633 390.154 731.545 z"/>
<path transform="translate(0,0)" fill="currentColor" d="M 323.916 732.895 C 326.778 734.896 336.406 772.382 338.824 778.794 C 340.535 783.334 339.719 788.797 334.761 791.451 C 327.661 791.851 322.359 786.9 316.601 782.742 C 307.169 775.67 297.419 765.67 290.23 756.361 C 300.567 744.542 310.167 739.666 323.916 732.895 z M 325.821 776.222 L 327.305 776.334 C 326.539 773.072 324.686 764.998 322.462 762.79 C 319.154 764.839 318.609 764.401 317.334 767.537 C 318.3 771.216 322.56 773.725 325.821 776.222 z"/>
<path transform="translate(0,0)" fill="currentColor" d="M 382.055 840.003 C 400.293 841.996 417.487 863.418 427.351 877.905 C 424.19 887.343 423.153 888.195 415.583 894.848 C 411.699 897.943 409.046 899.076 404.606 901.252 C 393.477 886.544 383.693 867.635 379.725 849.295 C 378.891 845.44 380.056 843.278 382.055 840.003 z M 404.344 872.186 C 403.376 867.556 395.351 857.813 391.276 855.592 C 394.217 860.962 397.226 867.128 401.289 871.613 L 404.344 872.186 z"/>
<path transform="translate(0,0)" fill="currentColor" fill-opacity="0.0431373" d="M 391.276 855.592 C 395.351 857.813 403.376 867.556 404.344 872.186 L 401.289 871.613 C 397.226 867.128 394.217 860.962 391.276 855.592 z"/>
<path transform="translate(0,0)" fill="currentColor" fill-opacity="0.988235" d="M 277.676 772.55 C 285.474 774.203 326.797 798.825 329.797 805.726 C 328.034 809.547 324.169 812.529 320.952 815.478 C 308.507 814.675 280.261 809.538 269.935 802.028 C 260.082 794.861 270.965 779.386 277.676 772.55 z M 309.68 804.325 L 310.361 802.989 C 306.795 799.804 298.313 795.545 293.816 793.086 L 291.922 797.161 C 294.119 802.483 304.128 802.724 309.68 804.325 z"/>
<path transform="translate(0,0)" fill="currentColor" d="M 334.595 843.963 C 338.881 844.878 338.921 844.849 341.119 847.455 C 342.109 852.125 339.492 858.645 337.22 863.134 C 331.08 875.264 323.448 893.663 310.024 899.129 C 306.96 900.377 304.08 898.649 301.302 897.276 C 294.512 892.09 285.884 886.54 293.08 877.13 C 303.022 864.129 319.9 851.14 334.595 843.963 z M 316.387 875.132 C 320.281 873.83 325.022 865.209 324.146 862.008 C 320.78 864.52 316.05 867.42 314.427 871.031 C 314.939 873.381 314.908 873.217 316.387 875.132 z"/>
<path transform="translate(0,0)" fill="currentColor" fill-opacity="0.0156863" d="M 324.146 862.008 C 325.022 865.209 320.281 873.83 316.387 875.132 C 314.908 873.217 314.939 873.381 314.427 871.031 C 316.05 867.42 320.78 864.52 324.146 862.008 z"/>
<path transform="translate(0,0)" fill="currentColor" d="M 348.397 725.085 C 358.252 724.652 361.653 725.007 370.897 728.371 C 372.168 745.382 371.455 767.742 361.957 782.251 C 361.009 782.742 359.012 783.462 357.935 783.891 C 343.089 781.978 342.32 745.287 342.809 733.399 C 342.976 729.34 345.309 727.214 348.397 725.085 z M 357.246 765.587 C 358.526 761.688 360.69 756.958 359.63 753.333 C 357.333 751.42 357.534 752.042 353.867 751.728 C 354.32 754.515 355.556 764.622 356.816 766.173 L 357.246 765.587 z"/>
<path transform="translate(0,0)" fill="currentColor" fill-opacity="0.00784314" d="M 353.867 751.728 C 357.534 752.042 357.333 751.42 359.63 753.333 C 360.69 756.958 358.526 761.688 357.246 765.587 L 356.816 766.173 C 355.556 764.622 354.32 754.515 353.867 751.728 z"/>
<path transform="translate(0,0)" fill="currentColor" d="M 434.7 774.221 C 436.527 774.068 440.973 773.837 442.138 775.019 C 470.216 803.511 417.474 805.495 404.5 806.982 C 397.846 807.943 393.575 808.866 389.871 802.367 C 388.928 789.721 424.672 776.457 434.7 774.221 z"/>
<path transform="translate(0,0)" fill="currentColor" fill-opacity="0.988235" d="M 353.491 811.749 C 358.053 808.942 364.026 810.38 366.811 814.954 C 369.596 819.529 368.13 825.495 363.542 828.259 C 358.985 831.003 353.067 829.549 350.301 825.005 C 347.534 820.461 348.96 814.536 353.491 811.749 z"/>
<path transform="translate(0,0)" fill="currentColor" fill-opacity="0.988235" d="M 352.414 834.78 C 358.086 834.975 363.34 835.368 366.322 840.588 C 365.915 845.256 366.014 843.925 363.15 848.128 C 357.34 848.195 351.569 847.195 349.471 840.943 C 349.902 836.836 349.345 838.433 352.414 834.78 z"/>
<path transform="translate(0,0)" fill="currentColor" fill-opacity="0.988235" d="M 370.779 793.829 C 374.012 794.67 374.34 794.931 376.788 797.222 C 379.034 803.584 376.039 805.405 370.178 807.26 C 366.682 806.701 365.04 806.766 362.255 804.597 C 359.832 798.192 365.805 796.1 370.779 793.829 z"/>
<path transform="translate(0,0)" fill="currentColor" fill-opacity="0.988235" d="M 334.811 816.783 C 345.193 817.637 347.899 825.215 339.964 831.664 C 336.411 831.965 336.144 832.123 333.045 830.639 C 328.957 825.411 331.389 821.661 334.811 816.783 z"/>
<path transform="translate(0,0)" fill="currentColor" fill-opacity="0.988235" d="M 346.117 793.751 C 351.255 793.516 354.499 794.042 355.253 799.462 C 354.111 803.258 352.67 804.188 349.802 806.794 C 346.207 807.236 345.029 807.663 341.994 805.838 C 337.67 800.014 341.163 797.211 346.117 793.751 z"/>
<path transform="translate(0,0)" fill="currentColor" fill-opacity="0.988235" d="M 378.737 817.787 C 380.69 818.486 381.358 818.571 382.773 820.103 C 384.048 821.509 384.646 823.402 384.409 825.286 C 383.882 829.449 380.269 832.356 377.115 834.527 L 373.756 832.422 C 370.342 825.579 373.71 822.594 378.737 817.787 z"/>
<path transform="translate(0,0)" fill="currentColor" fill-opacity="0.988235" d="M 1546.9 717.207 C 1606.82 709.552 1661.6 751.917 1669.26 811.833 C 1676.91 871.749 1634.55 926.529 1574.64 934.188 C 1514.72 941.848 1459.93 899.483 1452.28 839.564 C 1444.62 779.645 1486.99 724.863 1546.9 717.207 z M 1565.49 926.717 C 1621.01 923.934 1663.92 876.945 1661.67 821.401 C 1659.42 765.857 1612.85 722.493 1557.28 724.21 C 1500.96 725.95 1456.87 773.301 1459.16 829.605 C 1461.44 885.908 1509.21 929.538 1565.49 926.717 z"/>
<path transform="translate(0,0)" fill="currentColor" d="M 1561.63 860.094 C 1564.05 860.307 1568.47 860.976 1569.97 862.76 C 1579.09 873.652 1581.51 903.04 1582.34 916.167 C 1572.91 919.314 1567.54 919.969 1557.65 920.196 C 1553.98 920.259 1536.53 920.1 1537.35 914.015 C 1539.53 897.94 1545.3 879.894 1552.61 865.374 C 1554.58 861.468 1557.8 860.944 1561.63 860.094 z M 1563.45 897.368 C 1564.71 896.574 1566.17 896.036 1566.52 894.954 C 1567.79 891.028 1564.95 881.088 1563.05 877.498 C 1560.47 882.036 1556.02 891.073 1559.43 895.919 L 1563.45 897.368 z"/>
<path transform="translate(0,0)" fill="currentColor" d="M 1467.53 827.392 C 1479.82 827.916 1518.4 828.436 1526.98 834.4 C 1528.88 837.514 1528.59 836.111 1528.1 839.658 C 1524.61 845.207 1518.16 848.551 1512.53 851.731 C 1500.27 859.072 1490.23 863.705 1477.16 869.457 C 1470.61 856.845 1464.36 841.893 1467.53 827.392 z M 1504.59 843.236 L 1507.09 841.514 C 1504.17 840.23 1496.58 840.576 1492.97 840.556 C 1493.43 844.334 1492.9 845.399 1495.09 847.915 C 1498.12 847.755 1501.8 844.961 1504.59 843.236 z"/>
<path transform="translate(0,0)" fill="currentColor" d="M 1631.85 824.456 C 1636.35 824.56 1648.85 824.563 1651.75 826.65 C 1660.11 832.659 1647.34 864.688 1643.96 870.614 C 1639.86 867.223 1634.92 863.9 1630.54 860.802 C 1621.99 855.564 1599.55 843.448 1597.94 833.504 C 1601.07 822.583 1622.67 824.646 1631.85 824.456 z M 1630.01 845.126 L 1630.1 839.907 C 1626.28 836.005 1620.81 837.729 1615.5 837.807 C 1619.5 840.557 1625.34 845.371 1630.01 845.126 z"/>
<path transform="translate(0,0)" fill="currentColor" d="M 1593.66 739.564 C 1606.07 741.581 1620.59 751.97 1629.06 761.163 C 1621.69 771.527 1613.93 777.096 1603.9 784.384 C 1598.08 788.209 1587.88 796.088 1581.34 794.981 C 1579.65 793.56 1578.66 793.149 1578.26 790.709 C 1576.42 779.514 1588.57 748.35 1593.66 739.564 z"/>
<path transform="translate(0,0)" fill="currentColor" d="M 1523.94 741.806 C 1524.63 741.895 1526.33 742.442 1527.09 742.661 C 1529.3 745.977 1543.69 786.632 1541.49 793.281 C 1540.35 796.708 1540.14 796.438 1537.58 798.183 C 1531.14 798.786 1528.27 795.907 1523.04 792.193 C 1510.86 783.129 1502.82 775.545 1493.93 763.263 C 1501.05 752.743 1512.6 746.69 1523.94 741.806 z M 1528.23 782.697 L 1529.42 782.156 C 1528.35 778.61 1526.68 772.093 1524.1 769.627 L 1521.07 772.65 C 1521.57 777.452 1524.44 779.09 1528.23 782.697 z"/>
<path transform="translate(0,0)" fill="currentColor" fill-opacity="0.0117647" d="M 1524.1 769.627 C 1526.68 772.093 1528.35 778.61 1529.42 782.156 L 1528.23 782.697 C 1524.44 779.09 1521.57 777.452 1521.07 772.65 L 1524.1 769.627 z"/>
<path transform="translate(0,0)" fill="currentColor" d="M 1582.18 846.681 C 1601.93 846.286 1619.22 871.698 1630.28 886.025 C 1626.92 892.228 1625.65 893.942 1620.54 898.766 C 1615.81 902.569 1613.15 904.559 1608 907.726 C 1599.45 897.95 1578.17 859.561 1582.18 846.681 z M 1606.37 876.842 C 1606.18 871.927 1600.35 866.77 1596.23 864.497 C 1598.04 868.563 1600.13 874.226 1603.18 877.222 C 1605.17 877.267 1604.55 877.437 1606.37 876.842 z"/>
<path transform="translate(0,0)" fill="currentColor" fill-opacity="0.00784314" d="M 1596.23 864.497 C 1600.35 866.77 1606.18 871.927 1606.37 876.842 C 1604.55 877.437 1605.17 877.267 1603.18 877.222 C 1600.13 874.226 1598.04 868.563 1596.23 864.497 z"/>
<path transform="translate(0,0)" fill="currentColor" d="M 1537.47 849.91 C 1546.94 850.683 1545.9 856.828 1542.1 863.617 C 1535.26 875.864 1522.74 911.819 1504.25 902.419 C 1487.94 889.573 1491.83 885.644 1506.14 871.789 C 1514.93 863.273 1526.34 854.911 1537.47 849.91 z M 1519.26 879.598 L 1521.43 879.384 C 1524.68 874.686 1525.34 873.486 1527.5 868.201 L 1527.23 867.018 C 1523.71 869.422 1518.77 872.222 1517.04 875.929 C 1517.63 878.591 1517.09 877.319 1519.26 879.598 z"/>
<path transform="translate(0,0)" fill="currentColor" fill-opacity="0.00784314" d="M 1527.23 867.018 L 1527.5 868.201 C 1525.34 873.486 1524.68 874.686 1521.43 879.384 L 1519.26 879.598 C 1517.09 877.319 1517.63 878.591 1517.04 875.929 C 1518.77 872.222 1523.71 869.422 1527.23 867.018 z"/>
<path transform="translate(0,0)" fill="currentColor" d="M 1480.36 780.52 C 1482.25 781.139 1487.44 782.903 1488.9 784.027 C 1497.87 790.962 1551.67 807.689 1520.97 821.39 C 1510.52 819.091 1499.74 816.647 1489.33 814.313 C 1464.98 808.855 1465.48 797.426 1480.36 780.52 z"/>
<path transform="translate(0,0)" fill="currentColor" d="M 1550.34 731.003 C 1556.01 730.866 1572.91 730.065 1574.27 736.996 C 1576.78 749.794 1571.22 775.684 1565.83 786.947 C 1548.43 806.502 1544.73 752.121 1545.63 744.123 C 1546.34 737.767 1545.21 735.752 1550.34 731.003 z M 1560.84 773.52 C 1561.85 769.198 1563.59 763.989 1562.54 759.879 C 1560.6 758.027 1560.24 758.152 1557.43 757.78 C 1557.89 762.467 1558.3 769.184 1559.57 773.514 L 1560.84 773.52 z"/>
<path transform="translate(0,0)" fill="currentColor" fill-opacity="0.00784314" d="M 1557.43 757.78 C 1560.24 758.152 1560.6 758.027 1562.54 759.879 C 1563.59 763.989 1561.85 769.198 1560.84 773.52 L 1559.57 773.514 C 1558.3 769.184 1557.89 762.467 1557.43 757.78 z"/>
<path transform="translate(0,0)" fill="currentColor" d="M 1638.08 780.136 C 1641.32 779.687 1641.8 779.393 1644.6 780.718 C 1669.65 807.833 1623.89 811.85 1606.49 813.604 C 1602.71 814.032 1601.14 814.391 1597.34 813.473 C 1594.66 811.724 1594.48 811.336 1593.2 808.379 C 1592.13 795.291 1627.29 782.842 1638.08 780.136 z"/>
<path transform="translate(0,0)" fill="currentColor" d="M 1555.39 818.052 C 1569.52 816.956 1576.21 823.92 1566.31 836.056 C 1554.15 837.836 1547.22 827.933 1555.39 818.052 z"/>
<path transform="translate(0,0)" fill="currentColor" fill-opacity="0.988235" d="M 1556.17 841.057 C 1562.03 840.919 1566.92 841.425 1569.41 847.254 C 1568.41 851.479 1569.05 849.913 1565.58 853.583 C 1559.19 853.721 1554.68 852.478 1552.58 846.056 C 1553.9 842.24 1552.96 843.568 1556.17 841.057 z"/>
<path transform="translate(0,0)" fill="currentColor" fill-opacity="0.988235" d="M 1574.05 801.02 C 1577.29 801.494 1576.16 801.192 1578.98 803.519 C 1580.52 810.43 1577.09 812.042 1571.38 813.741 C 1566.42 812.837 1567.4 813.762 1564.36 810.615 C 1563.71 803.762 1568.46 802.237 1574.05 801.02 z"/>
<path transform="translate(0,0)" fill="currentColor" fill-opacity="0.988235" d="M 1537.49 823.592 C 1547.36 823.115 1551.17 832.157 1542.9 837.649 C 1537.61 837.694 1535.82 837.459 1533.95 832.618 C 1534.19 828.371 1535.29 827.109 1537.49 823.592 z"/>
<path transform="translate(0,0)" fill="currentColor" fill-opacity="0.988235" d="M 1548.24 800.864 C 1553.03 800.646 1556.61 801.264 1557.48 806.349 C 1556.47 810.172 1554.41 811.341 1551.36 813.982 C 1545.98 814.473 1543.68 813.501 1542.89 808.135 C 1543.8 804.24 1545.26 803.407 1548.24 800.864 z"/>
<path transform="translate(0,0)" fill="currentColor" fill-opacity="0.988235" d="M 1581.06 824.286 C 1582.27 824.594 1583.86 825.196 1585.08 825.61 C 1589.03 831.467 1585.93 835.765 1582.26 840.9 C 1579.66 840.359 1579.5 840.178 1577.21 838.743 C 1573.91 832.446 1576.68 829.069 1581.06 824.286 z"/>
<path transform="translate(0,0)" fill="currentColor" d="M 1566.83 576.446 C 1586.16 574.971 1646.04 574.629 1663.2 580 C 1641.85 580.373 1620.94 581.02 1599.5 581.171 C 1587.91 581.176 1514.06 584.465 1509.44 581.348 C 1509.65 581.093 1509.85 580.824 1510.07 580.582 C 1513.6 576.777 1559.01 576.742 1566.83 576.446 z"/>
<path transform="translate(0,0)" fill="currentColor" d="M 98.8534 775.131 C 107.881 776.611 114.403 779.209 119.406 787.231 C 124.073 794.713 134.256 817.341 127.189 824.331 C 118.908 827.468 112.439 823.712 104.359 825.767 C 86.0595 816.832 67.7797 776.197 98.8534 775.131 z"/>
<path transform="translate(0,0)" fill="currentColor" d="M 1076.43 445.077 C 1122.47 442.899 1169.37 444.333 1215.42 447.142 C 1265.36 450.476 1317.28 451.681 1365.41 466.426 C 1402.16 477.684 1432.68 501.366 1463.1 523.993 C 1470.18 529.257 1508.2 556.376 1508.86 563.652 C 1503.05 566.665 1489.45 566.708 1482.5 566.981 L 1481.7 566.514 C 1485.22 563.105 1486.51 563.135 1486.92 559.189 C 1480.16 540.374 1405.71 486.51 1386.01 477.181 C 1373.16 471.059 1359.69 466.322 1345.83 463.05 C 1318.18 456.61 1277.69 453.552 1249.15 451.678 C 1211.99 449.089 1174.77 447.468 1137.53 446.817 C 1123.14 443.882 1091.16 448.195 1076.43 445.077 z"/>
<path transform="translate(0,0)" fill="currentColor" fill-opacity="0.0705882" d="M 732.344 533.531 C 762.482 514.453 803.755 489.976 836.768 477.049 C 897.037 453.448 977.63 447.627 1042.66 445.832 C 1046.03 446.026 1051.48 446.122 1054.57 446.952 C 1039.11 448.171 1023.98 448.136 1008.45 449.281 C 945.005 453.958 878.745 460.611 819.919 486.405 C 790.265 499.407 761.779 520.037 734.076 535.288 L 732.344 533.531 z"/>
<path transform="translate(0,0)" fill="currentColor" fill-opacity="0.0117647" d="M 1494.19 456.135 C 1495.45 455.897 1497.35 455.628 1498.52 456.159 C 1522.4 467.068 1694.9 542.935 1701.08 553.837 C 1695.67 556.377 1684.68 548.341 1679.03 545.427 C 1619.37 514.654 1558.44 486.002 1497.17 458.565 C 1496.21 458.136 1494.92 456.889 1494.19 456.135 z"/>
<path transform="translate(0,0)" fill="currentColor" d="M 105.007 773.969 C 109.74 774.475 115.764 774.948 120.29 775.965 C 125.257 787.397 143.693 842.517 137.319 849.826 C 134.54 850.255 135.719 850.564 133.586 849.327 C 134.346 817.856 114.654 831.341 92.4698 827.104 C 95.4187 826.773 100.349 826.833 103.462 826.773 L 104.359 825.767 C 112.439 823.712 118.908 827.468 127.189 824.331 C 134.256 817.341 124.073 794.713 119.406 787.231 C 114.403 779.209 107.881 776.611 98.8534 775.131 L 105.007 773.969 z"/>
<path transform="translate(0,0)" fill="currentColor" fill-opacity="0.00784314" d="M 707.709 549.505 L 706.561 553.009 C 705.823 553.663 705.072 554.303 704.31 554.929 C 697.991 560.112 661.988 585.095 654.878 584.394 C 661.003 577.327 697.332 555.505 707.709 549.505 z"/>
<path transform="translate(0,0)" fill="currentColor" fill-opacity="0.0901961" d="M 1877.98 793.053 C 1901.99 791.982 1925.99 790.785 1949.99 789.464 C 1957.71 789.005 1984.95 786.55 1990.3 787.557 C 1988.15 790.392 1958.46 791.138 1953.56 791.405 C 1930.4 792.542 1907.22 793.482 1884.04 794.224 L 1877.98 793.053 z"/>
<path transform="translate(0,0)" fill="currentColor" fill-opacity="0.67451" d="M 1131.35 818.871 C 1133.06 818.338 1217.03 816.535 1223.44 817.077 C 1228.6 817.97 1231.46 818.046 1236.74 818.17 C 1225.36 819.477 1158.21 821.436 1148.52 819.856 C 1144.59 819.186 1135.56 819.028 1131.35 818.871 z"/>
<path transform="translate(0,0)" fill="currentColor" fill-opacity="0.752941" d="M 848.986 823.787 C 870.983 822.301 914.701 821.146 936.461 822.165 C 941.931 822.854 945.492 823.097 951.012 823.224 C 944.725 823.648 925.984 824.833 920.02 823.815 C 914.192 823.067 888.955 822.026 884.226 823.868 C 880.014 824.208 871.06 825.184 867.234 824.792 C 861.052 823.976 855.198 823.939 848.986 823.787 z"/>
<path transform="translate(0,0)" fill="currentColor" fill-opacity="0.54902" d="M 936.461 822.165 C 960.997 821.518 995.154 819.704 1018.97 821.51 C 1008.1 823.071 963.281 823.181 951.012 823.224 C 945.492 823.097 941.931 822.854 936.461 822.165 z"/>
<path transform="translate(0,0)" fill="currentColor" fill-opacity="0.290196" d="M 1042.66 445.832 C 1048.87 444.73 1069.86 444.743 1076.43 445.077 C 1091.16 448.195 1123.14 443.882 1137.53 446.817 C 1111.04 447.105 1080.88 447.655 1054.57 446.952 C 1051.48 446.122 1046.03 446.026 1042.66 445.832 z"/>
<path transform="translate(0,0)" fill="currentColor" fill-opacity="0.321569" d="M 1816.44 796.204 C 1836.76 795.75 1857.58 793.67 1877.98 793.053 L 1884.04 794.224 C 1867.22 796.012 1845.38 796.321 1828.01 797.205 C 1823.53 797.138 1820.89 796.808 1816.44 796.204 z"/>
<path transform="translate(0,0)" fill="currentColor" fill-opacity="0.45098" d="M 848.986 823.787 C 855.198 823.939 861.052 823.976 867.234 824.792 C 854.913 825.081 842.357 825.097 830.012 825.237 C 826.415 825.148 813.909 824.5 811.203 825.692 C 801.091 825.088 790.595 826.652 779.952 825.547 C 801.611 823.784 827.255 823.891 848.986 823.787 z"/>
<path transform="translate(0,0)" fill="currentColor" fill-opacity="0.458824" d="M 1322.77 815.275 C 1325.4 815.268 1331.72 814.917 1333.76 815.898 C 1314.94 817.623 1294.35 817.158 1275.3 817.101 C 1270.23 817.062 1267.75 816.878 1262.72 816.174 L 1291.34 815.785 C 1296.92 815.901 1319.72 816.773 1322.77 815.275 z"/>
<path transform="translate(0,0)" fill="currentColor" fill-opacity="0.537255" d="M 1374.52 814.172 C 1380.77 814.154 1387.01 814.098 1393.26 814.002 L 1393.05 815.017 C 1380.73 816.051 1356.07 816.711 1343.62 815.742 C 1344.83 814.942 1348.24 814.945 1349.98 814.803 C 1357.18 815.188 1367.45 815.063 1374.52 814.172 z"/>
<path transform="translate(0,0)" fill="currentColor" fill-opacity="0.0431373" d="M 1944.81 640.361 C 1949.89 641.055 1954.96 641.782 1960.02 642.542 L 1954.65 643.768 C 1943.44 642.583 1930.67 642.712 1919.27 642.609 C 1922.9 639.481 1938.97 643.744 1944.81 640.361 z"/>
<path transform="translate(0,0)" fill="currentColor" fill-opacity="0.266667" d="M 732.344 533.531 L 734.076 535.288 C 724.388 540.452 714.579 545.386 706.561 553.009 L 707.709 549.505 C 715.495 543.887 724.17 538.652 732.344 533.531 z"/>
<path transform="translate(0,0)" fill="currentColor" fill-opacity="0.333333" d="M 1040.67 820.166 C 1053.2 820.084 1066.95 819.717 1079.39 820.138 L 1079.12 820.954 L 1053.07 821.137 C 1048.75 821.052 1044.95 820.619 1040.67 820.166 z"/>
<path transform="translate(0,0)" fill="currentColor" fill-opacity="0.576471" d="M 1099.43 819.972 L 1122.78 819.075 L 1122.99 820.125 C 1114.44 821.193 1107.7 821.112 1099.1 821.134 L 1099.43 819.972 z"/>
<path transform="translate(0,0)" fill="currentColor" fill-opacity="0.380392" d="M 1247.98 816.813 L 1263.02 817.78 L 1236.74 818.17 C 1231.46 818.046 1228.6 817.97 1223.44 817.077 C 1230.57 817.014 1241.14 817.261 1247.98 816.813 z"/>
<path transform="translate(0,0)" fill="currentColor" fill-opacity="0.788235" d="M 1053.07 821.137 C 1046.67 822.466 1038.54 822.288 1032.15 820.725 L 1034.15 820.175 L 1032.09 820.176 C 1035.23 819.572 1037.49 819.93 1040.67 820.166 C 1044.95 820.619 1048.75 821.052 1053.07 821.137 z"/>
<path transform="translate(0,0)" fill="currentColor" fill-opacity="0.439216" d="M 884.226 823.868 C 888.955 822.026 914.192 823.067 920.02 823.815 C 908.091 824.115 896.156 824.132 884.226 823.868 z"/>
<path transform="translate(0,0)" fill="currentColor" fill-opacity="0.894118" d="M 1291.34 815.785 C 1294.72 814.92 1318.97 814.521 1322.77 815.275 C 1319.72 816.773 1296.92 815.901 1291.34 815.785 z"/>
<path transform="translate(0,0)" fill="currentColor" fill-opacity="0.803922" d="M 1247.98 816.813 C 1253.37 816.359 1257.33 815.998 1262.72 816.174 C 1267.75 816.878 1270.23 817.062 1275.3 817.101 C 1270.21 817.876 1268.17 818.329 1263.02 817.78 L 1247.98 816.813 z"/>
<path transform="translate(0,0)" fill="currentColor" fill-opacity="0.819608" d="M 1393.26 814.002 C 1397.45 813.336 1400.69 812.391 1404.68 813.581 C 1402.93 816.21 1396.15 815.193 1393.05 815.017 L 1393.26 814.002 z"/>
<path transform="translate(0,0)" fill="currentColor" fill-opacity="0.764706" d="M 1828.01 797.205 C 1820.34 798.025 1817.32 798.444 1809.49 797.483 L 1810 796.716 L 1816.44 796.204 C 1820.89 796.808 1823.53 797.138 1828.01 797.205 z"/>
<path transform="translate(0,0)" fill="currentColor" fill-opacity="0.298039" d="M 1079.39 820.138 C 1085.86 820.061 1093.02 819.816 1099.43 819.972 L 1099.1 821.134 L 1079.12 820.954 L 1079.39 820.138 z"/>
<path transform="translate(0,0)" fill="currentColor" fill-opacity="0.376471" d="M 1131.35 818.871 C 1135.56 819.028 1144.59 819.186 1148.52 819.856 L 1122.99 820.125 L 1122.78 819.075 L 1131.35 818.871 z"/>
<path transform="translate(0,0)" fill="currentColor" fill-opacity="0.894118" d="M 1349.98 814.803 C 1358.23 814.276 1366.28 813.526 1374.52 814.172 C 1367.45 815.063 1357.18 815.188 1349.98 814.803 z"/>
<path transform="translate(0,0)" fill="currentColor" fill-opacity="0.882353" d="M 811.203 825.692 C 813.909 824.5 826.415 825.148 830.012 825.237 C 825.136 825.526 815.675 826.395 811.203 825.692 z"/>
</svg>
