<svg xmlns="http://www.w3.org/2000/svg" version="1.1" style="display: block;" viewBox="0 0 2048 1365">
<path transform="translate(0,0)" fill="currentColor" fill-opacity="0.921569" d="M 643.518 546.189 C 722.736 492.244 846.592 419.548 937.479 392.895 C 1010.06 371.61 1135.66 369.131 1211.91 369.032 C 1388.66 368.802 1570.66 379.159 1744.73 410.416 C 1751.52 411.636 1776.53 415.694 1780.39 419.691 C 1780.98 427.167 1767.72 438.015 1762.85 444.827 C 1787.75 464.909 1812.31 484.917 1837.75 504.705 C 1861.75 523.377 1903.18 540.713 1906.37 575.424 C 1907.12 583.633 1906.99 608.834 1905.15 616.043 L 1901.98 618.937 C 1902.31 643.769 1903.92 675.3 1902.06 699.526 C 1904.07 702.097 1906.06 704.511 1907.8 707.283 C 1910.21 742.692 1891.91 833.749 1854.64 844.608 C 1821.99 854.117 1738.65 885.099 1705.82 887.462 C 1704.38 887.57 1702.94 887.533 1701.51 887.354 C 1699.54 885.452 1698.9 878.798 1699.07 876.098 C 1702.42 823.04 1694.19 773.467 1655.12 734.823 C 1596.98 677.302 1491.44 681.185 1436.07 738.885 C 1397.61 778.088 1394.23 831.958 1393.18 883.664 C 1393.1 887.554 1383.95 888.171 1381.31 888.197 C 1314.92 888.848 1248.24 886.259 1181.93 886.255 C 1048.74 887.464 915.547 887.987 782.352 887.824 L 677.715 888.384 C 667.755 888.46 628.973 890.377 623.528 886.551 C 619.453 878.102 622.198 852.509 621.636 841.857 C 618.201 776.704 583.079 721.694 520.376 699.647 C 482.948 686.488 438.649 688.898 402.91 706.09 C 368.247 722.764 343.285 753.976 330.793 789.946 C 322.671 813.332 320.222 836.69 320.183 861.326 C 320.169 869.84 322.248 881.4 320.03 889.563 C 319.591 891.181 318.961 892.195 317.48 892.972 C 303.88 900.112 196.979 882.842 176.023 875.449 C 170.942 873.656 165.045 870.544 162.692 865.439 C 161.326 862.474 161.468 859.448 162.794 856.503 C 166.424 848.443 177.333 843.35 185.208 840.711 C 185.754 840.528 186.302 840.353 186.853 840.185 C 180.241 822.007 175.069 800.742 160.762 788.271 C 153.984 738.974 164.607 700.891 191.394 662.161 C 198.986 651.184 208.419 630.854 216.776 619.424 C 248.006 589.112 313.926 578.506 355.836 569.486 C 356.378 569.369 357.408 569.357 357.83 569.345 C 367.176 573.145 420.549 557.25 437.315 562.16 L 437.921 563.282 C 433.949 563.967 418.06 566.156 415.493 567.615 L 417.784 568.503 C 413.012 570.096 379.914 574.413 371.973 576.008 C 332.019 584.032 290.637 591.839 252.778 607.553 C 244.743 610.888 230.511 619.489 222.572 624.029 C 234.853 621.665 253.732 620.232 266.432 618.976 L 341.896 611.604 C 463.83 599.487 586.195 592.188 708.706 589.723 C 711.312 580.851 714.982 574.26 719.34 566.261 C 708.534 564.974 692.824 563.954 682.492 561.647 C 634.48 550.928 592.535 552.501 543.671 555.477 L 541.053 554.725 C 547.338 552.302 569.261 553.026 572.162 550.489 L 573.218 551.195 L 573.34 550.548 C 567.535 549.563 565.172 549.391 559.272 549.307 C 561.232 545.175 571.943 549.233 576.184 546.495 C 571.378 546.351 566.573 546.14 561.772 545.862 C 590.443 542.913 615.044 544.003 643.518 546.189 z M 892.987 593.457 C 871.38 612.028 859.484 613.7 831.169 614.516 C 817.224 614.917 802.337 615.587 788.305 616.12 C 762.806 617.282 737.3 618.292 711.789 619.15 C 703.504 679.551 712.849 749.527 703.76 810.049 C 714.419 809.329 725.083 808.685 735.751 808.117 C 823.633 803.442 911.556 799.566 999.508 796.489 C 1035.25 794.915 1072.44 791.893 1107.95 790.854 C 1112.42 724.427 1109.84 650.809 1124.38 587.63 C 1112.93 587.841 1099.93 587.788 1088.62 588.5 C 1033.44 590.358 977.805 589.654 922.582 592.352 C 912.818 592.829 902.685 592.643 892.987 593.457 z M 1124.46 790.161 C 1127.91 793.256 1132.09 793.81 1136.64 794.923 L 1135.05 795.142 C 1138.44 795.608 1148.22 796.256 1150.33 796.836 C 1140.87 798.177 1125.86 799.021 1116.02 799.315 L 1116 813.751 L 1195.07 810.314 C 1203.68 809.954 1227.36 808.456 1234.37 809.15 C 1241.1 814.967 1256.44 811.695 1262.15 815.696 C 1213.85 818.877 1164.04 819.303 1115.85 822.812 C 1117.14 842.848 1119.49 858.01 1122.67 877.75 C 1157.27 876.024 1199.83 877.629 1234.83 878.098 C 1284.68 878.767 1336.03 878.167 1385.63 879.852 C 1386.08 854.435 1387.07 835.304 1390.67 809.906 C 1386.76 807.046 1385.24 808.574 1379.41 806.335 L 1383.54 806.075 L 1384.04 805.386 C 1380.84 804.884 1379.39 804.774 1376.35 803.556 C 1379.46 803.663 1380.2 803.7 1383.24 803.194 L 1384.11 801.234 L 1392.89 800.79 C 1408.23 749.508 1430.17 720.654 1479.12 697.937 C 1482.09 690.296 1485.14 682.685 1488.27 675.108 C 1444.6 693.205 1420.54 709.207 1395.68 752.328 C 1390.95 760.538 1385.33 778.224 1381.25 783.194 C 1375.27 786.379 1347.7 786.884 1339.67 786.884 C 1337.06 786.022 1332.55 785.164 1329.48 784.3 L 1329.72 784.643 L 1328.05 784.383 C 1329.89 782.496 1329.96 781.255 1330.22 778.703 C 1342.45 776.929 1362.2 776.773 1375.38 775.919 C 1398.11 718.57 1432.73 682.609 1492.53 664.368 C 1503.93 635.098 1514.56 607.165 1523.17 576.886 C 1393.33 578.398 1263.16 584.312 1133.51 586.989 C 1129.54 602.77 1126.58 618.787 1124.63 634.944 C 1119.93 676.748 1121.81 720.172 1118.52 762.173 C 1118.18 766.553 1116.53 786.271 1117.3 789.613 C 1120.37 790.242 1121.31 790.219 1124.46 790.161 z M 1503.7 661.368 C 1554.3 649.192 1607.3 655.548 1652.01 682.917 C 1677.09 698.186 1697.62 719.888 1711.48 745.77 C 1716.84 744.321 1754.38 733.553 1757.68 733.464 C 1761.55 734.244 1763.32 733.711 1765.97 735.862 L 1765.94 737.022 C 1760.31 739.917 1725 749.902 1717.92 751.643 L 1718.02 753.093 L 1717.12 753.731 C 1716.41 755.884 1724.2 775.529 1725.78 780.418 C 1745.73 774.579 1772.4 769.121 1792.88 764.37 C 1827.82 756.277 1862.71 747.922 1897.53 739.305 L 1898.9 726.035 C 1876.32 731.312 1853.34 736.973 1830.7 742.015 C 1827.19 742.796 1821.73 743.239 1818.69 741.02 C 1819.44 726.839 1890.13 726.019 1898.76 713.687 C 1898.41 709.254 1897.84 708.469 1894.06 707.118 C 1885.79 705.882 1879.28 711.357 1873.93 708.773 L 1874.14 706.909 C 1877.83 703.249 1885.18 702.987 1892 700.791 L 1892.26 699.616 C 1895.5 671.432 1893.94 646.365 1893.2 618.419 C 1871.47 619.105 1846.41 620.95 1824.95 617.89 C 1807.08 615.343 1799.19 599.671 1783.27 593.235 C 1759.81 583.748 1726.28 596.853 1706.78 580.657 C 1705.23 579.373 1701.07 574.75 1699.61 573.131 C 1663.87 572.97 1627.52 574.044 1591.73 574.985 C 1575.25 575.418 1546.99 575.032 1531.99 576.881 C 1524.13 604.912 1513.82 634.01 1503.7 661.368 z M 924.316 406.802 C 949.394 408.083 975.216 408.98 1000.27 407.07 C 1030.16 404.79 1059.78 402.867 1089.75 401.835 C 1204.35 397.963 1319.09 401.035 1433.32 411.035 C 1461.96 413.83 1490.18 416.928 1519.12 422.254 C 1582.04 433.833 1634.87 475.603 1684.32 513.758 C 1689.91 518.07 1699.52 524.538 1700.7 531.482 C 1699.83 535.098 1700.36 533.809 1697.61 536.704 C 1688.28 539.667 1646.71 539.619 1634.63 539.876 L 1543.75 542.02 L 1539.59 542.566 C 1536.52 546.919 1536.3 560.073 1534.53 567.097 L 1771.61 562.448 L 1853.22 561.328 C 1865.72 561.067 1881.21 561.351 1893.22 559.834 C 1884.81 550.19 1878.4 544.524 1867.32 537.764 C 1841.26 538.358 1822.83 541.724 1799.65 525.668 C 1765.51 502.011 1731.76 477.726 1698.23 453.2 C 1684.46 443.12 1670.82 432.863 1657.31 422.431 C 1652.67 418.832 1647.87 415.439 1643.31 411.659 C 1639.56 408.542 1642.37 404.904 1639.69 404.198 C 1630.17 401.688 1615.59 400.529 1605.96 399.399 C 1491.19 386.913 1375.87 380.006 1260.43 378.7 C 1227.26 378.379 1179.76 377.64 1147.13 379.549 C 1075.49 381.797 992.959 384.835 924.316 406.802 z M 1170.19 544.012 C 1208.92 541.445 1252.88 541.21 1292.02 540.32 C 1335.27 539.202 1378.52 537.789 1421.75 536.082 C 1430.37 535.843 1439.01 535.691 1447.6 535.056 C 1451.38 513.593 1456.57 501.635 1443.19 483.605 C 1427.38 462.298 1413.41 438.696 1397.67 417.265 C 1376.17 414.184 1353.53 413.326 1331.77 412.822 C 1285.15 411.741 1237.16 409.196 1190.61 410.356 C 1184.03 454.943 1177.23 499.496 1170.19 544.012 z M 850.059 495.682 C 907.352 495.085 884.661 545.467 889.41 553.608 C 899.527 554.214 910.911 553.003 921.25 552.901 L 1108.87 545.934 C 1123.57 502.398 1136.66 454.84 1149.85 410.618 C 1127.55 410.61 1098.54 409.952 1076.75 411.555 C 1061.06 412.15 1023.24 412.352 1010.14 416.635 C 957.753 433.768 897.43 469.661 850.059 495.682 z M 434.378 613.092 C 424.73 625.529 417.732 628.934 401.461 630.604 C 376.392 633.177 367.162 635.438 345.661 647.843 C 357.506 657.258 370.323 667.085 381.764 676.875 C 451.897 643.232 529.236 647.278 591.193 696.086 C 628.337 729.593 644.258 763.075 655.049 812.077 L 695.49 810.688 C 701.01 744.518 696.737 684.132 702.288 619.238 C 687.297 620.078 671.968 619.598 657.182 620.448 C 631.055 621.95 611.544 620.626 588.245 607.225 C 579.576 602.239 563.335 603.95 553.506 604.574 C 528.412 605.665 503.331 607.059 478.27 608.756 C 466.35 609.575 445.638 610.842 434.378 613.092 z M 206.457 676.412 L 205.606 677.355 C 200.174 683.259 178.684 697.791 177.203 702.801 C 173.549 715.158 170.589 735.101 169.559 748.216 C 185.328 748.658 226.388 748.09 237.066 752.717 C 254.564 760.301 276.583 816.779 257.301 832.052 C 247.549 839.775 217.316 844.429 210.626 834.895 L 210.93 833.312 C 222.176 825.953 251.529 834.923 256.325 817.537 C 258.262 810.514 250.025 786.06 246.343 779.209 C 244.008 777.681 243.848 777.767 240.944 777.893 C 227.83 776.795 209.769 775.425 196.838 774.915 C 172.778 773.965 181.108 762.553 172.433 756.861 L 170.055 757.108 C 167.771 760.037 169.206 778.372 169.422 783.05 C 185.035 798.374 193.767 830.197 201.574 851.589 C 230.824 852.609 258.636 852.047 287.916 851.184 C 288.87 797.707 303.915 742.822 343.332 704.631 C 352.377 696.029 362.29 688.388 372.912 681.833 C 361.309 672.37 349.179 662.141 337.241 653.216 C 304.553 670.175 246.415 669.394 206.457 676.412 z M 704.501 840.122 C 706.393 852.811 708.576 867.131 712.076 879.527 L 718.372 879.562 L 1113.53 877.937 C 1110.38 858.005 1108.76 844.361 1107.39 824.044 C 1104.73 822.695 1103.89 823.084 1100.77 823.439 L 704.501 840.122 z M 1897.75 592.823 C 1897.96 583.245 1897.82 578.701 1896.26 568.924 L 1884.14 569.557 C 1866.92 570.295 1718.62 571.314 1714.63 573.748 C 1718.93 580.905 1738.61 579.934 1746.25 579.862 C 1783.74 579.974 1789.79 587.139 1822.19 596.05 C 1832.74 598.951 1884.17 594.362 1897.75 592.823 z M 875.226 548.487 C 851.729 549.702 826.595 549.839 803.021 550.091 C 806.649 551.817 810.907 553.981 814.549 555.509 C 827.227 558.385 870.986 560.512 878.959 548.634 C 876.95 547.567 878.093 547.897 875.226 548.487 z M 1457.24 535.017 L 1504.25 533.155 L 1506.64 532.649 C 1505.76 524.436 1436.07 437.664 1425.53 420.814 L 1412.08 420.401 C 1426.32 442.176 1440.61 463.776 1455.33 485.215 C 1464.79 498.99 1459.61 519.535 1457.24 535.017 z M 881.852 538.509 C 882.416 507.695 869.871 503.206 841.608 505.3 C 829.594 506.636 813.907 517.734 803.638 524.753 C 801.634 530.99 800.63 534.784 799.356 541.206 C 813.73 540.336 828.127 539.9 842.528 539.899 C 854.582 539.797 869.704 539.483 881.852 538.509 z M 717.308 557.595 C 722.854 557.971 729.955 558.696 735.353 558.156 C 743.585 555.021 760.457 541.533 768.497 535.98 C 780.411 527.751 792.836 520.621 804.712 512.781 C 840.197 489.353 874.865 470.988 912.315 451.169 C 936.307 438.472 955.483 427.91 981.029 417.026 L 961.788 417.345 C 930.445 430.033 905.424 445.161 876.12 460.883 C 820.742 490.595 769.78 523.145 717.308 557.595 z M 1141.25 544.868 C 1147.74 544.505 1154.52 544.018 1161 543.902 L 1174.8 459.642 C 1177.19 444.36 1179.54 425.379 1182.48 410.51 C 1175.35 410.437 1167.96 410.25 1160.86 410.497 L 1158.64 410.953 C 1154.86 420.38 1147.86 447.477 1144.71 458.333 C 1136.19 487.367 1127.5 516.347 1118.62 545.272 L 1141.25 544.868 z M 630.964 843.254 C 631.043 855.402 631.261 867.803 630.859 879.924 L 664.75 879.709 L 702.656 879.163 C 700.084 865.99 697.808 854.028 695.95 840.695 C 687.806 840.901 676.694 840.831 668.812 841.437 L 630.964 843.254 z M 241.099 768.018 C 238.41 765.417 235.793 762.729 232.745 760.564 C 215.857 758.621 200.406 758.518 183.379 758.787 C 185.741 762.35 186.344 763.928 191.292 764.647 C 207.281 766.969 224.921 767.314 241.099 768.018 z M 1529.59 542.632 C 1513.59 542.695 1497.58 543 1481.58 543.548 L 1318 548.634 C 1264.38 549.83 1196.2 550.181 1143.29 554.354 L 1136.04 578.005 C 1151.28 577.422 1166.52 577.024 1181.77 576.813 C 1221.99 574.35 1268.63 574.018 1309.24 572.978 L 1525.37 567.608 C 1527.28 558.48 1528.51 551.878 1529.59 542.632 z M 1693.67 438.588 C 1713.82 433.349 1732.59 429.633 1753.07 425.75 L 1767.06 423.368 C 1742.73 418.998 1718.34 414.898 1693.92 411.071 C 1681.55 409.153 1662.97 406.055 1650.88 405.803 C 1664.61 416.725 1679.3 428.554 1693.67 438.588 z M 656.137 548.547 C 668.932 550.489 682.382 552.934 695.104 554.665 C 699.533 555.182 701.925 556.308 705.268 554.288 C 714.773 548.545 724.239 542.403 733.541 536.365 C 751.563 524.573 769.662 512.899 787.837 501.344 C 837.421 470.861 888.23 442.416 940.137 416.08 C 928.832 416.096 910.838 414.173 901.579 415.077 C 818.595 444.339 730.781 503.286 656.137 548.547 z M 797.488 555.785 C 795.449 552.939 792.965 549.685 791.235 546.696 C 791.24 545.233 791.444 532.623 791.329 531.965 C 786.075 535.412 756.649 554.071 754.481 557.568 C 756.121 557.47 757.815 557.396 759.445 557.251 C 772.133 556.953 784.815 556.465 797.488 555.785 z M 294.751 884.958 C 300.352 885.152 306.456 885.233 312.002 885.585 L 311.142 858.956 C 295.522 859.187 200.713 864.858 194.819 858.039 C 192.415 855.258 192.217 850.613 189.824 848.038 C 184.355 850.633 173.044 855.254 170.198 860.203 C 176.427 873.798 279.297 884.157 294.751 884.958 z M 730.41 568.143 C 724.836 575.09 721.796 580.986 718.142 589.126 L 740.225 588.784 C 786.316 586.091 836.506 586.152 883.118 584.638 C 933.609 582.852 984.114 581.491 1034.63 580.554 C 1064.92 579.776 1097.19 578.399 1127.36 578.365 C 1129.68 569.718 1131.66 563.128 1134.64 554.692 C 1126.7 554.969 1118.27 555.112 1110.39 555.553 L 899.745 562.885 C 886.296 563.441 873.335 564.467 859.965 565.961 C 840.651 568.119 821.037 565.568 801.706 565.206 C 778.162 565.446 753.935 566.544 730.41 568.143 z M 1826.83 608.694 C 1837.02 610.551 1894.58 613.495 1897.43 604.27 L 1896.17 602.283 C 1893.88 602.027 1893.75 601.902 1891.41 602.4 C 1885.27 602.98 1816.79 606.445 1819.26 605.611 C 1822.14 607.043 1823.63 607.925 1826.83 608.694 z M 703.606 610.212 L 705.993 598.859 L 684.514 599.447 C 655.584 600.098 627.38 601.543 598.731 602.329 C 606.919 606.132 613.679 608.922 622.745 610.608 C 638.074 613.151 684.081 610.266 703.606 610.212 z M 715.662 598.733 C 714.641 603.275 713.24 605.479 714.785 609.037 C 717.832 609.784 718.554 609.579 721.75 609.34 C 756.586 608.57 791.472 605.967 826.33 605.247 C 845.21 604.857 861.808 603.627 878.56 593.957 L 867.643 594.506 L 715.662 598.733 z M 1436.57 421.138 C 1465.02 457.855 1493 494.155 1518.7 532.941 C 1574.46 531.454 1631.33 531.332 1686.89 529.462 L 1687.85 528.684 C 1681.6 521.872 1645.57 496.466 1636.78 490.096 C 1589.66 455.947 1546.79 432.592 1488.23 426.845 C 1480.28 426.065 1442.03 422.3 1436.57 421.138 z M 197.067 673.802 C 199.947 669.59 224.323 634.131 224.366 632.481 L 223.593 631.756 C 216.511 633.833 205.175 655.399 201.251 662.571 C 199.493 665.783 197.855 669.059 196.338 672.392 C 196.543 672.86 196.75 673.578 197.067 673.802 z M 630.424 833.473 C 651.682 832.756 673.905 832.319 695.066 831.06 L 694.97 819.332 C 686.798 819.736 652.999 822.786 648.357 818.889 C 646.063 814.647 639.326 787.577 636.063 778.788 C 616.404 725.827 581.688 690.148 527.461 672.969 C 509.455 667.265 473.408 662.127 455.085 665.415 C 351.119 674.755 297.802 750.596 297.221 850.904 L 311.723 850.827 C 316.944 735.175 398.027 657.955 515.232 687.718 C 582.493 709.03 624.856 762.851 630.424 833.473 z M 237.579 631.372 C 230.566 640.706 220.801 653.85 215.278 663.951 L 216.023 665.028 L 219.02 665.215 C 249.52 660.815 287.945 660.69 316.666 651.425 C 334.638 645.628 349.678 631.384 370.942 625.493 C 385.812 621.373 413.182 623.369 421.624 614.258 L 421.14 613.225 L 418.502 613.497 C 398.241 614.855 376.099 616.738 355.902 619.23 C 317.194 624.004 275.885 625.335 237.579 631.372 z M 1757.73 434.387 C 1739.48 437.423 1721.36 441.204 1703.42 445.719 C 1727.46 462.409 1751.35 479.312 1775.08 496.425 C 1784.82 503.382 1804.24 518.082 1814.05 523.243 C 1830.72 530.671 1837.75 529.543 1855.64 528.421 C 1840.34 517.99 1755.37 457.015 1754.09 446.669 C 1753.69 443.486 1756.83 437.492 1758.36 434.668 L 1757.73 434.387 z M 1100.95 800.438 L 996.977 805.728 C 900.446 809.686 800.275 812.757 703.921 819.066 C 703.759 822.946 702.992 827.276 704.919 830.318 C 707.137 831.157 707.921 830.904 710.247 830.682 L 1107.13 814.021 C 1107.37 809.236 1108.37 804.097 1105.88 800.392 C 1103.93 800.264 1102.93 800.119 1100.95 800.438 z M 1733.96 869.976 L 1735.48 871.128 C 1763.04 864.242 1792.82 855.918 1819.27 847.93 C 1851.31 838.255 1887.93 794.616 1893.8 761.811 C 1894.41 758.445 1896.12 752.293 1895.22 749.221 L 1894.02 749.193 L 1728.24 789.24 C 1734.08 820.956 1734.16 837.808 1733.96 869.976 z M 1537.68 665.414 C 1523.06 666.673 1512.75 668.859 1498.54 672.583 C 1495.9 679.477 1493.19 687.003 1490.26 693.731 C 1532.53 679.019 1582.15 680.576 1622.61 700.184 C 1658.42 717.717 1685.75 748.833 1698.51 786.613 C 1705.01 805.459 1706.63 821.325 1708.83 840.928 C 1708.98 850.475 1709.61 869.254 1708.31 878.009 L 1725 873.929 C 1725.64 814.188 1723.63 761.758 1679.28 716.353 C 1645.22 681.478 1586.22 659.242 1537.68 665.414 z"/>
<path transform="translate(0,0)" fill="currentColor" fill-opacity="0.933333" d="M 1065.09 594.445 C 1074.01 594.137 1101.06 595.209 1089.38 613.982 C 1084.19 622.316 1046.87 620.117 1034.25 620.656 C 1026.41 621.02 998.816 624.379 1004.25 604.231 C 1007.54 591.995 1051.33 594.948 1065.09 594.445 z M 1034.39 611.86 C 1045.54 611.388 1072.94 611.894 1081.62 608.227 L 1082.83 606.889 C 1079.44 600.916 1068.17 603.151 1061.85 603.563 C 1046.6 604.166 1029.48 604.474 1014.4 605.787 C 1013.4 608.667 1013.61 607.557 1014.33 610.834 C 1016.71 612.622 1030.42 611.904 1034.39 611.86 z"/>
<path transform="translate(0,0)" fill="currentColor" fill-opacity="0.929412" d="M 1434.21 583.5 C 1441.76 583.018 1459.44 581.765 1464.96 588.433 C 1486.22 614.131 1426.52 609.633 1415.5 610.026 C 1409.91 610.04 1390.58 613.046 1386 608.474 C 1378.95 601.178 1382.33 587.298 1393.4 585.776 C 1406.95 583.915 1420.55 584.099 1434.21 583.5 z M 1434.75 600.08 C 1440.7 600.003 1455.15 600.854 1458.92 597.034 L 1458.53 595.224 C 1452.3 591.346 1421.06 592.554 1413.95 593.433 C 1408.75 593.696 1395.27 593.661 1391.75 596.795 C 1392.08 598.425 1391.87 599.362 1393.13 599.873 C 1402.02 603.494 1424.89 600.118 1434.75 600.08 z"/>
<path transform="translate(0,0)" fill="currentColor" fill-opacity="0.933333" d="M 1124.46 790.161 C 1142.94 787.84 1172.99 786.847 1192.13 785.681 C 1238.14 783.107 1284.18 780.781 1330.22 778.703 C 1329.96 781.255 1329.89 782.496 1328.05 784.383 L 1329.72 784.643 L 1329.48 784.3 C 1332.55 785.164 1337.06 786.022 1339.67 786.884 C 1301.23 789.981 1258.27 790.974 1219.34 793.153 C 1205.28 793.915 1191.23 794.748 1177.18 795.651 C 1170.49 796.085 1156.5 797.298 1150.33 796.836 C 1148.22 796.256 1138.44 795.608 1135.05 795.142 L 1136.64 794.923 C 1132.09 793.81 1127.91 793.256 1124.46 790.161 z"/>
<path transform="translate(0,0)" fill="currentColor" fill-opacity="0.960784" d="M 1892.26 699.616 L 1892 700.791 C 1885.18 702.987 1877.83 703.249 1874.14 706.909 L 1873.93 708.773 C 1879.28 711.357 1885.79 705.882 1894.06 707.118 C 1888.97 709.504 1877.08 711.85 1871.17 713.227 C 1837.99 720.811 1804.97 729.069 1772.13 737.996 C 1761.9 740.82 1725.61 752.337 1718.02 753.093 L 1717.92 751.643 C 1725 749.902 1760.31 739.917 1765.94 737.022 L 1765.97 735.862 C 1763.32 733.711 1761.55 734.244 1757.68 733.464 C 1772.36 728.472 1881.07 699.344 1892.26 699.616 z"/>
<path transform="translate(0,0)" fill="currentColor" fill-opacity="0.945098" d="M 1234.37 809.15 C 1248.43 807.834 1265.21 807.533 1279.57 806.735 L 1384.11 801.234 L 1383.24 803.194 C 1380.2 803.7 1379.46 803.663 1376.35 803.556 C 1379.39 804.774 1380.84 804.884 1384.04 805.386 L 1383.54 806.075 L 1379.41 806.335 C 1385.24 808.574 1386.76 807.046 1390.67 809.906 C 1359.43 810.293 1327.23 813.372 1295.94 814.261 C 1286.2 814.538 1271.46 815.944 1262.15 815.696 C 1256.44 811.695 1241.1 814.967 1234.37 809.15 z"/>
<path transform="translate(0,0)" fill="currentColor" fill-opacity="0.0117647" d="M 223.593 631.756 L 224.366 632.481 C 224.323 634.131 199.947 669.59 197.067 673.802 C 196.75 673.578 196.543 672.86 196.338 672.392 C 197.855 669.059 199.493 665.783 201.251 662.571 C 205.175 655.399 216.511 633.833 223.593 631.756 z"/>
<path transform="translate(0,0)" fill="currentColor" fill-opacity="0.937255" d="M 456.677 717.363 C 478.834 714.889 503.891 719.27 524.169 728.322 C 555.305 742.096 579.615 767.785 591.65 799.634 C 603.896 831.866 602.842 867.642 588.72 899.098 C 572.993 933.898 545.496 957.388 510.194 970.752 L 1499.63 970.684 C 1468.02 955.764 1444.3 934.24 1429.55 902.097 C 1415.08 871.092 1413.59 835.587 1425.43 803.481 C 1437.73 771.229 1462.3 745.158 1493.77 730.966 C 1526.5 716.277 1563.74 715.224 1597.25 728.04 C 1629.21 740.105 1654.9 764.617 1668.46 795.969 C 1682.81 827.749 1683.73 863.972 1671.03 896.443 C 1657.13 932.026 1631.96 955.691 1597.44 970.801 L 1689.48 970.852 L 1794.04 970.846 C 1802.95 970.841 1839.56 969.426 1844.46 972.71 C 1846.48 975.688 1846.28 974.454 1845.84 977.463 C 1842.37 980.652 1838.91 980.246 1834.46 980.175 C 1814.99 979.866 1795.51 979.997 1776.03 980.009 L 1550.15 980.028 L 477.578 980.023 L 297.892 979.992 L 239.229 979.994 C 232.152 979.997 211.891 981.303 206.637 978.378 C 205.118 975.347 205.323 976.733 206.574 972.801 C 210.294 969.201 226.192 970.917 231.858 970.916 L 280.621 970.896 L 432.192 970.706 C 417.616 965.242 406.685 959.865 394.111 950.424 C 366.126 929.8 347.762 898.653 343.265 864.181 C 338.34 829.789 347.276 794.85 368.108 767.045 C 390.542 737.591 420.495 722.31 456.677 717.363 z M 1562.49 970.731 C 1629.52 963.234 1677.81 902.874 1670.41 835.839 C 1663.02 768.805 1602.73 720.423 1535.68 727.717 C 1468.49 735.027 1419.99 795.471 1427.4 862.65 C 1434.81 929.828 1495.33 978.245 1562.49 970.731 z M 479.454 967.101 C 546.001 962.414 596.204 904.759 591.695 838.2 C 587.186 771.642 529.665 721.285 463.095 725.616 C 396.273 729.964 345.684 787.75 350.21 854.56 C 354.736 921.37 412.656 971.805 479.454 967.101 z"/>
<path transform="translate(0,0)" fill="currentColor" fill-opacity="0.933333" d="M 1542.31 759.49 C 1592.41 756.04 1635.86 793.751 1639.5 843.834 C 1643.14 893.917 1605.59 937.514 1555.53 941.344 C 1505.19 945.195 1461.3 907.403 1457.64 857.05 C 1453.98 806.697 1491.94 762.958 1542.31 759.49 z M 1556.52 932.233 C 1601.68 927.88 1634.79 887.782 1630.52 842.611 C 1626.25 797.44 1586.22 764.256 1541.04 768.444 C 1495.74 772.642 1462.45 812.806 1466.74 858.094 C 1471.02 903.382 1511.24 936.597 1556.52 932.233 z"/>
<path transform="translate(0,0)" fill="currentColor" fill-opacity="0.933333" d="M 461.153 757.873 C 510.676 752.485 555.181 788.287 560.528 837.815 C 565.874 887.342 530.034 931.817 480.502 937.121 C 431.029 942.419 386.619 906.632 381.279 857.163 C 375.939 807.695 411.689 763.255 461.153 757.873 z M 479.485 928.266 C 524.132 923.557 556.495 883.526 551.745 838.883 C 546.996 794.24 506.934 761.914 462.296 766.705 C 417.715 771.49 385.441 811.487 390.184 856.072 C 394.928 900.657 434.896 932.968 479.485 928.266 z"/>
<path transform="translate(0,0)" fill="currentColor" fill-opacity="0.945098" d="M 357.83 569.345 C 366.799 566.594 407.072 560.855 417.158 559.726 C 463.288 554.559 515.464 547.524 561.772 545.862 C 566.573 546.14 571.378 546.351 576.184 546.495 C 571.943 549.233 561.232 545.175 559.272 549.307 C 565.172 549.391 567.535 549.563 573.34 550.548 L 573.218 551.195 L 572.162 550.489 C 569.261 553.026 547.338 552.302 541.053 554.725 L 543.671 555.477 C 501.602 558.71 459.625 563.053 417.784 568.503 L 415.493 567.615 C 418.06 566.156 433.949 563.967 437.921 563.282 L 437.315 562.16 C 420.549 557.25 367.176 573.145 357.83 569.345 z"/>
</svg>
