<svg xmlns="http://www.w3.org/2000/svg" version="1.1" style="display: block;" viewBox="0 0 2048 1365">
<path transform="translate(0,0)" fill="currentColor" d="M 900.479 325.484 C 1092.12 324.541 1283.76 324.857 1475.4 326.433 L 1699.81 328.906 C 1759.03 329.622 1819.68 329.199 1878.63 335.107 C 1887.21 335.967 1898.05 336.706 1905.1 341.945 C 1936.37 365.164 1942.42 510.308 1948.89 549.881 C 1958.02 554.695 1961.13 561.651 1956.83 571.537 C 1954.45 573.958 1953.66 574.131 1950.46 575.371 C 1958.5 658.638 1961.03 742.345 1958.05 825.947 C 1959.49 829.036 1966.06 832.319 1965.69 837.131 C 1964.18 857.129 1961.01 872.666 1961.29 893.081 C 1961.72 893.722 1962.12 894.367 1962.54 895.018 C 1964.13 897.51 1964.97 899.568 1965.26 902.543 C 1965.9 908.979 1964.16 915.459 1960.04 920.48 C 1940.88 943.797 1763.05 960.586 1723.24 964.021 C 1716.08 964.638 1703.56 967.289 1697.89 962.029 C 1693.38 957.84 1694.09 949.599 1693.96 943.897 L 1677.13 943.997 C 1678.66 994.158 1645.06 1037.2 1595.7 1046.62 C 1569.1 1051.97 1541.47 1046.16 1519.28 1030.55 C 1492.62 1012.08 1481.16 989.367 1475.5 958.6 L 1453.99 958.46 C 1451.08 965.43 1449.82 966.841 1441.71 967.126 C 1430.05 967.535 1418.28 966.962 1406.61 966.706 C 1392.31 966.486 1378.01 966.43 1363.71 966.539 L 1179.4 966.442 C 991.129 965.62 802.85 966.509 614.591 969.108 C 602.286 969.155 516.896 972.977 511.211 969.51 C 507.981 967.541 507.423 963.233 506.738 959.833 L 485.728 959.979 C 481.641 1000.76 445.062 1034.37 406.018 1042.62 C 379.453 1048.29 351.723 1043.07 329.041 1028.12 C 306.453 1013.24 289.962 990.29 284.598 963.655 C 271.137 963.197 267.958 967.699 262.931 967.671 C 239.028 967.538 210.779 964.874 187.417 960.082 C 166.815 955.856 125.987 945.712 113.242 927.698 C 110.624 923.998 109.555 916.959 108.786 913.144 C 103.969 889.239 118.752 894.251 123.071 880.029 C 125.465 872.145 119.487 868.994 122.454 854.488 C 105.787 842.377 113.756 839.039 117.92 823.997 C 118.423 822.179 116.617 813.235 116.263 810.484 C 115.516 804.493 115.442 798.437 116.043 792.429 C 117.481 776.84 119.122 762.336 133.597 753.493 C 139.814 749.695 120.266 741.552 140.57 725.699 C 182.29 693.06 238.336 677.753 287.425 659.255 C 306.493 652.069 334.807 641.651 354.729 642.798 C 444.81 551.263 532.725 449.528 639.961 376.558 C 646.28 372.259 653.618 367.974 660.322 364.244 C 683.71 351.335 708.804 341.795 734.86 335.905 C 781.115 325.858 851.852 326.381 900.479 325.484 z M 790.011 385.27 C 848.74 382.152 911.998 383.204 970.906 382.655 L 1383.33 382.623 C 1418.89 382.522 1454.44 382.642 1490 382.982 L 1649.96 386.439 C 1688.91 386.642 1727.85 387.49 1766.76 388.981 C 1785.52 389.689 1813.75 390.657 1831.81 393.332 C 1828.43 394.977 1827.44 394.958 1823.66 395.359 C 1780.28 392.812 1736.85 391.333 1693.39 390.923 C 1670.51 390.652 1647.12 391.101 1624.31 390.498 C 1393.23 385.949 1162.09 384.714 930.966 386.793 L 789.96 388.063 C 790.193 404.846 790.688 422.146 789.987 438.879 C 1058.06 435.488 1326.16 435.287 1594.24 438.277 L 1764.11 439.984 C 1787.6 440.416 1827.94 440.237 1849.68 443.955 L 1850.2 444.778 C 1839.44 448.015 1821.41 445.443 1809.41 445.3 L 1693.88 443.034 L 1454.69 441.336 L 1044.55 441.371 C 960.475 441.892 874.256 444.33 790.279 442.765 C 791.41 456.968 790.851 476.072 790.847 490.773 L 790.817 573.826 C 790.827 623.115 793.061 681.325 791.05 729.264 C 881.588 724.602 977.668 722.84 1068.5 720.849 L 1173.98 718.191 C 1189.91 717.876 1205.47 717.124 1221.41 717.602 L 1225.89 716.925 C 1232.67 717.484 1247.51 717.107 1254.68 717.104 L 1310.97 717.002 L 1484.63 716.195 L 1907.36 713.957 C 1905.74 689.702 1905.38 663.222 1904.11 638.529 C 1901.25 581.744 1897.22 525.024 1892.03 468.405 C 1887.91 425.743 1883.68 382.47 1871.78 341.163 C 1823.16 336.38 1767.21 336.664 1718.34 335.91 L 1491.07 332.925 C 1364.39 331.818 1237.71 331.516 1111.04 332.02 C 1003.96 332.021 897.851 330.682 790.848 335.411 C 790.321 352.025 790.042 368.647 790.011 385.27 z M 454.023 616.964 C 457.444 612.601 459.698 609.78 463.588 605.868 C 466.756 591.101 469.621 584.222 486.017 582.598 C 504.78 561.607 524.145 541.162 544.087 521.287 C 554.109 511.183 572.86 491.19 584.774 484.608 C 624.893 462.443 677.438 465.083 721.988 460.019 C 734.581 458.588 750.476 462.419 748.999 477.954 C 745.248 517.409 741.574 572.142 728.32 609.025 C 726.145 615.181 722.778 620.847 718.41 625.698 C 695.426 650.854 538.34 679.461 501.762 681.218 L 453.308 686.966 C 453.255 706.648 450.74 773.112 455.597 787.663 C 456.646 790.806 459.935 793.946 462.24 796.248 C 473.612 807.6 486.176 817.086 496.045 829.945 C 548.835 829.254 602.01 830.054 654.854 829.777 L 711.203 829.283 C 720.221 829.216 734.68 828.757 743.448 829.659 C 744.298 804.978 745.429 779.681 751.326 755.625 C 753.227 747.872 753.748 742.021 754.235 734.153 L 598.003 740.584 C 584.896 741.079 548.496 743.877 537.766 743.015 L 537.127 742.191 C 548.107 737.927 732.022 730.282 754.721 730.592 C 759.465 634.079 765.203 540.549 766.111 443.795 C 760.623 443.868 746.232 443.739 741.434 444.411 C 693.704 446.828 619.477 448.368 577.017 473.567 C 561.514 482.767 545.094 503.444 531.339 515.735 C 504.563 545.237 460.247 576.213 454.023 616.964 z M 595.477 487.97 C 585.127 545.108 583.122 607.636 574.124 663.644 C 581.316 662.114 588.526 660.672 595.753 659.318 C 622.112 653.35 680.496 642.218 702.739 629.059 C 708.925 625.399 713.953 620.286 717.728 614.181 C 720.67 609.424 722.639 604.439 724.123 599.065 C 729.469 579.712 744.617 490.96 740.434 474.495 C 739.716 471.667 738.84 469.924 736.201 468.483 C 730.813 465.542 721.295 467.092 715.488 467.589 C 685.742 468.738 619.859 473.754 595.477 487.97 z M 373.738 844.715 C 320.662 851.173 282.809 899.344 289.084 952.442 C 295.359 1005.54 343.398 1043.56 396.517 1037.47 C 449.897 1031.35 488.144 983.021 481.839 929.662 C 475.533 876.304 427.074 838.224 373.738 844.715 z M 791.263 890.558 C 791.871 900.689 790.998 943.84 792.017 948.482 L 794.75 948.976 L 1221.4 947.972 C 1221.3 937.753 1222.14 896.129 1221.15 889.867 C 1218.79 888.951 1218.34 889.155 1215.89 889.469 C 1189.2 890.61 1159.83 890.198 1132.96 890.358 L 972.502 890.708 L 851.057 890.719 C 833.708 890.704 807.85 891.456 791.263 890.558 z M 129.973 854.007 C 139.063 900.469 117.08 885.313 114.204 901.635 C 117.441 905.289 202.501 907.892 211.768 903.792 C 222.781 892.831 203.669 874.054 199.324 867.17 C 188.507 850.03 146.358 854.616 140.951 849.15 C 141.488 848.217 141.42 847.794 142.507 847.491 C 153.86 844.335 180.829 848.961 191.18 854.901 C 202.791 861.564 215.698 876.502 219.083 889.611 C 220.036 893.301 221.025 899.146 219.02 902.548 C 216.331 907.107 209.789 909.271 204.843 910.194 C 193.42 912.326 127.37 910.096 114.607 908.375 C 115.869 917.224 116.205 924.526 124.355 929.911 C 159.228 952.953 223.223 960.903 262.991 961.227 C 262.984 913.346 273.405 865.122 314.645 835.179 C 309.699 835.014 301.741 834.01 297.995 836.77 L 296.063 835.07 C 259.796 832.956 250.426 810.339 226.684 786.742 C 226.273 786.246 225.863 785.751 225.453 785.255 C 200.051 789.375 175.579 792.074 149.978 794.83 C 145.113 812.551 138.519 838.406 129.973 854.007 z M 248.507 728.402 C 256.001 727.677 282.931 722.28 279.58 735.407 C 276.259 748.418 258.899 767.315 248.441 776.03 C 244.585 779.243 234.18 782.885 229.556 784.397 C 247.675 797.56 252.717 814.281 277.571 826.917 C 281.441 821.523 282.989 819.851 287.802 815.221 C 318.135 788.901 357.693 775.731 397.749 778.614 C 416.299 780.022 434.433 784.828 451.246 792.792 C 444.231 776.657 447.059 709.509 446.806 687.733 C 408.058 690.042 388.387 698.476 422.636 654.686 L 385.962 651.277 C 369.76 668.046 360.976 688.685 338.436 697.512 C 325.839 702.445 313.065 706.102 300.186 710.173 C 282.747 715.629 265.51 721.709 248.507 728.402 z M 1221.91 828.008 C 1220.74 794.182 1221.15 755.374 1221.69 721.413 C 1219.15 721.3 1217.62 721.187 1215.1 721.444 C 1187.7 722.81 1159.57 722.339 1132.11 723.011 L 978.013 727.179 C 917.233 728.576 851.058 732.236 791.021 732.077 C 791.299 742.118 790.87 827.917 791.646 829.339 C 794.096 829.503 795.069 829.576 797.498 829.347 L 1221.91 828.008 z M 1311.5 947.82 L 1449.85 947.847 C 1453.72 924.46 1455.05 908.766 1468.35 887.978 C 1439.87 888.134 1408.46 887.668 1380.18 888.521 C 1331.37 889.101 1273.82 890.487 1225.17 889.212 C 1226.36 906.377 1226.55 930.658 1225.74 948.028 L 1311.5 947.82 z M 1910.31 669.526 C 1922.1 669.382 1939.28 668.689 1950.59 669.809 C 1947.98 622.215 1933.33 375.048 1903.74 349.669 C 1896.38 343.362 1885.4 343.112 1876.31 341.285 C 1884.79 366.608 1890.28 408.938 1893.36 436.133 C 1897.98 477.759 1901.58 519.494 1904.13 561.298 C 1906.36 596.142 1909.37 634.717 1910.31 669.526 z M 1571.44 852.877 C 1519.2 855.723 1479.19 900.443 1482.15 952.682 C 1485.11 1004.92 1529.91 1044.83 1582.15 1041.76 C 1634.22 1038.69 1673.98 994.054 1671.03 941.976 C 1668.08 889.899 1623.52 850.039 1571.44 852.877 z M 526.315 891.032 C 530.106 909.221 532.424 924.249 534.98 942.763 L 536.062 947.97 C 542.28 950.429 690.11 948.343 709.044 949.081 C 711.964 949.195 719.005 948.311 722.166 947.034 C 726.951 945.101 728.689 939.324 730.601 935.257 C 733.536 929.016 738.712 895.129 737.796 890.61 L 603.03 890.772 C 578.234 890.877 550.889 891.673 526.315 891.032 z M 1785.25 882.613 C 1810.46 882.082 1835.66 881.137 1860.84 879.779 C 1873.03 879.232 1887.67 878.172 1899.64 878.507 C 1901.72 863.038 1903.24 847.498 1904.19 831.918 C 1853.36 831.828 1802.52 832.027 1751.69 832.515 L 1631.62 833.227 C 1652.99 846.701 1671.16 862.447 1683.23 885.09 C 1715.67 884.698 1753.19 884.334 1785.25 882.613 z M 524.814 886.339 L 677.369 885.684 L 716.893 885.683 C 722.351 885.723 733.339 886.365 738.241 885.431 C 738.365 884.863 738.675 883.739 738.644 883.228 C 740.218 868.293 741.049 848.996 743.044 834.937 L 585.853 834.968 C 557.586 834.972 527.673 835.454 499.515 834.799 C 511.829 852.021 518.5 865.924 524.814 886.339 z M 1469.88 883.866 C 1473.53 881.327 1482.14 866.923 1485.96 862.399 C 1496.98 849.36 1506.26 842.467 1520.47 834.096 C 1503.01 831.991 1479.53 832.978 1461.57 833.087 C 1400.13 833.46 1338.42 832.498 1277.02 833.478 C 1260 833.842 1242.98 834.011 1225.96 833.984 C 1225.99 850.682 1226.28 868.385 1225.78 884.98 C 1307.14 883.909 1388.51 883.537 1469.88 883.866 z M 1685.7 889.159 C 1689.98 898.669 1692.54 905.322 1695.09 916.394 C 1697.21 925.597 1699.17 941.235 1700.43 951.33 C 1700.95 951.647 1701.47 951.964 1701.99 952.282 C 1721.12 949.767 1740.52 948.643 1759.55 946.276 C 1803.11 940.861 1848.78 935.326 1891.65 926.098 C 1895.06 911.455 1897.15 897.27 1899.4 882.427 L 1880.51 883.581 C 1814.9 885.763 1751.79 889.258 1685.7 889.159 z M 1063.13 834.497 L 887.224 834.69 C 856.061 834.732 822.352 835.392 791.413 834.66 C 791.922 845.461 792.75 876.288 791.262 886.409 C 845.528 885.769 899.96 886.758 954.25 886.292 L 1221.87 884.972 C 1221.05 874.186 1220.81 844.98 1221.76 834.098 L 1063.13 834.497 z M 390.995 645.745 C 394.783 646.208 406.585 647.91 409.758 647.819 C 415.324 648.276 420.885 648.788 426.441 649.356 C 433.611 640.574 441.083 631.082 448.791 622.858 C 451.322 599.674 456.919 586.477 472.822 568.842 C 499.02 539.789 527.712 513.087 555.234 485.294 C 586.009 454.215 628.122 449.125 669.622 445.32 C 707.656 441.832 747.699 438.558 785.99 438.832 C 785.895 422.5 785.477 404.786 785.866 388.566 C 780.258 389.025 774.638 389.312 769.013 389.427 C 739.275 391.317 713.564 391.843 684.909 400.666 C 613.614 422.617 558.808 471.89 507.394 523.768 C 467.851 563.668 429.813 605.058 390.995 645.745 z M 544.479 462.619 L 558.25 462.546 C 558.686 462.579 564.044 462.98 564.044 462.98 C 578.403 453.336 591.425 442.417 606.18 433.211 C 622.706 422.901 639.14 413.636 657.414 406.684 C 701.418 388.2 739.497 388.279 785.912 385.383 C 784.37 368.057 786.64 352.819 785.816 336.823 C 782.998 335.488 782.072 336.119 778.647 336.411 C 672.165 346.878 622.131 393.469 544.479 462.619 z M 566.501 665.276 C 567.625 646.648 570.618 625.186 572.811 606.496 L 581.78 528.14 C 582.46 522.478 586.964 495.484 586.442 491.954 C 551.518 521.506 525.726 550.86 493.757 582.884 C 497.253 584.781 504.279 588.597 504.664 592.485 C 506.75 613.523 508.546 651.58 507.851 671.907 C 505.396 672.566 501.245 673.41 499.34 674.807 C 515.085 673.826 551 668.675 566.501 665.276 z M 367.558 650.169 C 360.686 649.856 348.239 648.959 341.79 649.282 C 306.541 656.664 156.81 709.441 138.194 738.403 C 137.63 739.28 137.201 740.052 136.851 741.031 L 138.05 743.867 C 145.217 743.647 148.538 738.967 154.193 734.857 C 198.1 705.292 252.345 690.152 302.206 672.679 C 321.477 665.926 348.647 655.787 367.558 650.169 z M 785.822 886.324 C 787.784 882.956 786.476 842.146 786.595 834.754 C 773.639 834.825 760.162 835.089 747.251 834.764 C 746.647 852.293 744.576 868.733 743.835 885.749 L 785.822 886.324 z M 1225.24 828.054 L 1315.25 827.842 L 1463.25 827.773 C 1500.7 795.486 1538.06 776.127 1588.92 780.148 C 1629.57 783.362 1657.1 798.311 1685.19 826.583 C 1757.28 825.908 1832.46 827.768 1904.12 826.047 C 1907.42 791.395 1904.91 751.293 1907.57 717.789 L 1865.28 718.523 C 1652.06 720.71 1438.82 721.594 1225.58 721.176 C 1226.69 752.504 1226.75 796.895 1225.24 828.054 z M 411.358 684.038 C 422 683.065 436.931 682.367 446.97 680.882 C 446.883 673.978 448.591 636.344 447.507 632.754 C 441.44 639.41 409.46 677.213 411.358 684.038 z M 304.888 829.071 C 325.263 808.611 371.007 798.676 398.957 802.303 C 419.82 805.212 448.718 816.035 464.624 829.631 C 472.505 829.253 480.397 829.182 488.284 829.418 C 459.988 798.39 434.12 786.178 391.785 782.999 C 387.657 782.689 378.147 782.749 374.421 783.404 C 342.287 786.322 301.872 802.077 281.985 828.59 C 290.172 829.054 296.69 829.196 304.888 829.071 z M 1909.11 831.946 C 1908.62 839.664 1907.9 848.137 1907.84 855.813 L 1945.08 855.815 C 1945.04 847.803 1945.13 839.791 1945.37 831.783 L 1909.11 831.946 z M 394.126 813.62 C 414.912 816.665 426.213 820.311 444.869 830.345 C 449.991 830.076 455.864 829.622 460.932 829.617 C 433.746 814.734 405.706 801.073 373.352 805.398 C 344.857 808.462 331.517 815.735 306.652 829.714 L 320.979 830.924 C 343.194 819.493 368.701 810.789 394.126 813.62 z M 1528.07 830.191 C 1550.89 820.725 1567.48 818.162 1591.96 821.33 C 1618.95 825.534 1612.68 831.256 1641.41 828.004 C 1619.55 817.922 1600.29 810.725 1575.63 811.781 C 1572.7 811.907 1566.11 811.786 1563.5 812.366 C 1542.57 814.68 1529.33 820.868 1510.11 828.835 C 1516.07 828.968 1522.3 828.846 1528.07 830.191 z M 186.992 785.945 C 217.919 782.035 242.295 782.593 261.869 755.284 C 266.638 748.632 271.616 742.4 275.145 734.755 C 265.086 734.647 244.797 734.022 235.602 735.5 C 211.008 738.338 186.788 743.799 163.357 751.791 C 159.542 765.126 155.28 778.039 151.268 791.279 C 163.227 788.983 174.938 787.527 186.992 785.945 z M 1679.33 827.806 C 1650.33 798.83 1617.76 784.582 1576.49 784.669 C 1571.2 784.721 1565.9 784.946 1560.62 785.344 C 1523.48 790.938 1500.42 803.265 1471.83 827.877 L 1507.98 827.875 C 1533.58 813.167 1563.22 804.419 1592.89 809.078 C 1613.03 811.609 1629.29 818.07 1646.71 828.05 C 1657.58 827.87 1668.45 827.788 1679.33 827.806 z M 126.357 848.379 C 131.768 838.997 137.152 820.664 140.636 809.766 C 146.522 791.397 152.244 772.976 157.8 754.504 L 157.362 753.061 C 155.83 753.103 154.47 753.074 152.957 753.315 C 149.673 753.913 146.54 753.968 144.481 756.299 C 141.154 767.798 118.82 839.875 121.765 845.803 C 122.451 847.186 124.359 847.93 125.838 848.29 C 126.008 848.331 126.184 848.349 126.357 848.379 z M 283.895 958.768 C 281.174 926.161 286.247 899.986 307.992 874.231 C 331.859 845.962 362.158 835.699 398.243 839.099 C 420.39 840.185 445.922 853.874 460.313 870.35 C 483.851 897.297 488.52 920.254 487.07 954.003 L 506.942 953.904 C 503.913 920.538 499.034 897.19 479.752 868.704 C 459.419 838.665 409.735 812.917 373.136 819.357 C 296.718 831.426 266.235 886.89 269.035 959.26 L 283.895 958.768 z M 482.735 591.013 C 477.712 594.548 476.532 595.73 472.374 600.317 C 470.689 611.661 466.735 655.281 470.259 663.976 C 475.207 667.498 494.928 670.116 500.22 665.612 C 502.094 664.017 501.08 653.357 500.845 650.113 L 499.879 648.437 C 492.088 647.098 480.417 648.356 474.057 646.491 L 473.249 645.164 C 477.293 639.958 493.675 643.47 500.178 644.266 C 499.882 635.313 499.845 626.099 499.244 617.187 C 498.436 605.203 500.282 589.416 483.883 590.904 L 482.735 591.013 z M 492.455 834.878 C 479.48 834.945 464.891 835.351 452.041 834.939 C 474.586 849.369 484.144 863.283 496.022 886.162 C 503.438 886.242 512.087 886.537 519.397 886.329 C 512.17 866.607 505.869 851.475 492.455 834.878 z M 1930.73 825.05 C 1927.33 794.129 1929.61 760.081 1929.35 728.877 C 1929.32 725.81 1930.71 719.322 1929.03 717.285 L 1926.74 717.545 C 1922.06 717.716 1916.64 718.044 1912.02 717.961 C 1912.09 754.725 1911.06 787.728 1909.54 824.49 C 1911.42 825.959 1910.64 825.546 1913.75 825.232 L 1930.73 825.05 z M 475.147 677.363 L 491.143 675.313 C 482.062 674.53 472.439 673.863 463.425 672.864 C 458.606 653.77 462.673 633.318 462.905 613.988 C 459.903 617.606 456.009 622.053 453.358 625.8 C 451.892 645.161 451.943 661.493 452.01 680.896 C 459.709 679.636 467.422 678.458 475.147 677.363 z M 1934.96 825.085 C 1938.1 825.1 1950.3 825.842 1952.01 823.861 C 1952.41 772.533 1953.16 727.115 1950.79 675.192 C 1938.63 676.314 1923.01 675.938 1910.72 675.388 C 1911.43 688.692 1912.11 701.119 1912.05 714.475 L 1934.74 713.649 L 1934.96 825.085 z M 1949.98 831.81 C 1950.18 839.457 1947.86 851.128 1951.53 855.425 C 1954.53 856.085 1955.42 856.057 1958.52 856.108 C 1960.62 843.417 1964.43 835.9 1949.98 831.81 z M 759.174 733.154 L 758.726 750.496 C 766.425 750.414 779.323 750.078 786.659 751.822 L 786.801 733.004 L 759.174 733.154 z M 138.667 757.778 C 135.6 759.789 132.984 760.908 131.819 764.199 C 132.232 767.325 132.812 767.741 134.722 770.417 L 135.91 770.441 C 137.149 767.642 139.141 760.652 138.667 757.778 z M 1453.74 953.761 C 1461.05 953.637 1468.5 953.598 1475.78 953.228 C 1479.69 895.521 1505.64 857.992 1564.42 847.045 C 1628.71 844.76 1665.3 877.223 1676.57 939.769 L 1693.5 939.916 C 1686.59 871.225 1638.47 824.967 1568.64 825.45 C 1536.62 828.721 1507.9 842.829 1487.79 868.112 C 1464.54 897.331 1458.93 918.026 1453.74 953.761 z M 757.832 755.369 C 749.978 779.183 749.474 804.279 747.859 829.279 L 779.004 829.199 C 782.279 829.19 784.138 829.757 786.522 828.199 C 787.279 805.048 786.421 779.755 786.835 755.956 C 778.09 755.996 766.226 756.37 757.832 755.369 z M 1889.31 931.265 C 1832.45 941.652 1760.79 952.358 1702.84 956.033 L 1702.44 957.05 L 1704.06 958.509 C 1722.5 957.786 1880.6 941.467 1889.3 935.248 L 1890.67 932.521 L 1890.12 931.253 L 1889.31 931.265 z M 148.303 751.57 C 177.89 740.775 203.351 734.658 234.674 730.636 C 238.959 730.086 248.271 724.35 252.989 722.755 C 283.836 708.336 320.22 702.842 349.82 686.405 C 354.485 683.815 371.822 658.739 376.468 652.97 L 376.769 651.115 C 374.469 650.089 372.886 650.662 370.361 651.075 C 355.236 659.11 336.352 664.112 320.701 669.839 C 275.101 686.525 173.78 715.155 141.982 749.471 L 141.566 751.504 C 144.371 752.947 144.662 752.235 148.303 751.57 z M 770.841 443.472 C 771.264 501.825 768.332 561.388 765.388 619.716 C 763.553 656.082 762.511 693.997 759.491 730.104 L 776.319 729.264 L 786.733 729.053 L 786.507 546.644 C 786.36 512.319 785.302 477.243 785.957 442.991 L 770.841 443.472 z M 743.108 890.5 C 741.482 907.449 739.971 935.715 729.662 949.057 L 774.378 948.932 L 786.875 948.967 C 786.712 929.505 786.671 910.041 786.752 890.577 C 773.616 890.607 755.893 891.111 743.108 890.5 z M 536.036 469.551 C 500.582 502.65 465.941 536.608 432.144 571.396 C 409.502 594.788 386.326 621.197 363.631 643.85 L 380.898 644.142 C 383.25 644.467 383.757 645.029 385.149 643.696 C 389.528 639.504 393.775 634.692 398.083 630.302 C 412.048 615.953 425.862 601.457 439.522 586.816 C 476.103 548.085 518.812 503.146 558.482 467.886 C 555.784 467.968 548.642 468.018 546.343 468.407 L 536.036 469.551 z M 1952.03 861.148 L 1907.06 861.086 C 1904.32 888.75 1901.17 907.656 1894.88 934.99 C 1909.04 932.462 1923.03 929.09 1936.79 924.893 C 1946.16 921.694 1967.04 913.832 1955.77 900.528 L 1952.28 899.624 C 1951.33 892.966 1951.98 869.063 1952.03 861.148 z M 130.835 775.251 C 127.122 782.161 122.865 792.947 124.657 800.87 L 125.85 801.098 L 126.149 800.806 C 127.841 795.543 133.106 780.81 133.186 776.601 C 132.546 776.214 131.48 775.504 130.835 775.251 z M 519.874 891.578 C 512.593 891.827 506.06 891.98 498.757 891.862 C 504.026 905.153 506.945 913.754 509.301 927.997 C 511.042 938.525 512.124 953.921 514.572 964.045 C 820.773 959.234 1127.02 957.838 1433.25 959.857 C 1437.58 959.997 1443.14 960.719 1446.68 958.747 C 1448.1 956.182 1448.16 956.967 1447.93 954.501 C 1442.56 953.277 1408.46 953.994 1400.58 953.987 L 1273.97 954 L 754.901 954.404 L 603.834 954.631 L 557.865 954.745 C 551.965 954.754 538.898 955.052 533.718 954.354 C 528.859 943.825 523.935 893.808 519.874 891.578 z"/>
<path transform="translate(0,0)" fill="currentColor" d="M 1221.85 665.169 C 1104.36 664.716 986.155 669.293 868.617 668.899 C 827.138 668.76 829.041 615.572 826.069 585.154 C 823.067 555.376 820.335 525.57 817.873 495.742 C 816.464 477.353 815.372 458.234 839.187 457.437 C 863.857 456.611 888.513 457.378 913.177 456.949 C 991.596 455.692 1070.03 455.332 1148.46 455.869 L 1796.19 458.485 C 1849.5 458.972 1851.31 473.349 1859.43 520.516 C 1863.8 546.431 1867.64 572.434 1870.93 598.509 C 1872.48 610.153 1881.16 652.346 1871.97 660.601 C 1864.47 667.324 1838.8 665.273 1826.84 665.497 C 1795.15 666.025 1763.46 666.152 1731.77 665.877 L 1529.5 665.466 L 1326.19 665.226 C 1294.26 665.237 1256.41 666.36 1225.22 665.004 L 1224.81 664.224 C 1244.56 661.572 1280.35 665.174 1300.64 663.48 C 1292.98 662.283 1275.16 663.234 1266.57 663.083 C 1254.85 662.876 1244.13 662.254 1232.42 661.551 C 1241.24 660.945 1293.55 662.534 1296.26 660.033 C 1296.38 659.025 1296.86 657.962 1296.13 657.132 C 1292.34 652.828 1236.86 652.946 1227 653.031 C 1227.25 611.544 1226.45 568.605 1226.45 526.893 L 1226.5 487.449 C 1226.57 481.273 1227.27 470.663 1226.67 465.156 C 1224.13 465.384 1225.35 465 1223.07 466.805 C 1219.37 475.348 1223.65 633.89 1222.01 657.621 C 1220.36 654.731 1220.98 481.995 1220.49 464 C 1213.05 464.113 1202.55 464.209 1195.19 463.234 C 1192.54 462.882 1193.6 462.658 1190.15 462.863 L 952.249 463.565 L 880.618 463.811 C 867.467 463.85 854.127 463.574 840.992 464.336 C 827.412 465.015 822.912 474.255 824.039 487.394 C 826.232 512.945 826.95 534.07 830.56 560.349 C 833.641 582.773 833.63 632.101 847.93 650.657 C 854.077 658.634 884.462 655.913 895.925 655.613 C 914.61 655.022 933.3 654.633 951.993 654.448 L 1182.97 651.743 L 1182.93 653.287 C 1172.94 656.593 1156.33 653.328 1148.43 655.042 C 1148.31 657.331 1148.49 657.609 1149.01 659.784 L 1147.36 662.202 L 1148.48 663.432 C 1168.88 664.04 1204.75 661.998 1223.62 664.462 C 1222.35 675.507 1225.19 708.718 1222.48 714.645 C 1221.17 708.857 1221.8 672.799 1221.85 665.169 z M 1228.04 651.889 L 1454.98 651.883 C 1492.7 651.902 1536.1 653.105 1573.18 651.769 C 1574.96 637.988 1572.44 605.191 1572.24 590.156 C 1571.7 549.04 1568.74 505.711 1569.33 464.736 C 1527.43 463.717 1485.68 464.164 1443.79 463.887 C 1371.88 462.76 1299.96 462.393 1228.04 462.786 L 1228.04 651.889 z M 1585.69 651.938 L 1776.5 652.743 L 1830.23 653.025 C 1842.8 653.078 1856.39 653.818 1868.7 651.431 C 1871.92 639.093 1853.03 518.824 1848.44 499.113 C 1847.04 493.101 1845.05 486.824 1841.99 481.354 C 1838.28 474.72 1830.66 469.857 1823.28 468.411 C 1804.9 464.811 1781.86 466.547 1762.98 466.051 C 1702.03 464.452 1640.96 465.756 1580 465.043 C 1581.92 512.516 1583.47 560.004 1584.65 607.502 C 1585.09 621.008 1584.8 639.049 1585.69 651.938 z"/>
<path transform="translate(0,0)" fill="currentColor" d="M 699.036 686.275 C 708.948 685.358 719.784 683.168 722.728 695.304 C 723.673 699.199 737.763 692.667 742.865 704.879 C 741.592 715.207 729.874 716.549 721.683 716.854 C 718.696 722.735 716.105 723.598 710.249 726.012 C 667.122 733.627 646.116 693.95 699.036 686.275 z M 683.749 710.261 C 693.711 710.39 726.414 712.11 733.201 707.151 L 733.033 705.721 C 729.053 703.044 727.316 702.802 722.496 702.435 C 714.312 702.87 680.184 703.919 674.442 707.746 C 676.035 710.765 680.656 710.284 683.749 710.261 z M 675.762 699.359 L 701.25 697.957 C 705.536 697.98 711.44 698.517 714.924 696.376 L 715.436 694.753 C 711.225 691.068 702.945 691.46 697.616 692.308 C 688.283 693.874 684.207 695.058 675.762 699.359 z M 712.808 718.878 L 713.395 717.441 C 708.007 716.386 687.754 716.573 680.593 716.131 C 694.023 722.928 698.42 723.432 712.808 718.878 z"/>
<path transform="translate(0,0)" fill="currentColor" fill-opacity="0.00784314" d="M 680.593 716.131 C 687.754 716.573 708.007 716.386 713.395 717.441 L 712.808 718.878 C 698.42 723.432 694.023 722.928 680.593 716.131 z"/>
<path transform="translate(0,0)" fill="currentColor" d="M 374.078 869.626 C 413.755 863.145 451.171 890.058 457.647 929.735 C 464.123 969.412 437.205 1006.83 397.527 1013.3 C 357.856 1019.76 320.452 992.853 313.978 953.183 C 307.503 913.514 334.41 876.106 374.078 869.626 z M 392.522 1007.44 C 428.888 1003.51 455.194 970.862 451.291 934.493 C 447.389 898.125 414.756 871.797 378.385 875.675 C 341.978 879.556 315.62 912.227 319.526 948.631 C 323.432 985.034 356.121 1011.37 392.522 1007.44 z"/>
<path transform="translate(0,0)" fill="currentColor" d="M 382.427 963.375 C 384.718 963.834 385.805 964.351 387.923 965.216 C 391.941 969.433 397.47 993.096 400.02 1001.14 L 388.178 1001.27 C 380.988 1001.22 377.176 1000.38 370.214 999.053 C 375.356 987.921 377.286 971.976 382.427 963.375 z M 387.747 996.905 L 391.222 996.422 C 393.143 991.632 387.967 977.464 386.322 971.83 L 384.878 970.462 C 381.967 977.511 376.897 987.6 379.622 994.53 C 381.957 996.729 384.407 996.533 387.747 996.905 z"/>
<path transform="translate(0,0)" fill="currentColor" fill-opacity="0.980392" d="M 384.878 970.462 L 386.322 971.83 C 387.967 977.464 393.143 991.632 391.222 996.422 L 387.747 996.905 C 384.407 996.533 381.957 996.729 379.622 994.53 C 376.897 987.6 381.967 977.511 384.878 970.462 z"/>
<path transform="translate(0,0)" fill="currentColor" d="M 398.146 956.931 C 406.896 956.556 425.071 970.878 433.039 976.342 L 422.727 986.632 C 419.281 989.419 416.13 992.469 411.909 993.469 C 408.265 991.373 397.13 961.982 398.146 956.931 z M 413.532 987.335 L 420.214 982.259 L 423.221 979.153 C 423.02 973.229 410.736 967.739 405.548 964.713 C 406.478 972.887 410.016 979.919 413.532 987.335 z"/>
<path transform="translate(0,0)" fill="currentColor" fill-opacity="0.980392" d="M 405.548 964.713 C 410.736 967.739 423.02 973.229 423.221 979.153 L 420.214 982.259 L 413.532 987.335 C 410.016 979.919 406.478 972.887 405.548 964.713 z"/>
<path transform="translate(0,0)" fill="currentColor" d="M 367.841 954.72 C 370.393 955.395 370.253 955.356 372.106 957.27 C 373.141 963.476 362.217 986.856 359.251 994.018 L 350.495 988.857 C 346.419 985.489 342.143 981.543 338.149 978.011 C 348.443 971.579 358.552 962.655 367.841 954.72 z M 352.924 984.358 L 355.863 985.478 C 360.387 982.05 362.765 973.125 364.407 967.768 C 364.232 967.282 363.967 966.291 363.662 965.998 C 356.345 970.896 343.421 976.085 352.924 984.358 z"/>
<path transform="translate(0,0)" fill="currentColor" fill-opacity="0.984314" d="M 363.662 965.998 C 363.967 966.291 364.232 967.282 364.407 967.768 C 362.765 973.125 360.387 982.05 355.863 985.478 L 352.924 984.358 C 343.421 976.085 356.345 970.896 363.662 965.998 z"/>
<path transform="translate(0,0)" fill="currentColor" d="M 436.926 941.44 C 439.402 941.066 443.454 941.134 446.09 941.085 C 444.316 950.55 442.389 956.75 439.505 965.983 C 434.467 964.113 430.246 961.778 425.518 959.292 C 420.297 956.326 409.148 951.289 408.673 945.168 C 412.831 941.565 430.154 941.83 436.926 941.44 z M 437.366 957.485 C 438.182 952.786 439.184 951.903 437.486 948.193 C 432.824 945.456 424.067 947.265 417.794 947.393 C 420.726 951.383 432.604 958.65 437.366 957.485 z"/>
<path transform="translate(0,0)" fill="currentColor" fill-opacity="0.980392" d="M 417.794 947.393 C 424.067 947.265 432.824 945.456 437.486 948.193 C 439.184 951.903 438.182 952.786 437.366 957.485 C 432.604 958.65 420.726 951.383 417.794 947.393 z"/>
<path transform="translate(0,0)" fill="currentColor" d="M 363.29 886.769 C 364.122 886.994 364.242 887.342 364.995 888.055 C 366.896 895.108 376.339 921.702 370.314 925.8 C 366.32 924.905 366.969 924.554 363.596 921.321 C 356.064 913.804 350.717 908.212 343.908 900.074 C 349.872 894.442 356.185 890.661 363.29 886.769 z M 363.698 914.326 L 365.894 915.595 C 367.747 911.405 363.352 897.084 359.936 894.794 C 355.629 897.507 355.137 896.897 353.088 900.812 C 353.52 905.977 359.618 910.446 363.698 914.326 z"/>
<path transform="translate(0,0)" fill="currentColor" fill-opacity="0.984314" d="M 359.936 894.794 C 363.352 897.084 367.747 911.405 365.894 915.595 L 363.698 914.326 C 359.618 910.446 353.52 905.977 353.088 900.812 C 355.137 896.897 355.629 897.507 359.936 894.794 z"/>
<path transform="translate(0,0)" fill="currentColor" d="M 327.387 944.375 C 334.925 943.815 358.754 941.325 363.207 947.644 L 362.367 950.343 C 359.495 953.986 354.091 956.013 349.774 958.054 C 343.079 961.735 338.037 964.603 330.914 967.461 C 329.254 961.938 325.386 950.448 325.618 945.372 L 327.387 944.375 z M 345.026 955.09 C 348.33 953.266 349.597 953.321 351.037 950.387 C 347.034 947.469 336.903 948.919 331.806 949.378 C 332.186 952.794 332.098 956.009 334.105 958.606 C 338.442 959.583 340.838 957.47 345.026 955.09 z"/>
<path transform="translate(0,0)" fill="currentColor" fill-opacity="0.980392" d="M 331.806 949.378 C 336.903 948.919 347.034 947.469 351.037 950.387 C 349.597 953.321 348.33 953.266 345.026 955.09 C 340.838 957.47 338.442 959.583 334.105 958.606 C 332.098 956.009 332.186 952.794 331.806 949.378 z"/>
<path transform="translate(0,0)" fill="currentColor" d="M 403.894 886.257 C 411.747 889.635 419.405 894.805 426.269 899.868 C 420.737 904.772 413.808 911.99 408.415 917.298 C 405.077 921.215 403.985 923.834 398.463 923.07 L 397.072 921.069 C 395.98 913.415 401.949 895.762 403.894 886.257 z M 411.186 907.77 L 417.879 900.661 C 414.739 898.688 410.569 895.84 407.256 894.436 C 406.252 898.697 403.236 908.449 404.703 911.813 C 407.795 911.565 408.426 910.15 411.186 907.77 z"/>
<path transform="translate(0,0)" fill="currentColor" fill-opacity="0.980392" d="M 407.256 894.436 C 410.569 895.84 414.739 898.688 417.879 900.661 L 411.186 907.77 C 408.426 910.15 407.795 911.565 404.703 911.813 C 403.236 908.449 406.252 898.697 407.256 894.436 z"/>
<path transform="translate(0,0)" fill="currentColor" d="M 334.599 909.382 C 340.033 912.138 359.457 926.684 362.475 932.193 C 362.503 935.597 363.068 934.21 361.059 936.613 L 357.313 936.375 C 346.945 934.948 336.604 933.328 326.295 931.516 C 327.76 923.354 331.061 916.741 334.599 909.382 z M 350.052 930.387 L 351.418 929.215 C 349.079 925.002 341.119 920.105 336.952 917.404 C 335.24 920.495 333.564 922.579 333.809 925.973 C 337.242 930.374 344.55 929.894 350.052 930.387 z"/>
<path transform="translate(0,0)" fill="currentColor" fill-opacity="0.980392" d="M 336.952 917.404 C 341.119 920.105 349.079 925.002 351.418 929.215 L 350.052 930.387 C 344.55 929.894 337.242 930.374 333.809 925.973 C 333.564 922.579 335.24 920.495 336.952 917.404 z"/>
<path transform="translate(0,0)" fill="currentColor" d="M 433.436 905.691 C 438.723 912.274 441.314 920.889 443.974 928.844 C 436.203 929.51 427.481 931.226 419.716 932.555 C 415.353 933.899 411.081 935.749 408.796 930.971 C 410.585 924.658 427.589 910.987 433.436 905.691 z M 422.24 927.381 C 427.118 927 430.751 927.183 434.722 924.375 C 436.576 921.687 436.204 923.106 436.148 920.056 C 434.928 918.25 433.664 915.901 431.968 914.82 C 427.448 918.433 423.717 921.133 420.1 925.72 L 420.06 927.138 L 422.24 927.381 z"/>
<path transform="translate(0,0)" fill="currentColor" fill-opacity="0.984314" d="M 431.968 914.82 C 433.664 915.901 434.928 918.25 436.148 920.056 C 436.204 923.106 436.576 921.687 434.722 924.375 C 430.751 927.183 427.118 927 422.24 927.381 L 420.06 927.138 L 420.1 925.72 C 423.717 921.133 427.448 918.433 431.968 914.82 z"/>
<path transform="translate(0,0)" fill="currentColor" d="M 375.43 883.907 C 381.889 883.699 387.117 882.484 391.807 886.473 C 394.996 892.079 390.452 909.18 389.301 917.772 L 387.188 920.353 C 384.078 921.619 385.3 921.64 382.446 920.739 C 377.928 915.877 376.305 891.512 375.43 883.907 z"/>
<path transform="translate(0,0)" fill="currentColor" d="M 390.679 929.9 C 392.778 930.73 395.127 931.748 397.265 932.381 L 396.117 933.784 C 394.471 933.241 395.203 933.476 393.053 934.051 C 391.611 938.644 393.751 939.931 393.828 945.865 L 392.685 946.804 C 382.966 945.308 388.248 935.938 390.903 930.797 L 390.679 929.9 z"/>
<path transform="translate(0,0)" fill="currentColor" fill-opacity="0.984314" d="M 390.903 930.797 C 384.867 931.002 384.406 935.142 379.092 934.682 C 376.727 932.698 375.114 931.029 376.287 927.916 L 380.168 930.668 C 382.474 930.586 383.819 928.591 385.938 926.667 C 388.918 927.095 388.06 927.087 390.679 929.9 L 390.903 930.797 z"/>
<path transform="translate(0,0)" fill="currentColor" d="M 375.128 934.328 C 378.16 936.167 377.647 935.248 378.789 937.999 C 378.148 941.087 375.07 943.4 372.648 945.772 C 369.645 944.292 370.665 945.392 369.311 942.534 C 370.076 938.97 372.522 937.066 375.128 934.328 z"/>
<path transform="translate(0,0)" fill="currentColor" d="M 397.265 932.381 C 400.591 932.666 399.322 932.13 401.884 934.66 C 402.774 938.815 402.806 937.071 401.43 941.378 L 399.928 942.764 C 397.773 938.863 398.636 937.489 396.117 933.784 L 397.265 932.381 z"/>
<path transform="translate(0,0)" fill="currentColor" d="M 1564.4 877.356 C 1603.39 870.541 1640.45 896.843 1646.89 935.898 C 1653.33 974.953 1626.67 1011.76 1587.55 1017.82 C 1548.97 1023.8 1512.77 997.583 1506.42 959.057 C 1500.06 920.531 1525.93 884.079 1564.4 877.356 z M 1584.57 1011.6 C 1620.07 1007.05 1645.12 974.499 1640.41 939.013 C 1635.7 903.527 1603.05 878.63 1567.58 883.491 C 1532.34 888.323 1507.63 920.734 1512.3 955.999 C 1516.98 991.265 1549.28 1016.12 1584.57 1011.6 z"/>
<path transform="translate(0,0)" fill="currentColor" fill-opacity="0.988235" d="M 1572.53 967.786 C 1573.81 967.713 1578.14 967.415 1578.94 968.095 C 1584.87 973.15 1589.39 994.8 1591.87 1003.03 C 1587.01 1003.66 1581.71 1004.08 1576.8 1004.56 C 1571.79 1005.37 1564.01 1003.58 1559.14 1002.47 C 1561.62 994.721 1567.75 973.497 1572.53 967.786 z"/>
<path transform="translate(0,0)" fill="currentColor" d="M 1592.17 957.732 C 1602.55 964.59 1612.53 973.254 1623.9 980.757 L 1613.23 991.414 C 1610.33 994.468 1607.34 996.581 1603.99 999.119 C 1600.11 987.626 1593.8 977.279 1590.38 965.722 C 1589.23 961.824 1590.39 960.96 1592.17 957.732 z M 1610.81 986.409 L 1613.44 982.941 C 1612.27 976.646 1603.16 972.464 1597.79 969.051 C 1599.2 974.581 1601.6 986.398 1607.15 988.998 C 1608.82 988.003 1609.38 987.771 1610.81 986.409 z"/>
<path transform="translate(0,0)" fill="currentColor" fill-opacity="0.980392" d="M 1597.79 969.051 C 1603.16 972.464 1612.27 976.646 1613.44 982.941 L 1610.81 986.409 C 1609.38 987.771 1608.82 988.003 1607.15 988.998 C 1601.6 986.398 1599.2 974.581 1597.79 969.051 z"/>
<path transform="translate(0,0)" fill="currentColor" d="M 1558.37 957.632 C 1561.54 958.77 1562.61 958.811 1564.51 961.363 C 1563.58 965.062 1550.2 990.349 1547.6 995.389 C 1545.08 995.384 1543.08 992.977 1540.63 991.033 C 1535.77 986.68 1534.04 984.457 1529.98 979.261 C 1537.59 972.292 1549.41 965.067 1558.37 957.632 z M 1543.2 986.424 L 1544.98 987.422 C 1548.65 985.33 1552.8 974.308 1554.43 970.13 L 1553.92 967.982 C 1546.06 972.677 1532.96 977.27 1543.2 986.424 z"/>
<path transform="translate(0,0)" fill="currentColor" fill-opacity="0.984314" d="M 1553.92 967.982 L 1554.43 970.13 C 1552.8 974.308 1548.65 985.33 1544.98 987.422 L 1543.2 986.424 C 1532.96 977.27 1546.06 972.677 1553.92 967.982 z"/>
<path transform="translate(0,0)" fill="currentColor" d="M 1624.8 945.418 C 1628.45 945.166 1629.21 944.508 1632.08 946.058 C 1634.75 952.685 1630.6 964.003 1628.72 971.344 L 1613.38 962.446 C 1608.1 959.666 1598.35 956.345 1598.96 949.722 C 1603.53 945.254 1617.8 945.921 1624.8 945.418 z M 1625.61 961.592 C 1626.36 957.86 1627.23 953.991 1627.75 950.233 L 1605.75 951.438 C 1611.2 954.902 1618.28 959.74 1624.03 962.266 L 1625.61 961.592 z"/>
<path transform="translate(0,0)" fill="currentColor" fill-opacity="0.980392" d="M 1605.75 951.438 L 1627.75 950.233 C 1627.23 953.991 1626.36 957.86 1625.61 961.592 L 1624.03 962.266 C 1618.28 959.74 1611.2 954.902 1605.75 951.438 z"/>
<path transform="translate(0,0)" fill="currentColor" d="M 1519.65 945.087 C 1526.79 944.997 1554.68 942.493 1553.9 952.258 C 1551.65 955.687 1548.83 956.387 1544.97 958.066 C 1537.89 961.636 1531.25 964.591 1524 967.78 C 1521.75 959.912 1520.33 953.262 1519.65 945.087 z M 1542.67 953.548 L 1545.75 951.335 L 1545.69 949.97 C 1541.79 948.359 1530.42 948.903 1525.57 948.894 C 1525.81 952.757 1525.46 956 1527.86 958.76 C 1532.76 959.879 1537.8 956.119 1542.67 953.548 z"/>
<path transform="translate(0,0)" fill="currentColor" fill-opacity="0.980392" d="M 1525.57 948.894 C 1530.42 948.903 1541.79 948.359 1545.69 949.97 L 1545.75 951.335 L 1542.67 953.548 C 1537.8 956.119 1532.76 959.879 1527.86 958.76 C 1525.46 956 1525.81 952.757 1525.57 948.894 z"/>
<path transform="translate(0,0)" fill="currentColor" d="M 1556.41 893.774 L 1558.11 894.378 C 1559.27 901.437 1568.12 925.681 1562.49 929.227 C 1559.25 928.758 1557.78 926.421 1555.41 923.879 C 1549.64 917.233 1543.91 910.558 1538.21 903.852 C 1545.69 898.831 1547.98 897.162 1556.41 893.774 z"/>
<path transform="translate(0,0)" fill="currentColor" d="M 1532.53 911.504 C 1534.51 913.085 1538.2 917.9 1540.29 920.081 C 1544.02 923.981 1554.2 932.054 1553 937.631 C 1549.63 939.075 1549.47 938.418 1545.5 937.86 C 1536.86 936.357 1530.02 935.281 1521.3 934.464 C 1523.01 924.287 1525.59 918.937 1532.53 911.504 z M 1540.82 932.205 L 1542.41 931.352 C 1541.22 927.519 1535.5 921.951 1532.35 919.437 C 1530.46 922.456 1528.59 924.581 1528.67 928.007 C 1531.56 931.308 1536.16 931.388 1540.82 932.205 z"/>
<path transform="translate(0,0)" fill="currentColor" fill-opacity="0.984314" d="M 1532.35 919.437 C 1535.5 921.951 1541.22 927.519 1542.41 931.352 L 1540.82 932.205 C 1536.16 931.388 1531.56 931.308 1528.67 928.007 C 1528.59 924.581 1530.46 922.456 1532.35 919.437 z"/>
<path transform="translate(0,0)" fill="currentColor" d="M 1595.25 894.218 C 1603.7 897.526 1608.07 899.826 1614.95 905.722 C 1608.19 911.022 1604.39 915.444 1598.68 921.87 C 1595.25 926.024 1594.55 927.619 1589.81 928.365 L 1588.14 926.816 C 1586.87 920.14 1593.25 902.814 1595.25 894.218 z M 1598.16 914.36 C 1601 911.619 1603.72 909.658 1604.73 905.987 C 1603.21 903.02 1602.02 902.815 1598.56 902.227 C 1597.35 906.2 1595.12 912.301 1595.28 916.177 C 1597.44 915.761 1596.44 916.222 1598.16 914.36 z"/>
<path transform="translate(0,0)" fill="currentColor" fill-opacity="0.984314" d="M 1598.56 902.227 C 1602.02 902.815 1603.21 903.02 1604.73 905.987 C 1603.72 909.658 1601 911.619 1598.16 914.36 C 1596.44 916.222 1597.44 915.761 1595.28 916.177 C 1595.12 912.301 1597.35 906.2 1598.56 902.227 z"/>
<path transform="translate(0,0)" fill="currentColor" d="M 1622 912.788 C 1625.88 915.662 1630.85 929.259 1632.87 934.218 C 1625.3 934.965 1620.23 935.616 1612.7 937.042 C 1607.78 937.214 1602.46 937.025 1597.5 936.942 C 1605.4 927.491 1612.98 921.088 1622 912.788 z M 1615.06 931.925 C 1619.16 931.338 1621.64 931.441 1624.38 928.28 C 1625.38 924.861 1623.51 922.891 1620.31 921.732 C 1617.25 924.175 1613 926.832 1611.78 930.25 C 1613.42 931.981 1612.43 931.313 1615.06 931.925 z"/>
<path transform="translate(0,0)" fill="currentColor" fill-opacity="0.984314" d="M 1620.31 921.732 C 1623.51 922.891 1625.38 924.861 1624.38 928.28 C 1621.64 931.441 1619.16 931.338 1615.06 931.925 C 1612.43 931.313 1613.42 931.981 1611.78 930.25 C 1613 926.832 1617.25 924.175 1620.31 921.732 z"/>
<path transform="translate(0,0)" fill="currentColor" d="M 1567.68 891.203 C 1572.91 890.726 1578.4 889.559 1582.67 892.553 C 1585.77 897.271 1581.48 912.542 1580.76 921.842 C 1580.29 923.454 1579.85 923.916 1578.98 925.356 C 1576.17 925.908 1577.26 925.913 1574.2 924.25 C 1570.24 918.061 1568.68 899.387 1567.68 891.203 z"/>
<path transform="translate(0,0)" fill="currentColor" fill-opacity="0.976471" d="M 1568.63 938.961 C 1569.35 944.274 1564.76 943.813 1564.33 947.815 C 1567.29 950.486 1572.85 950.317 1577.97 952.069 C 1578.35 953.181 1578.78 953.822 1578.61 954.762 C 1575.61 958.044 1576.27 957.136 1571.67 958.706 C 1571.3 956.152 1571.08 957.295 1572.1 955.129 C 1574.04 954.455 1574.46 954.609 1575.7 953.211 C 1570.36 951.791 1569.05 957.458 1563.05 952.296 C 1561.48 948.864 1561.25 948.39 1561.73 944.679 C 1563.51 941.178 1565.11 940.804 1568.63 938.961 z"/>
<path transform="translate(0,0)" fill="currentColor" d="M 152.506 865.109 C 164.7 864.648 182.982 864.503 192.821 872.212 C 201.178 878.76 208.715 889.307 200.394 898.956 C 192.296 899.203 183.854 898.626 176.267 898.472 C 157.769 898.096 149.05 890.797 148.729 872.09 C 148.659 868.035 149.89 867.69 152.506 865.109 z M 199.761 893.699 C 194.779 868.008 172.849 871.891 152.475 868.908 C 153.407 873.221 155.964 887.896 159.247 889.648 C 167.298 893.946 191.31 894.823 199.761 893.699 z"/>
<path transform="translate(0,0)" fill="currentColor" d="M 186.541 799.393 C 187.344 799.119 189.11 799.03 190.042 798.941 L 191.638 800.355 C 189.229 803.114 160.757 807.968 155.214 809.009 C 153.339 809.267 152.406 809.272 150.543 809.307 L 151.43 807.62 C 159.62 801.809 176.078 800.628 186.541 799.393 z"/>
<path transform="translate(0,0)" fill="currentColor" fill-opacity="0.984314" d="M 1190.15 462.863 C 1193.6 462.658 1192.54 462.882 1195.19 463.234 C 1202.55 464.209 1213.05 464.113 1220.49 464 C 1220.98 481.995 1220.36 654.731 1222.01 657.621 C 1223.65 633.89 1219.37 475.348 1223.07 466.805 C 1225.35 465 1224.13 465.384 1226.67 465.156 C 1227.27 470.663 1226.57 481.273 1226.5 487.449 L 1226.45 526.893 C 1226.45 568.605 1227.25 611.544 1227 653.031 C 1236.86 652.946 1292.34 652.828 1296.13 657.132 C 1296.86 657.962 1296.38 659.025 1296.26 660.033 C 1293.55 662.534 1241.24 660.945 1232.42 661.551 C 1244.13 662.254 1254.85 662.876 1266.57 663.083 C 1275.16 663.234 1292.98 662.283 1300.64 663.48 C 1280.35 665.174 1244.56 661.572 1224.81 664.224 L 1225.22 665.004 C 1226.45 680.692 1226.02 700.882 1225.89 716.925 L 1221.41 717.602 L 1222.48 714.645 C 1225.19 708.718 1222.35 675.507 1223.62 664.462 C 1204.75 661.998 1168.88 664.04 1148.48 663.432 L 1147.36 662.202 L 1149.01 659.784 C 1148.49 657.609 1148.31 657.331 1148.43 655.042 C 1156.33 653.328 1172.94 656.593 1182.93 653.287 L 1182.97 651.743 C 1184.96 651.105 1186.89 650.288 1188.74 649.301 C 1195.89 645.399 1195.03 637.602 1195.12 630.621 C 1195.27 617.403 1195.26 604.178 1195.37 590.959 C 1195.69 564.313 1195.83 537.665 1195.77 511.017 C 1195.75 498.877 1195.99 485.809 1195.15 473.719 C 1194.93 470.445 1191.94 465.791 1190.15 462.863 z"/>
<path transform="translate(0,0)" fill="currentColor" fill-opacity="0.980392" d="M 1568.64 825.45 C 1638.47 824.967 1686.59 871.225 1693.5 939.916 L 1676.57 939.769 C 1665.3 877.223 1628.71 844.76 1564.42 847.045 C 1505.64 857.992 1479.69 895.521 1475.78 953.228 C 1468.5 953.598 1461.05 953.637 1453.74 953.761 C 1458.93 918.026 1464.54 897.331 1487.79 868.112 C 1507.9 842.829 1536.62 828.721 1568.64 825.45 z"/>
<path transform="translate(0,0)" fill="currentColor" fill-opacity="0.980392" d="M 373.136 819.357 C 409.735 812.917 459.419 838.665 479.752 868.704 C 499.034 897.19 503.913 920.538 506.942 953.904 L 487.07 954.003 C 488.52 920.254 483.851 897.297 460.313 870.35 C 445.922 853.874 420.39 840.185 398.243 839.099 C 362.158 835.699 331.859 845.962 307.992 874.231 C 286.247 899.986 281.174 926.161 283.895 958.768 L 269.035 959.26 C 266.235 886.89 296.718 831.426 373.136 819.357 z"/>
<path transform="translate(0,0)" fill="currentColor" d="M 243.66 742.348 C 246.45 741.898 250.715 741.361 253.003 742.974 L 252.513 743.959 C 219.141 757.337 192.349 742.008 166.22 776.754 C 164.735 779.663 164.052 781.204 160.958 781.792 C 160.187 778.019 164.981 770.12 167.356 767.186 C 183.788 746.887 219.384 745.424 243.66 742.348 z"/>
<path transform="translate(0,0)" fill="currentColor" fill-opacity="0.980392" d="M 297.995 836.77 C 272.538 867.43 256.341 896.38 255.024 937.229 C 254.938 939.912 254.424 948.981 253.045 950.552 L 251.891 949.93 C 251.395 948.611 250.935 946.946 250.976 945.559 C 252.323 899.919 266.301 867.564 296.063 835.07 L 297.995 836.77 z"/>
<path transform="translate(0,0)" fill="currentColor" fill-opacity="0.968627" d="M 1831.81 393.332 C 1834.6 393.575 1839.64 393.861 1842.19 394.456 L 1843.08 395.982 L 1844.96 395.315 L 1844.2 394.957 L 1844.48 395.842 C 1838.14 397.129 1830.18 396.196 1823.66 395.359 C 1827.44 394.958 1828.43 394.977 1831.81 393.332 z"/>
</svg>
